<svg width="165" height="56" viewBox="0 0 165 56" fill="none" xmlns="http://www.w3.org/2000/svg">
    <rect width="165" height="56" rx="28" fill="#98353C" />
    <path
        d="M105.024 18.414C106.284 18.414 107.339 18.5727 108.188 18.89C109.037 19.2073 109.845 19.674 110.61 20.29L109.252 21.872C108.645 21.3587 108.001 20.9947 107.32 20.78C106.648 20.556 105.943 20.444 105.206 20.444C104.151 20.444 103.176 20.696 102.28 21.2C101.384 21.6947 100.661 22.5207 100.11 23.678C99.5687 24.826 99.298 26.3847 99.298 28.354C99.298 30.2673 99.5547 31.8027 100.068 32.96C100.591 34.1173 101.295 34.9527 102.182 35.466C103.069 35.9793 104.058 36.236 105.15 36.236C106.233 36.236 107.119 36.0727 107.81 35.746C108.51 35.4193 109.117 35.046 109.63 34.626L110.89 36.222C110.302 36.7913 109.537 37.286 108.594 37.706C107.651 38.1167 106.494 38.322 105.122 38.322C103.563 38.322 102.149 37.9393 100.88 37.174C99.62 36.4087 98.6213 35.2887 97.884 33.814C97.1467 32.33 96.778 30.51 96.778 28.354C96.778 26.1887 97.1513 24.3687 97.898 22.894C98.654 21.4193 99.6573 20.304 100.908 19.548C102.168 18.792 103.54 18.414 105.024 18.414ZM126.811 32.666C126.811 33.7673 126.536 34.7473 125.985 35.606C125.434 36.4553 124.636 37.1227 123.591 37.608C122.546 38.084 121.272 38.322 119.769 38.322C118.36 38.322 117.081 38.1073 115.933 37.678C114.794 37.2487 113.819 36.642 113.007 35.858L114.449 34.234C115.121 34.8593 115.891 35.3587 116.759 35.732C117.627 36.096 118.644 36.278 119.811 36.278C120.595 36.278 121.328 36.152 122.009 35.9C122.69 35.6387 123.241 35.2467 123.661 34.724C124.081 34.192 124.291 33.52 124.291 32.708C124.291 32.0827 124.17 31.5507 123.927 31.112C123.684 30.6733 123.255 30.286 122.639 29.95C122.023 29.6047 121.164 29.2687 120.063 28.942C118.794 28.5687 117.692 28.1487 116.759 27.682C115.835 27.206 115.116 26.6227 114.603 25.932C114.099 25.2413 113.847 24.3873 113.847 23.37C113.847 22.4087 114.113 21.5547 114.645 20.808C115.177 20.0613 115.91 19.478 116.843 19.058C117.786 18.6287 118.868 18.414 120.091 18.414C121.426 18.414 122.583 18.6053 123.563 18.988C124.552 19.3613 125.448 19.9027 126.251 20.612L124.823 22.194C124.132 21.578 123.39 21.1347 122.597 20.864C121.804 20.584 120.996 20.444 120.175 20.444C119.475 20.444 118.831 20.5513 118.243 20.766C117.664 20.9713 117.198 21.284 116.843 21.704C116.498 22.1147 116.325 22.642 116.325 23.286C116.325 23.8367 116.474 24.3127 116.773 24.714C117.072 25.1153 117.576 25.484 118.285 25.82C118.994 26.1467 119.96 26.492 121.183 26.856C122.182 27.1453 123.106 27.5093 123.955 27.948C124.814 28.3773 125.504 28.9653 126.027 29.712C126.55 30.4493 126.811 31.434 126.811 32.666ZM143.6 32.666C143.6 33.7673 143.325 34.7473 142.774 35.606C142.223 36.4553 141.425 37.1227 140.38 37.608C139.335 38.084 138.061 38.322 136.558 38.322C135.149 38.322 133.87 38.1073 132.722 37.678C131.583 37.2487 130.608 36.642 129.796 35.858L131.238 34.234C131.91 34.8593 132.68 35.3587 133.548 35.732C134.416 36.096 135.433 36.278 136.6 36.278C137.384 36.278 138.117 36.152 138.798 35.9C139.479 35.6387 140.03 35.2467 140.45 34.724C140.87 34.192 141.08 33.52 141.08 32.708C141.08 32.0827 140.959 31.5507 140.716 31.112C140.473 30.6733 140.044 30.286 139.428 29.95C138.812 29.6047 137.953 29.2687 136.852 28.942C135.583 28.5687 134.481 28.1487 133.548 27.682C132.624 27.206 131.905 26.6227 131.392 25.932C130.888 25.2413 130.636 24.3873 130.636 23.37C130.636 22.4087 130.902 21.5547 131.434 20.808C131.966 20.0613 132.699 19.478 133.632 19.058C134.575 18.6287 135.657 18.414 136.88 18.414C138.215 18.414 139.372 18.6053 140.352 18.988C141.341 19.3613 142.237 19.9027 143.04 20.612L141.612 22.194C140.921 21.578 140.179 21.1347 139.386 20.864C138.593 20.584 137.785 20.444 136.964 20.444C136.264 20.444 135.62 20.5513 135.032 20.766C134.453 20.9713 133.987 21.284 133.632 21.704C133.287 22.1147 133.114 22.642 133.114 23.286C133.114 23.8367 133.263 24.3127 133.562 24.714C133.861 25.1153 134.365 25.484 135.074 25.82C135.783 26.1467 136.749 26.492 137.972 26.856C138.971 27.1453 139.895 27.5093 140.744 27.948C141.603 28.3773 142.293 28.9653 142.816 29.712C143.339 30.4493 143.6 31.434 143.6 32.666Z"
        fill="white" />
    <path d="M83 10L79.5381 44.196L63.9767 48L48.4582 44.2014L45 10H83Z" fill="white" />
    <path d="M52.9278 25.4746L53.3542 29.6692H63.9999V25.4746H52.9278Z" fill="#98353C" />
    <path d="M64.0005 16.9951H63.984H52.0717L52.5041 21.1898H64.0005V16.9951Z" fill="#98353C" />
    <path
        d="M63.9999 40.7401V36.3759L63.9791 36.3808L58.6809 35.1194L58.3422 31.7739H55.7678H53.5668L54.2332 38.3601L63.978 40.7455L63.9999 40.7401Z"
        fill="#98353C" />
    <path
        d="M69.842 29.6798L69.2898 35.12L63.9841 36.3827V40.7467L73.7366 38.3634L73.8081 37.6548L74.926 26.6116L75.0421 25.4852L75.9009 16.9951H63.9841V21.1898H70.6874L70.2546 25.4852H63.9841V29.6798H69.842Z"
        fill="#98353C" />
    <path
        d="M27.34 23.76L26.16 32.62H29.4V35.22H25.78L24.94 42H22.06L22.96 35.22H17.14L16.26 42H13.38L14.28 35.22H11.12V32.62H14.62L15.84 23.76H12.6V21.14H16.18L17.06 14.46H19.94L18.98 21.14H24.86L25.74 14.46H28.62L27.68 21.14H30.88V23.76H27.34ZM17.48 32.62H23.3L24.52 23.76H18.66L17.48 32.62Z"
        fill="white" />
</svg>