<svg width="198" height="56" viewBox="0 0 198 56" fill="none" xmlns="http://www.w3.org/2000/svg">
<rect width="198" height="56" rx="28" fill="#2D577A"/>
<path d="M27.34 23.76L26.16 32.62H29.4V35.22H25.78L24.94 42H22.06L22.96 35.22H17.14L16.26 42H13.38L14.28 35.22H11.12V32.62H14.62L15.84 23.76H12.6V21.14H16.18L17.06 14.46H19.94L18.98 21.14H24.86L25.74 14.46H28.62L27.68 21.14H30.88V23.76H27.34ZM17.48 32.62H23.3L24.52 23.76H18.66L17.48 32.62Z" fill="white"/>
<path d="M86.1809 48.3484V18.5937H87.7948V23.2741C87.9854 23.0666 88.1614 22.8461 88.3216 22.6143C89.6696 19.8177 92.5127 18.0527 95.6166 18.0875C99.2964 17.9778 102.287 19.34 104.044 22.6143C105.162 24.6485 105.778 26.9207 105.839 29.2412C105.9 31.5617 105.405 33.8631 104.395 35.9533C102.758 39.6228 98.7141 41.4472 94.3849 40.7771C93.0376 40.6625 91.7404 40.2124 90.6118 39.4676C89.4832 38.7229 88.5591 37.7073 87.9239 36.5137V48.3471L86.1809 48.3484ZM87.7948 29.1192L88.1563 32.6131C88.7942 36.5898 91.1454 38.9398 94.8368 39.3813C96.5703 39.6663 98.349 39.3413 99.8697 38.4617C101.39 37.5821 102.559 36.2023 103.176 34.5576C104.612 31.136 104.506 27.2625 102.892 23.921C102.233 22.4466 101.113 21.2267 99.6992 20.4457C98.2857 19.6646 96.6565 19.3649 95.0576 19.5917C93.5568 19.7009 92.1272 20.2748 90.9675 21.2337C89.8078 22.1925 88.9755 23.4888 88.5863 24.9423C88.2426 26.3178 87.9783 27.712 87.7948 29.1179V29.1192ZM138.793 33.1631C138.548 35.2581 137.551 37.1929 135.986 38.6077C134.422 40.0225 132.397 40.8209 130.288 40.8545C123.52 41.1954 120.344 36.7009 119.839 31.5143C119.488 28.6977 119.945 25.8394 121.157 23.2728C122.001 21.5122 123.383 20.0658 125.104 19.1433C126.824 18.2208 128.794 17.87 130.727 18.1418C132.565 18.298 134.307 19.0283 135.707 20.2292C137.107 21.4302 138.094 23.0411 138.528 24.8338C138.872 26.4669 139.125 28.1179 139.286 29.779H121.511C121.182 34.4814 123.708 38.2619 127.29 39.1735C131.751 40.2709 135.564 38.3381 136.948 34.0966C137.255 33.0082 137.816 32.8545 138.805 33.1631H138.793ZM121.498 28.2735H137.397C137.298 23.2638 134.178 19.6227 129.947 19.5814C125.17 19.5039 121.706 22.9991 121.498 28.2735ZM142.079 33.2729H143.637C143.695 34.421 144.068 35.5311 144.715 36.481C145.362 37.4309 146.259 38.1839 147.307 38.657C148.622 39.249 150.054 39.5367 151.497 39.4987C152.939 39.4607 154.354 39.098 155.636 38.4375C156.335 38.1227 156.921 37.6009 157.314 36.9426C157.707 36.2843 157.888 35.5212 157.834 34.7564C157.874 34.0188 157.673 33.2883 157.26 32.6755C156.848 32.0627 156.247 31.6011 155.548 31.3607C153.834 30.7228 152.011 30.3716 150.264 29.8113C148.446 29.2937 146.668 28.6438 144.945 27.8668C142.131 26.493 141.956 21.1424 145.143 19.4484C146.775 18.5277 148.611 18.0302 150.484 18.0014C152.357 17.9725 154.208 18.4132 155.867 19.2832C157.925 20.4194 159.063 22.7138 158.725 25.0417H157.388C157.388 24.9772 157.267 24.9203 157.267 24.8545C157.102 20.5937 153.52 19.2612 149.675 19.6356C148.513 19.7648 147.411 20.1159 146.379 20.635C145.758 20.9186 145.24 21.3881 144.898 21.9787C144.555 22.5692 144.405 23.2516 144.468 23.9313C144.469 24.6116 144.681 25.2747 145.074 25.8296C145.468 26.3845 146.024 26.8039 146.665 27.0301C148.344 27.646 150.125 28.0411 151.862 28.524L156.058 29.6215C157.012 29.9345 157.848 30.5297 158.457 31.3283C159.065 32.1269 159.416 33.0914 159.464 34.094C159.8 36.3471 158.651 38.5614 156.619 39.5879C152.949 41.6641 146.905 41.1154 144.213 38.4904C142.836 37.105 142.067 35.2238 142.083 33.2716L142.079 33.2729ZM179.239 25.043H177.777C177.777 24.8455 177.699 24.6557 177.678 24.5046C177.654 23.409 177.255 22.3548 176.547 21.5186C175.838 20.6824 174.864 20.1152 173.787 19.9119C171.756 19.3293 169.589 19.4337 167.623 20.2089C166.846 20.4314 166.161 20.8995 165.672 21.5432C165.183 22.187 164.915 22.9717 164.909 23.7803C164.881 24.5741 165.129 25.3533 165.609 25.9859C166.089 26.6185 166.774 27.0658 167.546 27.2522L174.226 28.9668C174.949 29.1401 175.66 29.3566 176.357 29.615C178.487 30.3897 179.933 32.3678 179.998 34.6286C180.03 35.7352 179.726 36.8256 179.127 37.7566C178.528 38.6875 177.661 39.4155 176.641 39.8449C175.09 40.5492 173.41 40.9218 171.707 40.939C170.004 40.9561 168.316 40.6173 166.752 39.9443C165.465 39.3895 164.38 38.4539 163.641 37.2635C162.902 36.073 162.546 34.6848 162.62 33.2858H164.048C164.585 35.8745 166.363 38.0308 168.802 39.0508C171.241 40.0708 174.026 39.8203 176.244 38.3846C176.91 38.0385 177.462 37.5089 177.836 36.8586C178.21 36.2082 178.39 35.4644 178.354 34.7151C178.387 33.977 178.179 33.2483 177.76 32.6394C177.342 32.0306 176.736 31.5748 176.035 31.3413C174.32 30.7035 172.497 30.3639 170.75 29.7919C168.922 29.2823 167.134 28.6398 165.4 27.8694C162.652 26.5175 162.433 21.2108 165.565 19.5181C167.217 18.5588 169.089 18.0434 170.999 18.0221C172.909 18.0009 174.792 18.4744 176.465 19.3968C177.422 19.9678 178.192 20.8047 178.682 21.8056C179.171 22.8065 179.359 23.9281 179.223 25.034L179.239 25.043ZM83.5249 40.3174C82.9496 40.535 82.3145 40.5344 81.7396 40.3158C81.1647 40.0972 80.6897 39.6757 80.4042 39.1308L74.7231 31.2741L73.8994 30.1767L67.3067 39.1425C67.038 39.6639 66.5887 40.0696 66.0427 40.284C65.4966 40.4983 64.8913 40.5065 64.3396 40.3071L72.8329 28.9126L64.931 18.6169C66.1033 18.1934 67.41 18.6531 68.062 19.7144L73.9497 27.6679L79.8723 19.7454C80.143 19.2329 80.5926 18.8378 81.1356 18.6352C81.6786 18.4326 82.2772 18.4367 82.8174 18.6466L79.7509 22.715L75.5972 28.1211C75.4819 28.2241 75.3897 28.3502 75.3266 28.4913C75.2634 28.6324 75.2308 28.7852 75.2308 28.9397C75.2308 29.0943 75.2634 29.2471 75.3266 29.3882C75.3897 29.5292 75.4819 29.6554 75.5972 29.7583L83.5082 40.3174H83.5249ZM119.587 18.5072V20.0566C118.476 19.9837 117.361 20.1446 116.316 20.529C115.271 20.9134 114.318 21.5126 113.518 22.2881C112.719 23.0637 112.091 23.9981 111.675 25.0313C111.259 26.0645 111.065 27.1734 111.104 28.2864C111.104 31.9051 111.104 35.5238 111.104 39.1425V40.3729H109.533V18.604H111.082V23.065C112.983 19.8112 115.916 18.604 119.597 18.5162L119.587 18.5072ZM44.0026 28.7706L44.6946 25.3529C46.5952 18.595 54.3422 15.7828 59.6721 19.9688C62.7928 22.4194 63.5714 25.8913 63.419 29.8035H45.8373C45.5533 36.7913 50.5952 41.0108 57.0446 38.8571C59.1698 38.0824 60.7696 36.3161 61.2964 34.1211C61.6372 33.0237 62.2002 32.8352 63.2305 33.1528C63.0587 34.4906 62.5857 35.772 61.8473 36.9007C61.1088 38.0294 60.1241 38.976 58.9671 39.6693C57.0556 40.7146 54.8625 41.1288 52.7015 40.8526C50.5404 40.5764 48.5219 39.624 46.9348 38.1315C45.3648 36.3665 44.417 34.1354 44.2324 31.779C44.2324 31.3916 44.1033 31.0301 44.0129 30.6815C44.0043 30.0299 44 29.3929 44 28.7706H44.0026ZM45.8593 28.298H61.7586C61.6592 23.2328 58.4623 19.6395 54.1989 19.6059C49.4526 19.5414 46.0568 23.0559 45.8476 28.2761L45.8593 28.298Z" fill="white"/>
</svg>
