<svg width="165" height="56" viewBox="0 0 165 56" fill="none" xmlns="http://www.w3.org/2000/svg">
    <rect width="165" height="56" rx="28" fill="#98353C" />
    <path
        d="M105.778 38.322C104.257 38.322 102.931 37.9533 101.802 37.216C100.682 36.4787 99.814 35.3727 99.198 33.898C98.582 32.4233 98.274 30.5753 98.274 28.354C98.274 26.6927 98.4933 25.2413 98.932 24C99.38 22.7587 99.982 21.7227 100.738 20.892C101.503 20.0613 102.367 19.4407 103.328 19.03C104.299 18.6193 105.302 18.414 106.338 18.414C107.598 18.414 108.643 18.596 109.474 18.96C110.305 19.3147 111.098 19.8373 111.854 20.528L110.384 22.054C109.796 21.5033 109.175 21.0973 108.522 20.836C107.878 20.5747 107.155 20.444 106.352 20.444C105.652 20.444 104.975 20.5793 104.322 20.85C103.669 21.1207 103.081 21.564 102.558 22.18C102.045 22.7867 101.634 23.594 101.326 24.602C101.027 25.61 100.878 26.8607 100.878 28.354C100.878 30.2113 101.069 31.7233 101.452 32.89C101.844 34.0567 102.418 34.9153 103.174 35.466C103.939 36.0073 104.882 36.278 106.002 36.278C106.674 36.278 107.309 36.1987 107.906 36.04C108.513 35.8813 109.101 35.6527 109.67 35.354V29.474H105.876L105.582 27.458H112.078V36.642C111.21 37.1087 110.286 37.5053 109.306 37.832C108.326 38.1587 107.15 38.322 105.778 38.322ZM127.705 18.722V20.668H123.421V36.054H127.705V38H116.673V36.054H120.957V20.668H116.673V18.722H127.705ZM140.14 20.808V38H137.718V20.808H131.698V18.722H146.244L145.992 20.808H140.14Z"
        fill="white" />
    <path
        d="M32.34 23.76L31.16 32.62H34.4V35.22H30.78L29.94 42H27.06L27.96 35.22H22.14L21.26 42H18.38L19.28 35.22H16.12V32.62H19.62L20.84 23.76H17.6V21.14H21.18L22.06 14.46H24.94L23.98 21.14H29.86L30.74 14.46H33.62L32.68 21.14H35.88V23.76H32.34ZM22.48 32.62H28.3L29.52 23.76H23.66L22.48 32.62Z"
        fill="white" />
    <path
        d="M85.2455 26.2178L67.7813 8.7545C66.7757 7.7485 65.1446 7.7485 64.1382 8.7545L60.512 12.3815L65.112 16.9814C66.1811 16.6201 67.4069 16.8626 68.2588 17.7149C69.116 18.5725 69.3562 19.8088 68.9858 20.8818L73.4199 25.3154C74.4929 24.9454 75.7301 25.1849 76.5867 26.0428C77.7838 27.24 77.7838 29.1797 76.5867 30.3777C75.3888 31.5752 73.449 31.5752 72.2506 30.3777C71.3504 29.4766 71.1275 28.1532 71.5842 27.0441L67.4487 22.909V33.7905C67.7404 33.935 68.0159 34.1274 68.2588 34.3703C69.4559 35.5674 69.4559 37.5072 68.2588 38.7056C67.0617 39.9023 65.1207 39.9023 63.9244 38.7056C62.7273 37.5067 62.7273 35.567 63.9244 34.3703C64.2205 34.0748 64.563 33.851 64.9287 33.7013V22.7184C64.563 22.5686 64.2213 22.3471 63.9244 22.0493C63.0177 21.143 62.7996 19.8118 63.2645 18.6983L58.7299 14.1628L46.7545 26.1369C45.7485 27.1437 45.7485 28.7749 46.7545 29.7809L64.2196 47.2446C65.2251 48.2506 66.8558 48.2506 67.8627 47.2446L85.2455 29.8618C86.2515 28.8558 86.2515 27.2238 85.2455 26.2178Z"
        fill="white" />
</svg>