<svg width="357" height="56" viewBox="0 0 357 56" fill="none" xmlns="http://www.w3.org/2000/svg">
<rect width="357" height="56" rx="28" fill="#98353C"/>
<path d="M105.778 38.322C104.257 38.322 102.931 37.9533 101.802 37.216C100.682 36.4787 99.814 35.3727 99.198 33.898C98.582 32.4233 98.274 30.5753 98.274 28.354C98.274 26.6927 98.4933 25.2413 98.932 24C99.38 22.7587 99.982 21.7227 100.738 20.892C101.503 20.0613 102.367 19.4407 103.328 19.03C104.299 18.6193 105.302 18.414 106.338 18.414C107.598 18.414 108.643 18.596 109.474 18.96C110.305 19.3147 111.098 19.8373 111.854 20.528L110.384 22.054C109.796 21.5033 109.175 21.0973 108.522 20.836C107.878 20.5747 107.155 20.444 106.352 20.444C105.652 20.444 104.975 20.5793 104.322 20.85C103.669 21.1207 103.081 21.564 102.558 22.18C102.045 22.7867 101.634 23.594 101.326 24.602C101.027 25.61 100.878 26.8607 100.878 28.354C100.878 30.2113 101.069 31.7233 101.452 32.89C101.844 34.0567 102.418 34.9153 103.174 35.466C103.939 36.0073 104.882 36.278 106.002 36.278C106.674 36.278 107.309 36.1987 107.906 36.04C108.513 35.8813 109.101 35.6527 109.67 35.354V29.474H105.876L105.582 27.458H112.078V36.642C111.21 37.1087 110.286 37.5053 109.306 37.832C108.326 38.1587 107.15 38.322 105.778 38.322ZM124.065 23.258V36.138H128.223V38H117.163V36.138H121.713V25.12H117.303V23.258H124.065ZM122.189 16.356C122.712 16.356 123.127 16.5147 123.435 16.832C123.752 17.1493 123.911 17.5367 123.911 17.994C123.911 18.47 123.752 18.8713 123.435 19.198C123.127 19.5153 122.712 19.674 122.189 19.674C121.694 19.674 121.288 19.5153 120.971 19.198C120.654 18.8713 120.495 18.47 120.495 17.994C120.495 17.5367 120.654 17.1493 120.971 16.832C121.288 16.5147 121.694 16.356 122.189 16.356ZM145.096 37.258C144.592 37.594 143.981 37.8553 143.262 38.042C142.543 38.2287 141.839 38.322 141.148 38.322C139.561 38.322 138.339 37.9067 137.48 37.076C136.621 36.2453 136.192 35.1767 136.192 33.87V25.078H132.804V23.258H136.192V19.912L138.544 19.632V23.258H143.64L143.36 25.078H138.544V33.842C138.544 34.6633 138.759 35.2887 139.188 35.718C139.627 36.1473 140.35 36.362 141.358 36.362C141.909 36.362 142.417 36.2967 142.884 36.166C143.351 36.0353 143.785 35.8673 144.186 35.662L145.096 37.258ZM159.407 38V28.858H152.127V38H149.705V18.722H152.127V26.87H159.407V18.722H161.829V38H159.407ZM169.322 23.258V33.702C169.322 34.6727 169.523 35.3727 169.924 35.802C170.326 36.2313 170.951 36.446 171.8 36.446C172.612 36.446 173.378 36.2173 174.096 35.76C174.824 35.2933 175.389 34.7427 175.79 34.108V23.258H178.142V38H176.14L175.944 36.012C175.366 36.7587 174.652 37.3327 173.802 37.734C172.953 38.126 172.094 38.322 171.226 38.322C169.798 38.322 168.73 37.944 168.02 37.188C167.32 36.4227 166.97 35.354 166.97 33.982V23.258H169.322ZM186.111 25.176C186.653 24.4667 187.273 23.9207 187.973 23.538C188.683 23.146 189.462 22.95 190.311 22.95C191.627 22.95 192.691 23.2673 193.503 23.902C194.315 24.5367 194.908 25.4327 195.281 26.59C195.655 27.738 195.841 29.082 195.841 30.622C195.841 32.106 195.617 33.4313 195.169 34.598C194.721 35.7553 194.063 36.6653 193.195 37.328C192.337 37.9907 191.273 38.322 190.003 38.322C188.295 38.322 186.956 37.706 185.985 36.474L185.817 38H183.759V17.322L186.111 17.028V25.176ZM189.443 36.418C190.675 36.418 191.623 35.942 192.285 34.99C192.948 34.038 193.279 32.5773 193.279 30.608C193.279 29.32 193.149 28.2513 192.887 27.402C192.626 26.5433 192.234 25.904 191.711 25.484C191.198 25.0547 190.563 24.84 189.807 24.84C188.986 24.84 188.263 25.0873 187.637 25.582C187.021 26.0673 186.513 26.6087 186.111 27.206V34.514C186.494 35.0927 186.975 35.5547 187.553 35.9C188.141 36.2453 188.771 36.418 189.443 36.418ZM226.661 33.086H219.031L217.491 38H215.097L221.369 18.722H224.477L230.749 38H228.201L226.661 33.086ZM219.661 31.07H226.031L222.867 20.766L219.661 31.07ZM240.791 36.292C241.528 36.292 242.214 36.1707 242.849 35.928C243.493 35.6853 244.085 35.3773 244.627 35.004L245.774 36.544C245.131 37.0947 244.356 37.5287 243.451 37.846C242.545 38.1633 241.659 38.322 240.791 38.322C239.325 38.322 238.075 38.0093 237.039 37.384C236.012 36.7493 235.228 35.8627 234.687 34.724C234.145 33.576 233.875 32.232 233.875 30.692C233.875 29.2173 234.145 27.8967 234.687 26.73C235.237 25.554 236.026 24.63 237.053 23.958C238.089 23.286 239.344 22.95 240.819 22.95C241.761 22.95 242.643 23.0947 243.465 23.384C244.295 23.664 245.056 24.0887 245.747 24.658L244.599 26.226C243.973 25.7873 243.343 25.4607 242.709 25.246C242.083 25.022 241.444 24.91 240.791 24.91C239.521 24.91 238.476 25.386 237.655 26.338C236.833 27.29 236.423 28.7413 236.423 30.692C236.423 31.9987 236.609 33.0673 236.983 33.898C237.365 34.7193 237.883 35.326 238.537 35.718C239.199 36.1007 239.951 36.292 240.791 36.292ZM262.62 37.258C262.116 37.594 261.504 37.8553 260.786 38.042C260.067 38.2287 259.362 38.322 258.672 38.322C257.085 38.322 255.862 37.9067 255.004 37.076C254.145 36.2453 253.716 35.1767 253.716 33.87V25.078H250.328V23.258H253.716V19.912L256.068 19.632V23.258H261.164L260.884 25.078H256.068V33.842C256.068 34.6633 256.282 35.2887 256.712 35.718C257.15 36.1473 257.874 36.362 258.882 36.362C259.432 36.362 259.941 36.2967 260.408 36.166C260.874 36.0353 261.308 35.8673 261.71 35.662L262.62 37.258ZM275.167 23.258V36.138H279.325V38H268.265V36.138H272.815V25.12H268.405V23.258H275.167ZM273.291 16.356C273.813 16.356 274.229 16.5147 274.537 16.832C274.854 17.1493 275.013 17.5367 275.013 17.994C275.013 18.47 274.854 18.8713 274.537 19.198C274.229 19.5153 273.813 19.674 273.291 19.674C272.796 19.674 272.39 19.5153 272.073 19.198C271.755 18.8713 271.597 18.47 271.597 17.994C271.597 17.5367 271.755 17.1493 272.073 16.832C272.39 16.5147 272.796 16.356 273.291 16.356ZM290.108 22.95C291.498 22.95 292.66 23.2673 293.594 23.902C294.536 24.5273 295.241 25.414 295.708 26.562C296.184 27.71 296.422 29.0633 296.422 30.622C296.422 32.1247 296.179 33.4547 295.694 34.612C295.208 35.7693 294.494 36.6793 293.552 37.342C292.618 37.9953 291.461 38.322 290.08 38.322C288.698 38.322 287.536 38.0047 286.594 37.37C285.651 36.7353 284.937 35.844 284.452 34.696C283.976 33.5387 283.738 32.19 283.738 30.65C283.738 29.1287 283.98 27.7893 284.466 26.632C284.951 25.4747 285.665 24.574 286.608 23.93C287.56 23.2767 288.726 22.95 290.108 22.95ZM290.108 24.868C288.838 24.868 287.877 25.3393 287.224 26.282C286.58 27.2153 286.258 28.6713 286.258 30.65C286.258 32.5913 286.575 34.0333 287.21 34.976C287.854 35.9187 288.81 36.39 290.08 36.39C291.349 36.39 292.301 35.9187 292.936 34.976C293.58 34.0333 293.902 32.582 293.902 30.622C293.902 28.662 293.584 27.2153 292.95 26.282C292.315 25.3393 291.368 24.868 290.108 24.868ZM301.283 38V23.258H303.285L303.467 25.302C304.064 24.546 304.811 23.9673 305.707 23.566C306.612 23.1553 307.489 22.95 308.339 22.95C309.785 22.95 310.835 23.3327 311.489 24.098C312.151 24.8633 312.483 25.9273 312.483 27.29V38H310.131V29.026C310.131 28.018 310.075 27.206 309.963 26.59C309.851 25.9647 309.617 25.512 309.263 25.232C308.908 24.9427 308.357 24.798 307.611 24.798C307.032 24.798 306.486 24.924 305.973 25.176C305.469 25.428 305.016 25.7453 304.615 26.128C304.223 26.5013 303.896 26.8793 303.635 27.262V38H301.283ZM323.084 36.376C324.213 36.376 325.104 36.166 325.758 35.746C326.42 35.3167 326.752 34.7473 326.752 34.038C326.752 33.59 326.668 33.2027 326.5 32.876C326.341 32.5493 326.01 32.2553 325.506 31.994C325.002 31.7327 324.227 31.4713 323.182 31.21C322.164 30.958 321.278 30.6687 320.522 30.342C319.775 30.006 319.192 29.572 318.772 29.04C318.361 28.508 318.156 27.8173 318.156 26.968C318.156 26.1373 318.389 25.4233 318.856 24.826C319.332 24.2193 319.99 23.7573 320.83 23.44C321.67 23.1133 322.645 22.95 323.756 22.95C324.941 22.95 325.972 23.1087 326.85 23.426C327.736 23.734 328.488 24.1167 329.104 24.574L328.068 26.17C327.508 25.7873 326.892 25.4747 326.22 25.232C325.548 24.98 324.736 24.854 323.784 24.854C322.626 24.854 321.805 25.036 321.32 25.4C320.834 25.7547 320.592 26.2167 320.592 26.786C320.592 27.2153 320.708 27.5747 320.942 27.864C321.184 28.144 321.59 28.4007 322.16 28.634C322.729 28.858 323.513 29.1053 324.512 29.376C325.473 29.628 326.308 29.9313 327.018 30.286C327.736 30.6407 328.296 31.1073 328.698 31.686C329.099 32.2647 329.3 33.0113 329.3 33.926C329.3 34.9713 329.001 35.8207 328.404 36.474C327.806 37.118 327.032 37.5893 326.08 37.888C325.137 38.1773 324.138 38.322 323.084 38.322C321.749 38.322 320.61 38.1307 319.668 37.748C318.734 37.356 317.95 36.8847 317.316 36.334L318.66 34.78C319.238 35.256 319.901 35.6433 320.648 35.942C321.404 36.2313 322.216 36.376 323.084 36.376Z" fill="white"/>
<path d="M32.34 23.76L31.16 32.62H34.4V35.22H30.78L29.94 42H27.06L27.96 35.22H22.14L21.26 42H18.38L19.28 35.22H16.12V32.62H19.62L20.84 23.76H17.6V21.14H21.18L22.06 14.46H24.94L23.98 21.14H29.86L30.74 14.46H33.62L32.68 21.14H35.88V23.76H32.34ZM22.48 32.62H28.3L29.52 23.76H23.66L22.48 32.62Z" fill="white"/>
<path d="M64.3067 30.06C64.0861 30.06 63.8745 29.9724 63.7183 29.8167L62.4767 28.5783C62.397 28.5016 62.3334 28.4097 62.2896 28.3081C62.2457 28.2065 62.2226 28.0972 62.2215 27.9865C62.2204 27.8759 62.2413 27.7661 62.2831 27.6637C62.3248 27.5612 62.3866 27.4681 62.4647 27.3897C62.5428 27.3114 62.6358 27.2494 62.7381 27.2073C62.8405 27.1653 62.9502 27.144 63.0608 27.1448C63.1715 27.1456 63.2808 27.1685 63.3826 27.212C63.4843 27.2555 63.5763 27.3189 63.6533 27.3983L64.3067 28.05L66.275 26.0833C66.4313 25.9269 66.6433 25.8389 66.8644 25.8387C67.0855 25.8385 67.2977 25.9262 67.4542 26.0825C67.6106 26.2388 67.6986 26.4508 67.6988 26.6719C67.699 26.893 67.6113 27.1052 67.455 27.2617L64.8967 29.8167C64.7397 29.9722 64.5277 30.0597 64.3067 30.06ZM79.895 29.815L82.4517 27.2617C82.6035 27.1045 82.6875 26.894 82.6856 26.6755C82.6837 26.457 82.596 26.248 82.4415 26.0935C82.287 25.939 82.078 25.8513 81.8595 25.8494C81.641 25.8475 81.4305 25.9315 81.2733 26.0833L79.305 28.05L78.6517 27.3983C78.5747 27.3189 78.4826 27.2555 78.3809 27.212C78.2792 27.1685 78.1698 27.1456 78.0592 27.1448C77.9485 27.144 77.8388 27.1653 77.7365 27.2073C77.6341 27.2494 77.5412 27.3114 77.463 27.3897C77.3849 27.4681 77.3232 27.5612 77.2814 27.6637C77.2396 27.7661 77.2187 27.8759 77.2198 27.9865C77.2209 28.0972 77.2441 28.2065 77.2879 28.3081C77.3317 28.4097 77.3953 28.5016 77.475 28.5783L78.7183 29.8167C78.7955 29.8943 78.8872 29.9558 78.9882 29.9978C79.0893 30.0397 79.1976 30.0612 79.307 30.0611C79.4164 30.0609 79.5247 30.0391 79.6256 29.9969C79.7265 29.9546 79.8181 29.8928 79.895 29.815ZM53.545 19.42L57.8067 16.7783C58.0473 16.6295 58.246 16.4218 58.3842 16.1748C58.5223 15.9279 58.5953 15.6499 58.5964 15.3669C58.5974 15.084 58.5263 14.8055 58.3899 14.5576C58.2535 14.3097 58.0562 14.1006 57.8167 13.95L53.555 11.2667C53.3029 11.1078 53.0128 11.0195 52.7149 11.0109C52.417 11.0023 52.1223 11.0737 51.8614 11.2176C51.6005 11.3616 51.383 11.5729 51.2315 11.8295C51.08 12.0861 51 12.3787 51 12.6767V18.0033C51.0005 18.3002 51.0802 18.5915 51.2308 18.8472C51.3814 19.103 51.5976 19.3139 51.8569 19.4583C52.1162 19.6026 52.4094 19.6752 52.7062 19.6685C53.0029 19.6617 53.2925 19.576 53.545 19.42ZM56.9283 15.36L52.6667 18.0033V12.6767L56.9283 15.36ZM86 27.8333C86 31.05 83.3833 33.6667 80.1667 33.6667C78.7654 33.664 77.4119 33.1574 76.3532 32.2395C75.2944 31.3215 74.6012 30.0534 74.4 28.6667H70.9333C70.7321 30.0534 70.0389 31.3215 68.9802 32.2395C67.9215 33.1574 66.5679 33.664 65.1667 33.6667C63.7653 33.6643 62.4116 33.1579 61.3528 32.2399C60.294 31.3219 59.6009 30.0535 59.4 28.6667H58.47C56.85 28.6667 55.3867 28.0017 54.3333 26.93V35.3333C54.3333 38.09 56.5767 40.3333 59.3333 40.3333H59.4C59.8067 37.5117 62.2333 35.3333 65.1667 35.3333C68.3833 35.3333 71 37.95 71 41.1667C71 44.3833 68.3833 47 65.1667 47C63.7653 46.9977 62.4116 46.4912 61.3528 45.5732C60.294 44.6552 59.6009 43.3869 59.4 42H59.3333C55.6567 42 52.6667 39.01 52.6667 35.3333V23.4983C50.7858 23.1119 49.0957 22.0887 47.8813 20.6014C46.6669 19.114 46.0025 17.2535 46 15.3333C46 10.7383 49.7383 7 54.3333 7C58.9283 7 62.6667 10.7383 62.6667 15.3333C62.6637 17.5284 61.7956 19.6339 60.2507 21.1933C58.7057 22.7526 56.6083 23.6401 54.4133 23.6633C54.5986 24.6032 55.1043 25.4496 55.8441 26.0581C56.584 26.6667 57.5121 26.9996 58.47 27H59.4C59.8067 24.1783 62.2333 22 65.1667 22C66.568 22.0023 67.9217 22.5088 68.9805 23.4268C70.0393 24.3448 70.7325 25.6131 70.9333 27H74.4C74.6012 25.6133 75.2944 24.3452 76.3532 23.4272C77.4119 22.5092 78.7654 22.0027 80.1667 22C83.3833 22 86 24.6167 86 27.8333ZM61 41.1667C61 43.4633 62.87 45.3333 65.1667 45.3333C67.4633 45.3333 69.3333 43.4633 69.3333 41.1667C69.3333 38.87 67.4633 37 65.1667 37C62.87 37 61 38.87 61 41.1667ZM54.3333 22C58.01 22 61 19.01 61 15.3333C61 11.6567 58.01 8.66667 54.3333 8.66667C50.6567 8.66667 47.6667 11.6567 47.6667 15.3333C47.6667 19.01 50.6567 22 54.3333 22ZM69.3333 27.8333C69.3333 25.5367 67.4633 23.6667 65.1667 23.6667C62.87 23.6667 61 25.5367 61 27.8333C61 30.13 62.87 32 65.1667 32C67.4633 32 69.3333 30.13 69.3333 27.8333ZM84.3333 27.8333C84.3333 25.5367 82.4633 23.6667 80.1667 23.6667C77.87 23.6667 76 25.5367 76 27.8333C76 30.13 77.87 32 80.1667 32C82.4633 32 84.3333 30.13 84.3333 27.8333ZM62.6667 41.1667C62.6667 41.3877 62.7545 41.5996 62.9107 41.7559C63.067 41.9122 63.279 42 63.5 42C63.721 42 63.933 41.9122 64.0893 41.7559C64.2455 41.5996 64.3333 41.3877 64.3333 41.1667C64.3333 40.9457 64.2455 40.7337 64.0893 40.5774C63.933 40.4211 63.721 40.3333 63.5 40.3333C63.279 40.3333 63.067 40.4211 62.9107 40.5774C62.7545 40.7337 62.6667 40.9457 62.6667 41.1667ZM66 41.1667C66 41.3877 66.0878 41.5996 66.2441 41.7559C66.4004 41.9122 66.6123 42 66.8333 42C67.0543 42 67.2663 41.9122 67.4226 41.7559C67.5789 41.5996 67.6667 41.3877 67.6667 41.1667C67.6667 40.9457 67.5789 40.7337 67.4226 40.5774C67.2663 40.4211 67.0543 40.3333 66.8333 40.3333C66.6123 40.3333 66.4004 40.4211 66.2441 40.5774C66.0878 40.7337 66 40.9457 66 41.1667ZM86 41.1667C86 44.3833 83.3833 47 80.1667 47C78.7649 46.9972 77.411 46.4902 76.3522 45.5715C75.2934 44.6529 74.6005 43.384 74.4 41.9967C74.3883 41.9983 74.3783 42.005 74.365 42.005L73.5217 42.0333H73.4933C73.2784 42.0278 73.0739 41.9394 72.9227 41.7867C72.7714 41.6339 72.685 41.4286 72.6816 41.2136C72.6781 40.9987 72.7579 40.7907 72.9042 40.6332C73.0505 40.4756 73.252 40.3807 73.4667 40.3683L74.31 40.34C74.34 40.3367 74.3683 40.35 74.3967 40.3517C74.5939 38.961 75.2859 37.6881 76.3457 36.7664C77.4055 35.8446 78.7621 35.3358 80.1667 35.3333C83.3833 35.3333 86 37.95 86 41.1667ZM84.3333 41.1667C84.3333 38.87 82.4633 37 80.1667 37C77.87 37 76 38.87 76 41.1667C76 43.4633 77.87 45.3333 80.1667 45.3333C82.4633 45.3333 84.3333 43.4633 84.3333 41.1667Z" fill="white"/>
</svg>
