<svg width="175" height="56" viewBox="0 0 175 56" fill="none" xmlns="http://www.w3.org/2000/svg">
    <rect width="175" height="56" rx="28" fill="#98353C" />
    <path
        d="M102.04 38V28.858H94.76V38H92.338V18.722H94.76V26.87H102.04V18.722H104.462V38H102.04ZM116.351 20.808V38H113.929V20.808H107.909V18.722H122.455L122.203 20.808H116.351ZM138.432 18.722L139.524 38H137.186L136.584 27.934C136.556 27.2527 136.528 26.562 136.5 25.862C136.472 25.162 136.453 24.49 136.444 23.846C136.435 23.202 136.43 22.628 136.43 22.124C136.43 21.62 136.43 21.228 136.43 20.948L133.182 34.542H130.746L127.26 20.948C127.269 21.2187 127.279 21.62 127.288 22.152C127.297 22.6747 127.302 23.2673 127.302 23.93C127.311 24.5927 127.307 25.274 127.288 25.974C127.279 26.6647 127.26 27.3087 127.232 27.906L126.714 38H124.432L125.524 18.722H128.912L132.034 31.924L135.016 18.722H138.432ZM144.161 38V18.722H146.597V35.83H155.389L155.109 38H144.161Z"
        fill="white" />
    <path
        d="M27.34 23.76L26.16 32.62H29.4V35.22H25.78L24.94 42H22.06L22.96 35.22H17.14L16.26 42H13.38L14.28 35.22H11.12V32.62H14.62L15.84 23.76H12.6V21.14H16.18L17.06 14.46H19.94L18.98 21.14H24.86L25.74 14.46H28.62L27.68 21.14H30.88V23.76H27.34ZM17.48 32.62H23.3L24.52 23.76H18.66L17.48 32.62Z"
        fill="white" />
    <path d="M44.4564 44.2129L41 10H79L75.5436 44.1945L59.9686 48" fill="white" />
    <path
        d="M48.06 16.9917H60.0004V21.1852H53.2761L53.716 25.4803H60.0004V29.6645H49.3588L48.06 16.9917ZM49.5683 31.7705H54.3444L54.6796 35.1234L60.0004 36.3796V40.7579L50.2386 38.3563"
        fill="#98353C" />
    <path
        d="M71.8979 16.9917H59.9784V21.1852H71.458L71.8979 16.9917ZM71.0286 25.4803H59.9784V29.6737H65.8439L65.2888 35.1234L59.9784 36.3796V40.7394L69.7193 38.3563"
        fill="#98353C" />
</svg>