<svg width="183" height="56" viewBox="0 0 183 56" fill="none" xmlns="http://www.w3.org/2000/svg">
    <rect width="183" height="56" rx="28" fill="#98353C" />
    <path
        d="M109.902 18.722V31.602C109.902 32.4047 109.795 33.2073 109.58 34.01C109.375 34.8033 109.02 35.5267 108.516 36.18C108.021 36.824 107.349 37.342 106.5 37.734C105.651 38.126 104.591 38.322 103.322 38.322C102.379 38.322 101.451 38.1727 100.536 37.874C99.6307 37.5753 98.7953 37.1413 98.03 36.572L99.108 34.962C99.948 35.4847 100.713 35.8393 101.404 36.026C102.095 36.2033 102.725 36.292 103.294 36.292C104.638 36.292 105.669 35.8627 106.388 35.004C107.116 34.1453 107.48 32.9647 107.48 31.462V20.71H101.768V18.722H109.902ZM126.159 34.78C126.159 35.368 126.257 35.7973 126.453 36.068C126.649 36.3387 126.952 36.5393 127.363 36.67L126.789 38.322C126.154 38.238 125.599 38.0373 125.123 37.72C124.647 37.3933 124.302 36.9033 124.087 36.25C123.555 36.9313 122.892 37.4493 122.099 37.804C121.306 38.1493 120.428 38.322 119.467 38.322C117.992 38.322 116.83 37.9067 115.981 37.076C115.132 36.2453 114.707 35.144 114.707 33.772C114.707 32.2507 115.3 31.084 116.485 30.272C117.67 29.46 119.383 29.054 121.623 29.054H123.793V27.822C123.793 26.758 123.48 26.0067 122.855 25.568C122.239 25.12 121.38 24.896 120.279 24.896C119.794 24.896 119.224 24.9567 118.571 25.078C117.918 25.19 117.208 25.3813 116.443 25.652L115.827 23.874C116.732 23.538 117.582 23.3 118.375 23.16C119.168 23.02 119.924 22.95 120.643 22.95C122.482 22.95 123.858 23.3793 124.773 24.238C125.697 25.0873 126.159 26.2447 126.159 27.71V34.78ZM120.069 36.53C120.797 36.53 121.492 36.348 122.155 35.984C122.818 35.6107 123.364 35.0973 123.793 34.444V30.65H121.665C120.041 30.65 118.893 30.93 118.221 31.49C117.558 32.05 117.227 32.8013 117.227 33.744C117.227 34.6587 117.46 35.354 117.927 35.83C118.403 36.2967 119.117 36.53 120.069 36.53ZM144.684 23.258L139.322 38H136.592L131.272 23.258H133.764L138.034 35.858L142.248 23.258H144.684ZM159.737 34.78C159.737 35.368 159.835 35.7973 160.031 36.068C160.227 36.3387 160.531 36.5393 160.941 36.67L160.367 38.322C159.733 38.238 159.177 38.0373 158.701 37.72C158.225 37.3933 157.88 36.9033 157.665 36.25C157.133 36.9313 156.471 37.4493 155.677 37.804C154.884 38.1493 154.007 38.322 153.045 38.322C151.571 38.322 150.409 37.9067 149.559 37.076C148.71 36.2453 148.285 35.144 148.285 33.772C148.285 32.2507 148.878 31.084 150.063 30.272C151.249 29.46 152.961 29.054 155.201 29.054H157.371V27.822C157.371 26.758 157.059 26.0067 156.433 25.568C155.817 25.12 154.959 24.896 153.857 24.896C153.372 24.896 152.803 24.9567 152.149 25.078C151.496 25.19 150.787 25.3813 150.021 25.652L149.405 23.874C150.311 23.538 151.16 23.3 151.953 23.16C152.747 23.02 153.503 22.95 154.221 22.95C156.06 22.95 157.437 23.3793 158.351 24.238C159.275 25.0873 159.737 26.2447 159.737 27.71V34.78ZM153.647 36.53C154.375 36.53 155.071 36.348 155.733 35.984C156.396 35.6107 156.942 35.0973 157.371 34.444V30.65H155.243C153.619 30.65 152.471 30.93 151.799 31.49C151.137 32.05 150.805 32.8013 150.805 33.744C150.805 34.6587 151.039 35.354 151.505 35.83C151.981 36.2967 152.695 36.53 153.647 36.53Z"
        fill="white" />
    <path
        d="M32.34 23.76L31.16 32.62H34.4V35.22H30.78L29.94 42H27.06L27.96 35.22H22.14L21.26 42H18.38L19.28 35.22H16.12V32.62H19.62L20.84 23.76H17.6V21.14H21.18L22.06 14.46H24.94L23.98 21.14H29.86L30.74 14.46H33.62L32.68 21.14H35.88V23.76H32.34ZM22.48 32.62H28.3L29.52 23.76H23.66L22.48 32.62Z"
        fill="white" />
    <path
        d="M61.6981 37.453C61.6981 37.453 60.1342 38.404 62.7851 38.6761C65.9764 39.083 67.6762 39.0156 71.2082 38.3366C71.9181 38.7714 72.6689 39.1354 73.4497 39.4237C65.5034 42.8209 55.4465 39.2203 61.6968 37.453H61.6981ZM60.6809 33.0374C60.6809 33.0374 58.9823 34.3279 61.6319 34.6012C65.0966 34.9407 67.8136 35.0081 72.5025 34.0583C72.9586 34.5208 73.5169 34.8697 74.1325 35.0767C64.5537 37.9298 53.8204 35.3488 60.6809 33.0387V33.0374ZM79.4305 40.7803C79.4305 40.7803 80.5849 41.7313 78.14 42.4789C73.5883 43.8393 59.051 44.2462 54.9748 42.4789C53.5483 41.8686 56.2653 40.985 57.1362 40.849C58.0199 40.6455 58.4966 40.6455 58.4966 40.6455C56.9328 39.5585 48.1028 42.887 54.0136 43.8368C70.2496 46.4864 83.6325 42.6823 79.4203 40.7803H79.4305ZM62.4329 28.4171C62.4329 28.4171 55.0282 30.1844 59.7833 30.7946C61.8214 31.0667 65.8289 30.9981 69.5656 30.7272C72.622 30.4552 75.6811 29.9135 75.6811 29.9135C75.6811 29.9135 74.594 30.3891 73.8464 30.8646C66.3069 32.8352 51.8357 31.9516 55.9805 29.9135C59.5125 28.2149 62.4342 28.4196 62.4342 28.4196L62.4329 28.4171ZM75.6811 35.8218C83.2892 31.8804 79.7572 28.0789 77.311 28.5531C76.7007 28.6892 76.4274 28.8252 76.4274 28.8252C76.4274 28.8252 76.6308 28.4184 77.1063 28.2823C81.9301 26.5837 85.7341 33.3769 75.5425 36.0252C75.5425 36.0252 75.6099 35.9578 75.6785 35.8218H75.6811ZM63.1831 46.555C70.5191 47.0306 81.7292 46.283 82 42.8171C82 42.8171 81.4571 44.1775 75.9544 45.1946C69.7042 46.3491 61.96 46.2118 57.4083 45.4667C57.4083 45.4667 58.3593 46.2804 63.1831 46.5538V46.555Z"
        fill="white" />
    <path
        d="M71.0735 6C71.0735 6 75.2857 10.2796 67.066 16.7333C60.4763 21.9639 65.5721 24.953 67.066 28.3502C63.1933 24.8856 60.4089 21.8278 62.3109 18.976C65.0953 14.7626 72.7721 12.7372 71.0735 6ZM68.9121 25.4971C70.8828 27.7386 68.3692 29.7767 68.3692 29.7767C68.3692 29.7767 73.3964 27.1957 71.0863 24.0019C68.9808 20.9455 67.3483 19.4503 76.1808 14.3557C76.1808 14.3557 62.255 17.8203 68.9121 25.4971Z"
        fill="white" />
</svg>