<svg width="285" height="56" viewBox="0 0 285 56" fill="none" xmlns="http://www.w3.org/2000/svg">
    <rect width="285" height="56" rx="28" fill="#98353C" />
    <path
        d="M112.902 18.722V31.602C112.902 32.4047 112.795 33.2073 112.58 34.01C112.375 34.8033 112.02 35.5267 111.516 36.18C111.021 36.824 110.349 37.342 109.5 37.734C108.651 38.126 107.591 38.322 106.322 38.322C105.379 38.322 104.451 38.1727 103.536 37.874C102.631 37.5753 101.795 37.1413 101.03 36.572L102.108 34.962C102.948 35.4847 103.713 35.8393 104.404 36.026C105.095 36.2033 105.725 36.292 106.294 36.292C107.638 36.292 108.669 35.8627 109.388 35.004C110.116 34.1453 110.48 32.9647 110.48 31.462V20.71H104.768V18.722H112.902ZM129.159 34.78C129.159 35.368 129.257 35.7973 129.453 36.068C129.649 36.3387 129.952 36.5393 130.363 36.67L129.789 38.322C129.154 38.238 128.599 38.0373 128.123 37.72C127.647 37.3933 127.302 36.9033 127.087 36.25C126.555 36.9313 125.892 37.4493 125.099 37.804C124.306 38.1493 123.428 38.322 122.467 38.322C120.992 38.322 119.83 37.9067 118.981 37.076C118.132 36.2453 117.707 35.144 117.707 33.772C117.707 32.2507 118.3 31.084 119.485 30.272C120.67 29.46 122.383 29.054 124.623 29.054H126.793V27.822C126.793 26.758 126.48 26.0067 125.855 25.568C125.239 25.12 124.38 24.896 123.279 24.896C122.794 24.896 122.224 24.9567 121.571 25.078C120.918 25.19 120.208 25.3813 119.443 25.652L118.827 23.874C119.732 23.538 120.582 23.3 121.375 23.16C122.168 23.02 122.924 22.95 123.643 22.95C125.482 22.95 126.858 23.3793 127.773 24.238C128.697 25.0873 129.159 26.2447 129.159 27.71V34.78ZM123.069 36.53C123.797 36.53 124.492 36.348 125.155 35.984C125.818 35.6107 126.364 35.0973 126.793 34.444V30.65H124.665C123.041 30.65 121.893 30.93 121.221 31.49C120.558 32.05 120.227 32.8013 120.227 33.744C120.227 34.6587 120.46 35.354 120.927 35.83C121.403 36.2967 122.117 36.53 123.069 36.53ZM147.684 23.258L142.322 38H139.592L134.272 23.258H136.764L141.034 35.858L145.248 23.258H147.684ZM162.737 34.78C162.737 35.368 162.835 35.7973 163.031 36.068C163.227 36.3387 163.531 36.5393 163.941 36.67L163.367 38.322C162.733 38.238 162.177 38.0373 161.701 37.72C161.225 37.3933 160.88 36.9033 160.665 36.25C160.133 36.9313 159.471 37.4493 158.677 37.804C157.884 38.1493 157.007 38.322 156.045 38.322C154.571 38.322 153.409 37.9067 152.559 37.076C151.71 36.2453 151.285 35.144 151.285 33.772C151.285 32.2507 151.878 31.084 153.063 30.272C154.249 29.46 155.961 29.054 158.201 29.054H160.371V27.822C160.371 26.758 160.059 26.0067 159.433 25.568C158.817 25.12 157.959 24.896 156.857 24.896C156.372 24.896 155.803 24.9567 155.149 25.078C154.496 25.19 153.787 25.3813 153.021 25.652L152.405 23.874C153.311 23.538 154.16 23.3 154.953 23.16C155.747 23.02 156.503 22.95 157.221 22.95C159.06 22.95 160.437 23.3793 161.351 24.238C162.275 25.0873 162.737 26.2447 162.737 27.71V34.78ZM156.647 36.53C157.375 36.53 158.071 36.348 158.733 35.984C159.396 35.6107 159.942 35.0973 160.371 34.444V30.65H158.243C156.619 30.65 155.471 30.93 154.799 31.49C154.137 32.05 153.805 32.8013 153.805 33.744C153.805 34.6587 154.039 35.354 154.505 35.83C154.981 36.2967 155.695 36.53 156.647 36.53ZM181.178 32.666C181.178 33.7673 180.903 34.7473 180.352 35.606C179.802 36.4553 179.004 37.1227 177.958 37.608C176.913 38.084 175.639 38.322 174.136 38.322C172.727 38.322 171.448 38.1073 170.3 37.678C169.162 37.2487 168.186 36.642 167.374 35.858L168.816 34.234C169.488 34.8593 170.258 35.3587 171.126 35.732C171.994 36.096 173.012 36.278 174.178 36.278C174.962 36.278 175.695 36.152 176.376 35.9C177.058 35.6387 177.608 35.2467 178.028 34.724C178.448 34.192 178.658 33.52 178.658 32.708C178.658 32.0827 178.537 31.5507 178.294 31.112C178.052 30.6733 177.622 30.286 177.006 29.95C176.39 29.6047 175.532 29.2687 174.43 28.942C173.161 28.5687 172.06 28.1487 171.126 27.682C170.202 27.206 169.484 26.6227 168.97 25.932C168.466 25.2413 168.214 24.3873 168.214 23.37C168.214 22.4087 168.48 21.5547 169.012 20.808C169.544 20.0613 170.277 19.478 171.21 19.058C172.153 18.6287 173.236 18.414 174.458 18.414C175.793 18.414 176.95 18.6053 177.93 18.988C178.92 19.3613 179.816 19.9027 180.618 20.612L179.19 22.194C178.5 21.578 177.758 21.1347 176.964 20.864C176.171 20.584 175.364 20.444 174.542 20.444C173.842 20.444 173.198 20.5513 172.61 20.766C172.032 20.9713 171.565 21.284 171.21 21.704C170.865 22.1147 170.692 22.642 170.692 23.286C170.692 23.8367 170.842 24.3127 171.14 24.714C171.439 25.1153 171.943 25.484 172.652 25.82C173.362 26.1467 174.328 26.492 175.55 26.856C176.549 27.1453 177.473 27.5093 178.322 27.948C179.181 28.3773 179.872 28.9653 180.394 29.712C180.917 30.4493 181.178 31.434 181.178 32.666ZM192.423 36.292C193.161 36.292 193.847 36.1707 194.481 35.928C195.125 35.6853 195.718 35.3773 196.259 35.004L197.407 36.544C196.763 37.0947 195.989 37.5287 195.083 37.846C194.178 38.1633 193.291 38.322 192.423 38.322C190.958 38.322 189.707 38.0093 188.671 37.384C187.645 36.7493 186.861 35.8627 186.319 34.724C185.778 33.576 185.507 32.232 185.507 30.692C185.507 29.2173 185.778 27.8967 186.319 26.73C186.87 25.554 187.659 24.63 188.685 23.958C189.721 23.286 190.977 22.95 192.451 22.95C193.394 22.95 194.276 23.0947 195.097 23.384C195.928 23.664 196.689 24.0887 197.379 24.658L196.231 26.226C195.606 25.7873 194.976 25.4607 194.341 25.246C193.716 25.022 193.077 24.91 192.423 24.91C191.154 24.91 190.109 25.386 189.287 26.338C188.466 27.29 188.055 28.7413 188.055 30.692C188.055 31.9987 188.242 33.0673 188.615 33.898C188.998 34.7193 189.516 35.326 190.169 35.718C190.832 36.1007 191.583 36.292 192.423 36.292ZM202.688 38V36.194H204.984V25.064H202.688V23.258H206.776L207.21 26.744C207.78 25.5307 208.47 24.5927 209.282 23.93C210.094 23.2673 211.168 22.936 212.502 22.936C212.913 22.936 213.277 22.9687 213.594 23.034C213.921 23.09 214.252 23.1647 214.588 23.258L213.902 25.358C213.594 25.274 213.314 25.2133 213.062 25.176C212.81 25.1293 212.521 25.106 212.194 25.106C211.065 25.106 210.094 25.5073 209.282 26.31C208.47 27.1127 207.822 28.326 207.336 29.95V36.194H210.332V38H202.688ZM212.32 28.242V25.036L212.558 23.258H214.588L214.252 28.242H212.32ZM226.799 23.258V36.138H230.957V38H219.897V36.138H224.447V25.12H220.037V23.258H226.799ZM224.923 16.356C225.446 16.356 225.861 16.5147 226.169 16.832C226.487 17.1493 226.645 17.5367 226.645 17.994C226.645 18.47 226.487 18.8713 226.169 19.198C225.861 19.5153 225.446 19.674 224.923 19.674C224.429 19.674 224.023 19.5153 223.705 19.198C223.388 18.8713 223.229 18.47 223.229 17.994C223.229 17.5367 223.388 17.1493 223.705 16.832C224.023 16.5147 224.429 16.356 224.923 16.356ZM242.721 22.95C244.027 22.95 245.068 23.2673 245.843 23.902C246.627 24.5367 247.191 25.4327 247.537 26.59C247.882 27.738 248.055 29.082 248.055 30.622C248.055 32.106 247.845 33.4313 247.425 34.598C247.014 35.7553 246.389 36.6653 245.549 37.328C244.709 37.9907 243.649 38.322 242.371 38.322C240.756 38.322 239.459 37.7527 238.479 36.614V43.642L236.127 43.936V23.258H238.129L238.325 25.316C238.866 24.56 239.51 23.9767 240.257 23.566C241.013 23.1553 241.834 22.95 242.721 22.95ZM242.161 24.84C241.349 24.84 240.63 25.0873 240.005 25.582C239.389 26.0673 238.88 26.6087 238.479 27.206V34.514C238.861 35.0833 239.342 35.536 239.921 35.872C240.509 36.1987 241.153 36.362 241.853 36.362C243.075 36.362 243.995 35.8953 244.611 34.962C245.227 34.0287 245.535 32.5773 245.535 30.608C245.535 29.32 245.413 28.2513 245.171 27.402C244.928 26.5433 244.559 25.904 244.065 25.484C243.57 25.0547 242.935 24.84 242.161 24.84ZM264.62 37.258C264.116 37.594 263.504 37.8553 262.786 38.042C262.067 38.2287 261.362 38.322 260.672 38.322C259.085 38.322 257.862 37.9067 257.004 37.076C256.145 36.2453 255.716 35.1767 255.716 33.87V25.078H252.328V23.258H255.716V19.912L258.068 19.632V23.258H263.164L262.884 25.078H258.068V33.842C258.068 34.6633 258.282 35.2887 258.712 35.718C259.15 36.1473 259.874 36.362 260.882 36.362C261.432 36.362 261.941 36.2967 262.408 36.166C262.874 36.0353 263.308 35.8673 263.71 35.662L264.62 37.258Z"
        fill="white" />
    <path d="M87 9H49V47H87V9Z" fill="white" />
    <path
        d="M74.5273 38.6886C75.2927 39.9384 76.2885 40.857 78.0498 40.857C79.5294 40.857 80.4746 40.1175 80.4746 39.0957C80.4746 37.8713 79.5035 37.4376 77.8749 36.7253L76.9822 36.3422C74.4054 35.2445 72.6936 33.8692 72.6936 30.9619C72.6936 28.2838 74.7342 26.2451 77.9231 26.2451C80.1935 26.2451 81.8257 27.0353 83.0019 29.1042L80.2212 30.8896C79.609 29.7918 78.9485 29.3593 77.9231 29.3593C76.8772 29.3593 76.2143 30.0228 76.2143 30.8896C76.2143 31.9608 76.8778 32.3945 78.4099 33.058L79.3026 33.4404C82.3366 34.7414 84.0496 36.0678 84.0496 39.0499C84.0496 42.2648 81.5241 44.0261 78.1324 44.0261C74.8162 44.0261 72.6737 42.4458 71.6254 40.3745L74.5273 38.6886ZM61.9131 38.998C62.474 39.9933 62.9843 40.8347 64.2112 40.8347C65.3843 40.8347 66.1244 40.3757 66.1244 38.5909V26.449H69.6952V38.6391C69.6952 42.3366 67.5274 44.0194 64.3632 44.0194C61.5041 44.0194 59.8484 42.5399 59.0064 40.7578L61.9131 38.998Z"
        fill="#98353C" />
    <path
        d="M32.34 23.76L31.16 32.62H34.4V35.22H30.78L29.94 42H27.06L27.96 35.22H22.14L21.26 42H18.38L19.28 35.22H16.12V32.62H19.62L20.84 23.76H17.6V21.14H21.18L22.06 14.46H24.94L23.98 21.14H29.86L30.74 14.46H33.62L32.68 21.14H35.88V23.76H32.34ZM22.48 32.62H28.3L29.52 23.76H23.66L22.48 32.62Z"
        fill="white" />
</svg>