<svg width="209" height="56" viewBox="0 0 209 56" fill="none" xmlns="http://www.w3.org/2000/svg">
<rect width="209" height="56" rx="28" fill="#2D577A"/>
<path d="M99.06 38L92.27 21.046C92.2793 21.2607 92.298 21.62 92.326 22.124C92.3633 22.6187 92.4007 23.2113 92.438 23.902C92.4847 24.5833 92.522 25.3067 92.55 26.072C92.578 26.8373 92.592 27.5933 92.592 28.34V38H90.338V18.722H93.628L100.53 35.746C100.521 35.4753 100.488 34.9807 100.432 34.262C100.376 33.534 100.325 32.6567 100.278 31.63C100.231 30.6033 100.208 29.516 100.208 28.368V18.722H102.462V38H99.06ZM109.451 31.462C109.498 32.6007 109.717 33.534 110.109 34.262C110.501 34.9807 111.019 35.5127 111.663 35.858C112.307 36.194 113.007 36.362 113.763 36.362C114.519 36.362 115.2 36.25 115.807 36.026C116.423 35.802 117.053 35.4707 117.697 35.032L118.803 36.586C118.112 37.1273 117.324 37.552 116.437 37.86C115.56 38.168 114.659 38.322 113.735 38.322C112.307 38.322 111.089 38 110.081 37.356C109.073 36.712 108.303 35.816 107.771 34.668C107.248 33.5107 106.987 32.1713 106.987 30.65C106.987 29.1567 107.253 27.8313 107.785 26.674C108.317 25.5167 109.064 24.6067 110.025 23.944C110.986 23.2813 112.12 22.95 113.427 22.95C114.668 22.95 115.737 23.244 116.633 23.832C117.529 24.4107 118.215 25.2413 118.691 26.324C119.176 27.3973 119.419 28.6807 119.419 30.174C119.419 30.426 119.414 30.664 119.405 30.888C119.396 31.1027 119.382 31.294 119.363 31.462H109.451ZM113.455 24.882C112.363 24.882 111.448 25.2693 110.711 26.044C109.983 26.8187 109.568 28.018 109.465 29.642H117.151C117.123 28.0647 116.778 26.8793 116.115 26.086C115.452 25.2833 114.566 24.882 113.455 24.882ZM129.404 36.376C130.533 36.376 131.425 36.166 132.078 35.746C132.741 35.3167 133.072 34.7473 133.072 34.038C133.072 33.59 132.988 33.2027 132.82 32.876C132.661 32.5493 132.33 32.2553 131.826 31.994C131.322 31.7327 130.547 31.4713 129.502 31.21C128.485 30.958 127.598 30.6687 126.842 30.342C126.095 30.006 125.512 29.572 125.092 29.04C124.681 28.508 124.476 27.8173 124.476 26.968C124.476 26.1373 124.709 25.4233 125.176 24.826C125.652 24.2193 126.31 23.7573 127.15 23.44C127.99 23.1133 128.965 22.95 130.076 22.95C131.261 22.95 132.293 23.1087 133.17 23.426C134.057 23.734 134.808 24.1167 135.424 24.574L134.388 26.17C133.828 25.7873 133.212 25.4747 132.54 25.232C131.868 24.98 131.056 24.854 130.104 24.854C128.947 24.854 128.125 25.036 127.64 25.4C127.155 25.7547 126.912 26.2167 126.912 26.786C126.912 27.2153 127.029 27.5747 127.262 27.864C127.505 28.144 127.911 28.4007 128.48 28.634C129.049 28.858 129.833 29.1053 130.832 29.376C131.793 29.628 132.629 29.9313 133.338 30.286C134.057 30.6407 134.617 31.1073 135.018 31.686C135.419 32.2647 135.62 33.0113 135.62 33.926C135.62 34.9713 135.321 35.8207 134.724 36.474C134.127 37.118 133.352 37.5893 132.4 37.888C131.457 38.1773 130.459 38.322 129.404 38.322C128.069 38.322 126.931 38.1307 125.988 37.748C125.055 37.356 124.271 36.8847 123.636 36.334L124.98 34.78C125.559 35.256 126.221 35.6433 126.968 35.942C127.724 36.2313 128.536 36.376 129.404 36.376ZM152.885 37.258C152.381 37.594 151.77 37.8553 151.051 38.042C150.333 38.2287 149.628 38.322 148.937 38.322C147.351 38.322 146.128 37.9067 145.269 37.076C144.411 36.2453 143.981 35.1767 143.981 33.87V25.078H140.593V23.258H143.981V19.912L146.333 19.632V23.258H151.429L151.149 25.078H146.333V33.842C146.333 34.6633 146.548 35.2887 146.977 35.718C147.416 36.1473 148.139 36.362 149.147 36.362C149.698 36.362 150.207 36.2967 150.673 36.166C151.14 36.0353 151.574 35.8673 151.975 35.662L152.885 37.258ZM169.058 18.722V31.602C169.058 32.4047 168.951 33.2073 168.736 34.01C168.531 34.8033 168.176 35.5267 167.672 36.18C167.178 36.824 166.506 37.342 165.656 37.734C164.807 38.126 163.748 38.322 162.478 38.322C161.536 38.322 160.607 38.1727 159.692 37.874C158.787 37.5753 157.952 37.1413 157.186 36.572L158.264 34.962C159.104 35.4847 159.87 35.8393 160.56 36.026C161.251 36.2033 161.881 36.292 162.45 36.292C163.794 36.292 164.826 35.8627 165.544 35.004C166.272 34.1453 166.636 32.9647 166.636 31.462V20.71H160.924V18.722H169.058ZM186.967 32.666C186.967 33.7673 186.692 34.7473 186.141 35.606C185.591 36.4553 184.793 37.1227 183.747 37.608C182.702 38.084 181.428 38.322 179.925 38.322C178.516 38.322 177.237 38.1073 176.089 37.678C174.951 37.2487 173.975 36.642 173.163 35.858L174.605 34.234C175.277 34.8593 176.047 35.3587 176.915 35.732C177.783 36.096 178.801 36.278 179.967 36.278C180.751 36.278 181.484 36.152 182.165 35.9C182.847 35.6387 183.397 35.2467 183.817 34.724C184.237 34.192 184.447 33.52 184.447 32.708C184.447 32.0827 184.326 31.5507 184.083 31.112C183.841 30.6733 183.411 30.286 182.795 29.95C182.179 29.6047 181.321 29.2687 180.219 28.942C178.95 28.5687 177.849 28.1487 176.915 27.682C175.991 27.206 175.273 26.6227 174.759 25.932C174.255 25.2413 174.003 24.3873 174.003 23.37C174.003 22.4087 174.269 21.5547 174.801 20.808C175.333 20.0613 176.066 19.478 176.999 19.058C177.942 18.6287 179.025 18.414 180.247 18.414C181.582 18.414 182.739 18.6053 183.719 18.988C184.709 19.3613 185.605 19.9027 186.407 20.612L184.979 22.194C184.289 21.578 183.547 21.1347 182.753 20.864C181.96 20.584 181.153 20.444 180.331 20.444C179.631 20.444 178.987 20.5513 178.399 20.766C177.821 20.9713 177.354 21.284 176.999 21.704C176.654 22.1147 176.481 22.642 176.481 23.286C176.481 23.8367 176.631 24.3127 176.929 24.714C177.228 25.1153 177.732 25.484 178.441 25.82C179.151 26.1467 180.117 26.492 181.339 26.856C182.338 27.1453 183.262 27.5093 184.111 27.948C184.97 28.3773 185.661 28.9653 186.183 29.712C186.706 30.4493 186.967 31.434 186.967 32.666Z" fill="white"/>
<path d="M27.34 23.76L26.16 32.62H29.4V35.22H25.78L24.94 42H22.06L22.96 35.22H17.14L16.26 42H13.38L14.28 35.22H11.12V32.62H14.62L15.84 23.76H12.6V21.14H16.18L17.06 14.46H19.94L18.98 21.14H24.86L25.74 14.46H28.62L27.68 21.14H30.88V23.76H27.34ZM17.48 32.62H23.3L24.52 23.76H18.66L17.48 32.62Z" fill="white"/>
<path fill-rule="evenodd" clip-rule="evenodd" d="M64.1413 8C63.8448 8 63.5695 8.06353 63.3154 8.14824C63.8554 8.50824 64.1519 8.98472 64.3001 9.52472C64.3107 9.59884 64.3319 9.65178 64.3425 9.72589C64.3531 9.78943 64.3636 9.85296 64.3636 9.91649C64.406 10.8483 64.1201 10.9647 63.9189 11.5153C63.6119 12.2247 63.6966 12.9871 64.0672 13.6012C64.0989 13.6753 64.1413 13.76 64.1942 13.8342C63.7919 11.1553 66.026 10.753 66.4389 9.91649C66.4707 9.18589 65.8672 8.69883 65.3907 8.36C64.9354 8.08471 64.5224 8 64.1413 8ZM67.5084 8.60353C67.466 8.84707 67.4978 8.78353 67.4872 8.9106C67.4766 8.9953 67.4766 9.10119 67.466 9.18589C67.4449 9.2706 67.4237 9.3553 67.3919 9.44001C67.3708 9.52472 67.339 9.60943 67.3072 9.69413C67.2648 9.77884 67.2331 9.85296 67.1907 9.93766C67.159 9.98003 67.1378 10.0224 67.106 10.0647C67.0849 10.0965 67.0637 10.1283 67.0425 10.16C66.9896 10.2341 66.9366 10.3083 66.8837 10.3718C66.8201 10.4353 66.7672 10.5094 66.6931 10.5624V10.573C66.6296 10.6259 66.566 10.6894 66.4919 10.7424C66.2696 10.9118 66.0154 11.0389 65.7825 11.1977C65.7084 11.2506 65.6343 11.293 65.5707 11.3565C65.4966 11.4095 65.4331 11.4624 65.3695 11.5259C65.2954 11.5895 65.2425 11.653 65.179 11.7271C65.126 11.7906 65.0625 11.8648 65.0201 11.9389C64.9672 12.013 64.9143 12.0871 64.8719 12.1612C64.8295 12.2459 64.7978 12.32 64.7554 12.4048C64.7237 12.4895 64.6919 12.5636 64.6707 12.6483C64.639 12.7436 64.6178 12.8283 64.5966 12.913C64.586 12.9554 64.586 13.0083 64.5754 13.0506C64.5648 13.093 64.5648 13.1353 64.5543 13.1777C64.5543 13.2624 64.5437 13.3577 64.5437 13.4424C64.5437 13.5059 64.5437 13.5695 64.5543 13.633C64.5543 13.7177 64.5649 13.8024 64.586 13.8977C64.5966 13.9824 64.6178 14.0671 64.639 14.1518C64.6708 14.2365 64.6919 14.3212 64.7237 14.4059C64.7449 14.4589 64.7766 14.5118 64.7978 14.5542L62.3625 13.6118C61.9496 13.4953 61.5472 13.3895 61.1343 13.2942C60.9119 13.2412 60.6895 13.1883 60.4672 13.1353C59.8319 13.0083 59.186 12.913 58.5401 12.8495C58.519 12.8495 58.5084 12.8389 58.4872 12.8389C57.8519 12.7753 57.2272 12.7436 56.5919 12.7436C56.126 12.7436 55.6601 12.7647 55.2048 12.7965C54.5589 12.8389 53.913 12.9236 53.2671 13.0295C53.1083 13.0506 52.9495 13.0824 52.7907 13.1142C52.4624 13.1777 52.1448 13.2518 51.8377 13.3259C51.6789 13.3683 51.5201 13.4106 51.3612 13.453C51.2024 13.5165 51.0542 13.5906 50.9059 13.6542C50.7895 13.7071 50.673 13.76 50.5565 13.813C50.5354 13.8236 50.5142 13.8236 50.5036 13.8342C50.3977 13.8871 50.3024 13.9294 50.2071 13.9824C50.1754 13.993 50.1542 14.0035 50.133 14.0142C50.0165 14.0671 49.9001 14.1306 49.8048 14.1836C49.7306 14.2153 49.6565 14.2577 49.593 14.2894C49.5612 14.3106 49.5189 14.3318 49.4977 14.3424C49.4024 14.3953 49.3071 14.4483 49.2224 14.5012C49.1271 14.5542 49.0424 14.6071 48.9683 14.66C48.8942 14.713 48.82 14.7553 48.7565 14.8083C48.7459 14.8189 48.7354 14.8189 48.7248 14.8294C48.6612 14.8718 48.5871 14.9247 48.5236 14.9777C48.5236 14.9777 48.513 14.9883 48.5024 14.9988C48.4495 15.0412 48.3965 15.0835 48.3436 15.1259C48.3224 15.1365 48.3012 15.1577 48.2801 15.1683C48.2271 15.2106 48.1742 15.2636 48.1212 15.3059C48.1106 15.3271 48.0895 15.3377 48.0789 15.3483C48.0153 15.4118 47.9518 15.4647 47.8883 15.5283C47.8777 15.5283 47.8777 15.5389 47.8671 15.5494C47.8036 15.6024 47.7401 15.6659 47.6765 15.7294C47.6659 15.74 47.6659 15.7506 47.6554 15.7506C47.6024 15.8035 47.5495 15.8565 47.4965 15.92C47.4754 15.9412 47.4436 15.9624 47.4224 15.9835C47.3695 16.0471 47.306 16.1106 47.2424 16.1741C47.2318 16.1953 47.2107 16.2059 47.2001 16.2271C47.1153 16.3118 47.0412 16.3965 46.9565 16.4812C46.9459 16.4918 46.9354 16.5024 46.9248 16.513C46.7553 16.693 46.5753 16.873 46.3848 17.0318C46.1942 17.2012 45.993 17.36 45.7918 17.4977C45.58 17.6459 45.3789 17.773 45.1565 17.9C44.9447 18.0165 44.7224 18.1224 44.4894 18.2177C44.2671 18.313 44.0341 18.3977 43.8012 18.4718C43.3565 18.5671 42.9012 18.7471 42.5094 18.7789C42.4247 18.7789 42.3294 18.8 42.2447 18.8106C42.1494 18.8318 42.0647 18.853 41.98 18.8742C41.8953 18.9059 41.8106 18.9377 41.7259 18.9694C41.6412 19.0012 41.5565 19.0436 41.4718 19.0859C41.3977 19.1389 41.313 19.1812 41.2388 19.2342C41.1647 19.2871 41.0906 19.3506 41.0271 19.4142C40.9529 19.4671 40.8788 19.5412 40.8153 19.6047C40.7518 19.6789 40.6882 19.7424 40.6353 19.8165C40.5824 19.9012 40.5188 19.9753 40.4765 20.06C40.4235 20.1342 40.3706 20.2189 40.3282 20.3036C40.2859 20.3989 40.2435 20.4836 40.2118 20.5789C40.18 20.6636 40.1482 20.7589 40.1165 20.8542C40.0953 20.9389 40.0741 21.0236 40.0635 21.1083C40.0635 21.1189 40.0529 21.1294 40.0529 21.14C40.0318 21.2354 40.0318 21.3624 40.0212 21.4259C40.0106 21.5001 40 21.5636 40 21.6377C40 21.6801 40 21.733 40.0106 21.7754C40.0212 21.8495 40.0318 21.913 40.053 21.9765C40.0741 22.0401 40.0953 22.1036 40.1271 22.1671V22.1777C40.1589 22.2413 40.2012 22.3048 40.2436 22.3683C40.2859 22.4318 40.3283 22.4954 40.3812 22.5589C40.4342 22.6119 40.4977 22.6754 40.5612 22.7283C40.6247 22.7919 40.6883 22.8448 40.7624 22.8977C41.0165 23.1201 41.08 23.1942 41.4083 23.3636C41.4612 23.3954 41.5142 23.4166 41.5777 23.4483C41.5883 23.4483 41.5989 23.4589 41.6095 23.4589C41.6095 23.4801 41.6095 23.4907 41.6201 23.5119C41.6307 23.5966 41.6518 23.6813 41.673 23.766C41.6942 23.8613 41.726 23.946 41.7577 24.0201C41.7895 24.0836 41.8107 24.1472 41.8424 24.2107C41.853 24.2319 41.8636 24.2531 41.8742 24.2636C41.9166 24.3483 41.9589 24.4225 42.0012 24.4966C42.0542 24.5707 42.1071 24.6448 42.1601 24.7189C42.213 24.7825 42.2765 24.8566 42.3401 24.9201C42.4036 24.9837 42.4671 25.0366 42.5412 25.1001C42.5412 25.1001 42.5519 25.1107 42.5624 25.1107C42.6259 25.1637 42.6895 25.2166 42.753 25.259C42.8271 25.3119 42.9012 25.3543 42.9859 25.3966C43.0601 25.439 43.1448 25.4813 43.2295 25.5131C43.293 25.5449 43.3671 25.566 43.4412 25.5872C43.4518 25.5978 43.4624 25.5978 43.4836 25.6084C43.526 25.619 43.5789 25.6295 43.6213 25.6401C43.5895 26.2119 43.5789 26.7519 43.6636 26.9425C43.7589 27.1543 44.2248 26.5084 44.6907 25.7672C44.6272 26.4978 44.5848 27.3554 44.6907 27.6096C44.8072 27.8743 45.4425 27.0484 45.9931 26.1378C53.5002 24.4013 60.3508 29.5896 61.0708 36.9167C60.9332 35.7732 59.5249 35.1379 58.879 35.2967C58.5614 36.0802 58.0214 37.0861 57.1531 37.7108C57.2273 37.012 57.1955 36.292 57.0473 35.5932C56.8143 36.5673 56.359 37.4779 55.7343 38.2614C54.7284 38.3355 53.7225 37.8485 53.1931 37.1179C53.1507 37.0861 53.1402 37.0226 53.1084 36.9802C53.0766 36.9061 53.0449 36.832 53.0237 36.7579C52.9919 36.6838 52.9707 36.6096 52.9602 36.5355C52.9496 36.4614 52.9496 36.3873 52.9496 36.3026C52.9496 36.2496 52.9496 36.1967 52.9496 36.1437C52.9602 36.0696 52.9813 35.9955 53.0025 35.9214C53.0237 35.8473 53.0449 35.7732 53.0766 35.699C53.119 35.6249 53.1507 35.5508 53.2037 35.4767C53.3837 34.9684 53.3837 34.5555 53.0554 34.312C52.9919 34.2696 52.9284 34.2378 52.8543 34.2061C52.8119 34.1955 52.759 34.1743 52.7166 34.1637C52.6848 34.1531 52.6637 34.1425 52.6319 34.1319C52.5578 34.1108 52.4837 34.0896 52.4095 34.079C52.3354 34.0578 52.2613 34.0472 52.1872 34.0472C52.1131 34.0366 52.0284 34.0261 51.9543 34.0261C51.9013 34.0261 51.8484 34.0367 51.7954 34.0367C51.7107 34.0367 51.6366 34.0473 51.5625 34.0684C51.4884 34.0791 51.4143 34.0896 51.3401 34.1108C51.266 34.132 51.1919 34.1532 51.1178 34.1849C51.0437 34.2167 50.9801 34.2485 50.906 34.2802C50.8425 34.312 50.779 34.3543 50.7048 34.3861C48.2378 35.9955 49.7095 39.765 51.3931 40.8556C50.7578 40.972 50.1119 41.1097 49.9319 41.2473C49.9213 41.2579 49.9107 41.2685 49.9107 41.2685C50.366 41.5438 50.8425 41.7767 51.3401 41.9779C52.0178 42.2003 52.7378 42.4015 53.0555 42.4862V42.4968C53.9343 42.6768 54.8237 42.7403 55.7237 42.6874C60.4143 42.3591 64.2579 38.7908 64.9567 34.0896C64.9779 34.1849 64.9991 34.2696 65.0203 34.3649C65.052 34.5555 65.0944 34.7567 65.1155 34.9579V34.9685C65.1367 35.0638 65.1473 35.1591 65.1579 35.2438V35.2862C65.1685 35.3815 65.1791 35.4768 65.1791 35.5615C65.1897 35.6779 65.2002 35.7944 65.2002 35.9109V36.0803C65.2002 36.1332 65.2108 36.1968 65.2108 36.2497C65.2108 36.3132 65.2002 36.3768 65.2002 36.4403V36.5885C65.2002 36.6626 65.1896 36.7262 65.1896 36.8003C65.1896 36.8427 65.1896 36.885 65.179 36.9379C65.179 37.0121 65.1684 37.0862 65.1684 37.1709C65.1578 37.2026 65.1578 37.2344 65.1578 37.2662C65.1472 37.3509 65.1366 37.425 65.126 37.5097C65.126 37.5415 65.126 37.5732 65.1154 37.605C65.1048 37.7109 65.0837 37.8062 65.0731 37.9121V37.9227V37.9333C65.0519 38.0286 65.0307 38.1345 65.0095 38.2298V38.2615C64.9884 38.3568 64.9672 38.4521 64.946 38.5474C64.946 38.558 64.9354 38.5792 64.9354 38.5898C64.9142 38.6851 64.893 38.7804 64.8613 38.8757V38.9074C64.8295 39.0133 64.7978 39.1086 64.7766 39.2039C64.766 39.2145 64.766 39.2251 64.766 39.2251C64.7342 39.3309 64.7024 39.4368 64.6707 39.5427C64.6283 39.6486 64.5966 39.7439 64.5542 39.8498C64.5118 39.9557 64.4801 40.0615 64.4377 40.1568C64.3954 40.2627 64.353 40.358 64.3107 40.4639H64.3001C64.2577 40.5592 64.2153 40.6651 64.1624 40.7604C64.1518 40.7921 64.1412 40.8133 64.1306 40.8345C64.12 40.8451 64.12 40.8556 64.1095 40.8662C63.4212 42.2533 62.4048 43.471 61.1342 44.4239C61.0495 44.4769 60.9648 44.5404 60.8801 44.6039C60.8589 44.6251 60.8271 44.6357 60.8059 44.6569C60.7318 44.7098 60.6577 44.7627 60.573 44.8157L60.6048 44.8792H60.6154C60.7636 44.8581 60.9118 44.8368 61.0601 44.8157H61.0707C61.346 44.7733 61.6213 44.7204 61.8966 44.6674C61.9707 44.6568 62.0554 44.6357 62.1295 44.6145C62.1824 44.6039 62.2248 44.5933 62.2777 44.5827C62.3519 44.5721 62.426 44.551 62.5001 44.5404C62.5636 44.5192 62.6272 44.5086 62.6907 44.4874C63.7495 44.2333 64.7766 43.8839 65.7613 43.471C64.0777 45.7686 61.8224 47.6216 59.1859 48.8392C60.4036 48.7545 61.6213 48.5533 62.7966 48.2145C67.0637 46.9545 70.6531 44.0851 72.8025 40.2203C72.3684 42.6662 71.3943 44.9957 69.9543 47.0286C70.9813 46.351 71.9237 45.5674 72.7813 44.678C75.1531 42.2004 76.7096 39.0556 77.239 35.6779C77.599 37.3509 77.7049 39.0768 77.5461 40.7815C85.1908 30.1191 78.1814 19.0649 75.2484 16.1531C75.2378 16.1319 75.2273 16.1213 75.2273 16.1002C75.2166 16.1108 75.2166 16.1108 75.2166 16.1213C75.2166 16.1107 75.2166 16.1107 75.206 16.1002C75.206 16.2272 75.1954 16.3543 75.1849 16.4813C75.1531 16.7249 75.1213 16.9578 75.079 17.1908C75.0261 17.4237 74.9625 17.6566 74.899 17.8896C74.8249 18.1119 74.7402 18.3449 74.6449 18.5672C74.5496 18.779 74.4437 19.0014 74.3272 19.2131C74.2108 19.4143 74.0837 19.6261 73.946 19.8167C73.8084 20.0178 73.6602 20.2084 73.5119 20.3884C73.3531 20.579 73.1837 20.7484 73.0143 20.9178C72.9084 21.0131 72.8131 21.0978 72.7072 21.1825C72.6225 21.2567 72.5484 21.3202 72.4637 21.3943C72.2731 21.5425 72.0825 21.6802 71.8707 21.8073C71.6696 21.9343 71.4578 22.0614 71.246 22.1673C71.0237 22.2731 70.8013 22.3684 70.579 22.4637C70.3566 22.5484 70.1237 22.6226 69.8907 22.6861C69.6578 22.7496 69.4142 22.8026 69.1813 22.8449C68.9378 22.8873 68.6942 22.9084 68.4613 22.9296C68.2919 22.9402 68.1225 22.9508 67.9531 22.9508C67.7095 22.9508 67.466 22.9296 67.2331 22.9084C66.9895 22.8873 66.746 22.8555 66.5131 22.8025C66.2695 22.7602 66.0366 22.6966 65.8036 22.6225H65.793C66.026 22.6014 66.2589 22.5801 66.4919 22.5378C66.7354 22.4954 66.9683 22.4425 67.2013 22.379C67.4342 22.3155 67.6672 22.2413 67.8895 22.1566C68.1225 22.0719 68.3448 21.966 68.5566 21.8602C68.7789 21.7543 68.9801 21.6378 69.1919 21.5107C69.3931 21.3731 69.5942 21.2355 69.7848 21.0872C69.9754 20.939 70.1554 20.7802 70.3248 20.6107C70.5048 20.4519 70.6637 20.2719 70.8225 20.0919C70.9813 19.9013 71.1295 19.7107 71.2672 19.5201C71.2883 19.4884 71.3096 19.446 71.3307 19.4143C71.4366 19.2448 71.5425 19.0754 71.6378 18.906C71.7542 18.6943 71.8601 18.4825 71.9554 18.2601C72.0507 18.0378 72.1354 17.8154 72.2095 17.5825C72.2837 17.3601 72.3366 17.1272 72.3896 16.8942C72.4319 16.6507 72.4743 16.4178 72.4954 16.1848C72.5166 15.9413 72.5378 15.6978 72.5378 15.4648C72.5378 15.2954 72.5272 15.126 72.5166 14.9566C72.4955 14.7131 72.4637 14.4801 72.4319 14.2472C72.3896 14.0036 72.3366 13.7707 72.2731 13.5377C72.199 13.3154 72.1249 13.0824 72.0402 12.8601C71.9555 12.6377 71.8496 12.4154 71.7437 12.2036C71.6272 11.9919 71.5108 11.7801 71.3837 11.5789C71.246 11.3777 71.1084 11.1871 70.9602 10.9966C70.8013 10.8166 70.6425 10.6365 70.4731 10.4565C70.3884 10.3718 70.2931 10.2765 70.1978 10.1918C69.7213 9.82125 69.2237 9.47183 68.726 9.15419C68.6519 9.11182 68.5884 9.08007 68.5143 9.0483C68.1648 8.82595 67.8366 8.70941 67.5084 8.60353Z" fill="white"/>
</svg>
