<svg width="227" height="56" viewBox="0 0 227 56" fill="none" xmlns="http://www.w3.org/2000/svg">
<rect width="227" height="56" rx="28" fill="#2D577A"/>
<path d="M99.06 38L92.27 21.046C92.2793 21.2607 92.298 21.62 92.326 22.124C92.3633 22.6187 92.4007 23.2113 92.438 23.902C92.4847 24.5833 92.522 25.3067 92.55 26.072C92.578 26.8373 92.592 27.5933 92.592 28.34V38H90.338V18.722H93.628L100.53 35.746C100.521 35.4753 100.488 34.9807 100.432 34.262C100.376 33.534 100.325 32.6567 100.278 31.63C100.231 30.6033 100.208 29.516 100.208 28.368V18.722H102.462V38H99.06ZM109.451 31.462C109.498 32.6007 109.717 33.534 110.109 34.262C110.501 34.9807 111.019 35.5127 111.663 35.858C112.307 36.194 113.007 36.362 113.763 36.362C114.519 36.362 115.2 36.25 115.807 36.026C116.423 35.802 117.053 35.4707 117.697 35.032L118.803 36.586C118.112 37.1273 117.324 37.552 116.437 37.86C115.56 38.168 114.659 38.322 113.735 38.322C112.307 38.322 111.089 38 110.081 37.356C109.073 36.712 108.303 35.816 107.771 34.668C107.248 33.5107 106.987 32.1713 106.987 30.65C106.987 29.1567 107.253 27.8313 107.785 26.674C108.317 25.5167 109.064 24.6067 110.025 23.944C110.986 23.2813 112.12 22.95 113.427 22.95C114.668 22.95 115.737 23.244 116.633 23.832C117.529 24.4107 118.215 25.2413 118.691 26.324C119.176 27.3973 119.419 28.6807 119.419 30.174C119.419 30.426 119.414 30.664 119.405 30.888C119.396 31.1027 119.382 31.294 119.363 31.462H109.451ZM113.455 24.882C112.363 24.882 111.448 25.2693 110.711 26.044C109.983 26.8187 109.568 28.018 109.465 29.642H117.151C117.123 28.0647 116.778 26.8793 116.115 26.086C115.452 25.2833 114.566 24.882 113.455 24.882ZM125.82 38H123.132L128.578 30.216L123.804 23.258H126.59L130.006 28.746L133.464 23.258H136.152L131.392 30.118L136.824 38H133.94L129.908 31.672L125.82 38ZM152.885 37.258C152.381 37.594 151.77 37.8553 151.051 38.042C150.333 38.2287 149.628 38.322 148.937 38.322C147.351 38.322 146.128 37.9067 145.269 37.076C144.411 36.2453 143.981 35.1767 143.981 33.87V25.078H140.593V23.258H143.981V19.912L146.333 19.632V23.258H151.429L151.149 25.078H146.333V33.842C146.333 34.6633 146.548 35.2887 146.977 35.718C147.416 36.1473 148.139 36.362 149.147 36.362C149.698 36.362 150.207 36.2967 150.673 36.166C151.14 36.0353 151.574 35.8673 151.975 35.662L152.885 37.258ZM161.078 35.844C161.078 35.3867 161.186 34.976 161.4 34.612C161.615 34.2387 161.904 33.9447 162.268 33.73C162.642 33.506 163.062 33.394 163.528 33.394C164.004 33.394 164.429 33.506 164.802 33.73C165.176 33.9447 165.47 34.2387 165.684 34.612C165.899 34.976 166.006 35.3867 166.006 35.844C166.006 36.3013 165.899 36.7213 165.684 37.104C165.47 37.4773 165.176 37.776 164.802 38C164.429 38.2147 164.004 38.322 163.528 38.322C163.062 38.322 162.642 38.2147 162.268 38C161.904 37.776 161.615 37.4773 161.4 37.104C161.186 36.7213 161.078 36.3013 161.078 35.844ZM184.405 23.258V35.634C184.405 37.2767 184.037 38.6487 183.299 39.75C182.562 40.8607 181.493 41.752 180.093 42.424C178.693 43.096 176.999 43.6 175.011 43.936L174.619 42.116C176.075 41.8733 177.363 41.5093 178.483 41.024C179.603 40.5387 180.476 39.8713 181.101 39.022C181.736 38.182 182.053 37.104 182.053 35.788V25.12H175.921V23.258H184.405ZM182.207 16.356C182.73 16.356 183.15 16.5147 183.467 16.832C183.785 17.1493 183.943 17.5367 183.943 17.994C183.943 18.47 183.785 18.8713 183.467 19.198C183.15 19.5153 182.73 19.674 182.207 19.674C181.703 19.674 181.297 19.5153 180.989 19.198C180.681 18.8713 180.527 18.47 180.527 17.994C180.527 17.5367 180.681 17.1493 180.989 16.832C181.297 16.5147 181.703 16.356 182.207 16.356ZM196.56 36.376C197.69 36.376 198.581 36.166 199.234 35.746C199.897 35.3167 200.228 34.7473 200.228 34.038C200.228 33.59 200.144 33.2027 199.976 32.876C199.818 32.5493 199.486 32.2553 198.982 31.994C198.478 31.7327 197.704 31.4713 196.658 31.21C195.641 30.958 194.754 30.6687 193.998 30.342C193.252 30.006 192.668 29.572 192.248 29.04C191.838 28.508 191.632 27.8173 191.632 26.968C191.632 26.1373 191.866 25.4233 192.332 24.826C192.808 24.2193 193.466 23.7573 194.306 23.44C195.146 23.1133 196.122 22.95 197.232 22.95C198.418 22.95 199.449 23.1087 200.326 23.426C201.213 23.734 201.964 24.1167 202.58 24.574L201.544 26.17C200.984 25.7873 200.368 25.4747 199.696 25.232C199.024 24.98 198.212 24.854 197.26 24.854C196.103 24.854 195.282 25.036 194.796 25.4C194.311 25.7547 194.068 26.2167 194.068 26.786C194.068 27.2153 194.185 27.5747 194.418 27.864C194.661 28.144 195.067 28.4007 195.636 28.634C196.206 28.858 196.99 29.1053 197.988 29.376C198.95 29.628 199.785 29.9313 200.494 30.286C201.213 30.6407 201.773 31.1073 202.174 31.686C202.576 32.2647 202.776 33.0113 202.776 33.926C202.776 34.9713 202.478 35.8207 201.88 36.474C201.283 37.118 200.508 37.5893 199.556 37.888C198.614 38.1773 197.615 38.322 196.56 38.322C195.226 38.322 194.087 38.1307 193.144 37.748C192.211 37.356 191.427 36.8847 190.792 36.334L192.136 34.78C192.715 35.256 193.378 35.6433 194.124 35.942C194.88 36.2313 195.692 36.376 196.56 36.376Z" fill="white"/>
<path d="M27.34 23.76L26.16 32.62H29.4V35.22H25.78L24.94 42H22.06L22.96 35.22H17.14L16.26 42H13.38L14.28 35.22H11.12V32.62H14.62L15.84 23.76H12.6V21.14H16.18L17.06 14.46H19.94L18.98 21.14H24.86L25.74 14.46H28.62L27.68 21.14H30.88V23.76H27.34ZM17.48 32.62H23.3L24.52 23.76H18.66L17.48 32.62Z" fill="white"/>
<path d="M60.2884 9.00996C60.2088 9.01719 59.9556 9.0425 59.7278 9.06058C54.4725 9.53432 49.55 12.3695 46.4324 16.7271C44.6963 19.15 43.5859 21.8984 43.1664 24.8095C43.0181 25.8257 43 26.1258 43 27.5036C43 28.8814 43.0181 29.1816 43.1664 30.1978C44.1718 37.1446 49.116 42.9813 55.8216 45.1438C57.0224 45.5308 58.2883 45.7948 59.7278 45.9539C60.2884 46.0154 62.7116 46.0154 63.2722 45.9539C65.757 45.6791 67.862 45.0643 69.938 44.0047C70.2563 43.842 70.3178 43.7986 70.2744 43.7624C70.2455 43.7407 68.8892 41.9217 67.2616 39.723L64.303 35.727L60.5958 30.2411C58.5559 27.2252 56.8777 24.7589 56.8632 24.7589C56.8488 24.7552 56.8343 27.1926 56.8271 30.1688C56.8162 35.3799 56.8126 35.5896 56.7475 35.7126C56.6535 35.8898 56.5811 35.9621 56.4292 36.0417C56.3135 36.0995 56.2122 36.1104 55.6661 36.1104H55.0404L54.874 36.0055C54.7655 35.9368 54.6859 35.8464 54.6317 35.7415L54.5557 35.5788L54.563 28.3281L54.5738 21.0739L54.6859 20.9328C54.7438 20.8569 54.8668 20.7593 54.9536 20.7122C55.1019 20.6399 55.1597 20.6327 55.7854 20.6327C56.5233 20.6327 56.6462 20.6616 56.8379 20.8714C56.8922 20.9292 58.8995 23.9524 61.3011 27.594C63.7026 31.2356 66.9867 36.208 68.5998 38.649L71.5294 43.0862L71.6777 42.9885C72.9906 42.1351 74.3795 40.92 75.479 39.6543C77.8191 36.9674 79.3273 33.6911 79.8336 30.1978C79.9819 29.1816 80 28.8814 80 27.5036C80 26.1258 79.9819 25.8257 79.8336 24.8095C78.8282 17.8626 73.884 12.0259 67.1784 9.8634C65.9957 9.48007 64.737 9.21608 63.3265 9.05697C62.9793 9.02081 60.5886 8.98103 60.2884 9.00996ZM67.862 20.1987C68.0356 20.2855 68.1766 20.4519 68.2273 20.6255C68.2562 20.7195 68.2634 22.7301 68.2562 27.2613L68.2454 33.7634L67.0988 32.0059L65.9487 30.2484V25.5219C65.9487 22.4661 65.9631 20.7484 65.9848 20.6652C66.0427 20.4627 66.1693 20.3036 66.3429 20.2096C66.4912 20.1336 66.5455 20.1264 67.1133 20.1264C67.6486 20.1264 67.7426 20.1336 67.862 20.1987Z" fill="white"/>
</svg>
