<svg width="238" height="56" viewBox="0 0 238 56" fill="none" xmlns="http://www.w3.org/2000/svg">
    <rect width="238" height="56" rx="28" fill="#98353C" />
    <path
        d="M110.06 38L103.27 21.046C103.279 21.2607 103.298 21.62 103.326 22.124C103.363 22.6187 103.401 23.2113 103.438 23.902C103.485 24.5833 103.522 25.3067 103.55 26.072C103.578 26.8373 103.592 27.5933 103.592 28.34V38H101.338V18.722H104.628L111.53 35.746C111.521 35.4753 111.488 34.9807 111.432 34.262C111.376 33.534 111.325 32.6567 111.278 31.63C111.231 30.6033 111.208 29.516 111.208 28.368V18.722H113.462V38H110.06ZM124.217 22.95C125.608 22.95 126.77 23.2673 127.703 23.902C128.646 24.5273 129.35 25.414 129.817 26.562C130.293 27.71 130.531 29.0633 130.531 30.622C130.531 32.1247 130.288 33.4547 129.803 34.612C129.318 35.7693 128.604 36.6793 127.661 37.342C126.728 37.9953 125.57 38.322 124.189 38.322C122.808 38.322 121.646 38.0047 120.703 37.37C119.76 36.7353 119.046 35.844 118.561 34.696C118.085 33.5387 117.847 32.19 117.847 30.65C117.847 29.1287 118.09 27.7893 118.575 26.632C119.06 25.4747 119.774 24.574 120.717 23.93C121.669 23.2767 122.836 22.95 124.217 22.95ZM124.217 24.868C122.948 24.868 121.986 25.3393 121.333 26.282C120.689 27.2153 120.367 28.6713 120.367 30.65C120.367 32.5913 120.684 34.0333 121.319 34.976C121.963 35.9187 122.92 36.39 124.189 36.39C125.458 36.39 126.41 35.9187 127.045 34.976C127.689 34.0333 128.011 32.582 128.011 30.622C128.011 28.662 127.694 27.2153 127.059 26.282C126.424 25.3393 125.477 24.868 124.217 24.868ZM144.212 17.028L146.564 17.322V38H144.506L144.282 36.054C143.731 36.838 143.097 37.412 142.378 37.776C141.669 38.14 140.908 38.322 140.096 38.322C138.817 38.322 137.763 38 136.932 37.356C136.101 36.712 135.485 35.816 135.084 34.668C134.683 33.5107 134.482 32.1713 134.482 30.65C134.482 29.1753 134.711 27.8593 135.168 26.702C135.625 25.5353 136.283 24.6207 137.142 23.958C138.01 23.286 139.051 22.95 140.264 22.95C141.113 22.95 141.86 23.0993 142.504 23.398C143.148 23.6873 143.717 24.1167 144.212 24.686V17.028ZM140.88 24.84C139.648 24.84 138.701 25.3207 138.038 26.282C137.375 27.2433 137.044 28.6993 137.044 30.65C137.044 31.9193 137.179 32.9833 137.45 33.842C137.721 34.7007 138.117 35.3447 138.64 35.774C139.172 36.2033 139.821 36.418 140.586 36.418C141.426 36.418 142.14 36.18 142.728 35.704C143.325 35.228 143.82 34.6913 144.212 34.094V26.73C143.811 26.1327 143.325 25.6707 142.756 25.344C142.187 25.008 141.561 24.84 140.88 24.84ZM154.029 31.462C154.076 32.6007 154.295 33.534 154.687 34.262C155.079 34.9807 155.597 35.5127 156.241 35.858C156.885 36.194 157.585 36.362 158.341 36.362C159.097 36.362 159.779 36.25 160.385 36.026C161.001 35.802 161.631 35.4707 162.275 35.032L163.381 36.586C162.691 37.1273 161.902 37.552 161.015 37.86C160.138 38.168 159.237 38.322 158.313 38.322C156.885 38.322 155.667 38 154.659 37.356C153.651 36.712 152.881 35.816 152.349 34.668C151.827 33.5107 151.565 32.1713 151.565 30.65C151.565 29.1567 151.831 27.8313 152.363 26.674C152.895 25.5167 153.642 24.6067 154.603 23.944C155.565 23.2813 156.699 22.95 158.005 22.95C159.247 22.95 160.315 23.244 161.211 23.832C162.107 24.4107 162.793 25.2413 163.269 26.324C163.755 27.3973 163.997 28.6807 163.997 30.174C163.997 30.426 163.993 30.664 163.983 30.888C163.974 31.1027 163.96 31.294 163.941 31.462H154.029ZM158.033 24.882C156.941 24.882 156.027 25.2693 155.289 26.044C154.561 26.8187 154.146 28.018 154.043 29.642H161.729C161.701 28.0647 161.356 26.8793 160.693 26.086C160.031 25.2833 159.144 24.882 158.033 24.882ZM172.078 35.844C172.078 35.3867 172.186 34.976 172.4 34.612C172.615 34.2387 172.904 33.9447 173.268 33.73C173.642 33.506 174.062 33.394 174.528 33.394C175.004 33.394 175.429 33.506 175.802 33.73C176.176 33.9447 176.47 34.2387 176.684 34.612C176.899 34.976 177.006 35.3867 177.006 35.844C177.006 36.3013 176.899 36.7213 176.684 37.104C176.47 37.4773 176.176 37.776 175.802 38C175.429 38.2147 175.004 38.322 174.528 38.322C174.062 38.322 173.642 38.2147 173.268 38C172.904 37.776 172.615 37.4773 172.4 37.104C172.186 36.7213 172.078 36.3013 172.078 35.844ZM195.405 23.258V35.634C195.405 37.2767 195.037 38.6487 194.299 39.75C193.562 40.8607 192.493 41.752 191.093 42.424C189.693 43.096 187.999 43.6 186.011 43.936L185.619 42.116C187.075 41.8733 188.363 41.5093 189.483 41.024C190.603 40.5387 191.476 39.8713 192.101 39.022C192.736 38.182 193.053 37.104 193.053 35.788V25.12H186.921V23.258H195.405ZM193.207 16.356C193.73 16.356 194.15 16.5147 194.467 16.832C194.785 17.1493 194.943 17.5367 194.943 17.994C194.943 18.47 194.785 18.8713 194.467 19.198C194.15 19.5153 193.73 19.674 193.207 19.674C192.703 19.674 192.297 19.5153 191.989 19.198C191.681 18.8713 191.527 18.47 191.527 17.994C191.527 17.5367 191.681 17.1493 191.989 16.832C192.297 16.5147 192.703 16.356 193.207 16.356ZM207.56 36.376C208.69 36.376 209.581 36.166 210.234 35.746C210.897 35.3167 211.228 34.7473 211.228 34.038C211.228 33.59 211.144 33.2027 210.976 32.876C210.818 32.5493 210.486 32.2553 209.982 31.994C209.478 31.7327 208.704 31.4713 207.658 31.21C206.641 30.958 205.754 30.6687 204.998 30.342C204.252 30.006 203.668 29.572 203.248 29.04C202.838 28.508 202.632 27.8173 202.632 26.968C202.632 26.1373 202.866 25.4233 203.332 24.826C203.808 24.2193 204.466 23.7573 205.306 23.44C206.146 23.1133 207.122 22.95 208.232 22.95C209.418 22.95 210.449 23.1087 211.326 23.426C212.213 23.734 212.964 24.1167 213.58 24.574L212.544 26.17C211.984 25.7873 211.368 25.4747 210.696 25.232C210.024 24.98 209.212 24.854 208.26 24.854C207.103 24.854 206.282 25.036 205.796 25.4C205.311 25.7547 205.068 26.2167 205.068 26.786C205.068 27.2153 205.185 27.5747 205.418 27.864C205.661 28.144 206.067 28.4007 206.636 28.634C207.206 28.858 207.99 29.1053 208.988 29.376C209.95 29.628 210.785 29.9313 211.494 30.286C212.213 30.6407 212.773 31.1073 213.174 31.686C213.576 32.2647 213.776 33.0113 213.776 33.926C213.776 34.9713 213.478 35.8207 212.88 36.474C212.283 37.118 211.508 37.5893 210.556 37.888C209.614 38.1773 208.615 38.322 207.56 38.322C206.226 38.322 205.087 38.1307 204.144 37.748C203.211 37.356 202.427 36.8847 201.792 36.334L203.136 34.78C203.715 35.256 204.378 35.6433 205.124 35.942C205.88 36.2313 206.692 36.376 207.56 36.376Z"
        fill="white" />
    <path
        d="M32.34 23.76L31.16 32.62H34.4V35.22H30.78L29.94 42H27.06L27.96 35.22H22.14L21.26 42H18.38L19.28 35.22H16.12V32.62H19.62L20.84 23.76H17.6V21.14H21.18L22.06 14.46H24.94L23.98 21.14H29.86L30.74 14.46H33.62L32.68 21.14H35.88V23.76H32.34ZM22.48 32.62H28.3L29.52 23.76H23.66L22.48 32.62Z"
        fill="white" />
    <path
        d="M66.1953 6.47026C67.2882 5.84466 68.7118 5.84183 69.8038 6.47026C75.2977 9.57458 80.7933 12.674 86.2862 15.7802C87.3193 16.3622 88.0104 17.512 87.9999 18.7024V37.3792C88.0076 38.619 87.2482 39.7962 86.1582 40.365C80.6824 43.4522 75.2095 46.5432 69.7346 49.6304C68.619 50.2682 67.1669 50.2191 66.0861 49.529C64.4445 48.5773 62.8 47.6303 61.1582 46.6796C60.8227 46.4796 60.4446 46.3204 60.2077 45.9951C60.4171 45.7129 60.7915 45.6777 61.0958 45.5545C61.781 45.3366 62.4104 44.9868 63.0399 44.6474C63.1991 44.5384 63.3935 44.5802 63.5461 44.6777C64.9499 45.4826 66.3413 46.3108 67.7498 47.108C68.0502 47.2815 68.3545 47.0512 68.6113 46.908C73.9848 43.8711 79.3648 40.8456 84.7373 37.8076C84.9364 37.7119 85.0464 37.5006 85.0303 37.2825C85.034 31.1214 85.0312 24.9593 85.0322 18.7982C85.0549 18.5508 84.9117 18.3233 84.688 18.2221C79.2312 15.149 73.7772 12.0712 68.3214 8.99733C68.2268 8.93234 68.1149 8.89748 68.0002 8.89731C67.8854 8.89714 67.7734 8.93168 67.6787 8.99639C62.2228 12.0712 56.7697 15.1518 51.3139 18.2247C51.091 18.3261 50.9413 18.5499 50.9679 18.7982C50.9688 24.9593 50.9679 31.1214 50.9679 37.2835C50.9584 37.3899 50.9818 37.4966 51.0348 37.5893C51.0879 37.682 51.1681 37.7562 51.2646 37.802C52.7205 38.6276 54.1783 39.4474 55.6352 40.2702C56.4559 40.712 57.4636 40.9744 58.3679 40.636C59.1659 40.3498 59.7252 39.5355 59.71 38.6882C59.7175 32.5631 59.7062 26.437 59.7157 20.3128C59.6957 20.0409 59.9537 19.8163 60.218 19.8419C60.9176 19.8372 61.6181 19.8325 62.3176 19.8438C62.6096 19.8372 62.8106 20.13 62.7744 20.4039C62.7716 26.5678 62.782 32.7318 62.7697 38.8957C62.7716 40.5385 62.0967 42.326 60.5772 43.1298C58.7053 44.0995 56.3916 43.8938 54.5422 42.964C52.9412 42.1649 51.4134 41.2219 49.8408 40.3658C48.748 39.8002 47.9924 38.6182 48.0001 37.3794V18.7024C47.9887 17.4873 48.7072 16.3167 49.7726 15.7432C55.2474 12.6535 60.7213 9.5614 66.1953 6.47026Z"
        fill="white" />
    <path
        d="M70.9723 19.4076C73.3601 19.2539 75.9164 19.3165 78.0651 20.4928C79.7287 21.3943 80.651 23.2861 80.6804 25.1344C80.6339 25.3837 80.3733 25.5212 80.1353 25.5041C79.4425 25.5032 78.7496 25.5135 78.0568 25.4994C77.7629 25.5107 77.5921 25.2397 77.5552 24.9799C77.3561 24.0956 76.8739 23.2197 76.0415 22.7932C74.7637 22.1535 73.2822 22.1856 71.8889 22.199C70.8718 22.253 69.7781 22.3411 68.9163 22.9392C68.2548 23.3923 68.0538 24.3069 68.29 25.0435C68.5126 25.5724 69.1231 25.743 69.6226 25.9003C72.5003 26.6529 75.5496 26.5781 78.3723 27.5685C79.541 27.9723 80.6842 28.7572 81.0842 29.9808C81.6074 31.6207 81.378 33.5809 80.2113 34.8974C79.2651 35.9808 77.8871 36.5704 76.5126 36.8907C74.6842 37.2984 72.7866 37.3088 70.9297 37.1278C69.1837 36.9287 67.3667 36.47 66.0188 35.2803C64.8662 34.2795 64.3032 32.7201 64.3591 31.2151C64.3724 30.9609 64.6255 30.7837 64.869 30.8045C65.5666 30.7989 66.2643 30.797 66.962 30.8055C67.2406 30.7855 67.4472 31.0264 67.4615 31.289C67.5902 32.1316 67.9069 33.0159 68.6416 33.5154C70.0595 34.4302 71.8387 34.3676 73.4623 34.3932C74.8074 34.3335 76.3173 34.3155 77.415 33.4264C77.9941 32.9193 78.1657 32.071 78.0092 31.3411C77.8397 30.7249 77.1951 30.4378 76.6415 30.25C73.8008 29.3514 70.7173 29.6775 67.9041 28.6613C66.762 28.2577 65.6575 27.4946 65.2188 26.3212C64.6065 24.6606 64.887 22.6065 66.1761 21.3344C67.4329 20.0691 69.2473 19.5818 70.9723 19.4074V19.4076Z"
        fill="white" />
</svg>