<svg width="350" height="354" viewBox="0 0 350 354" fill="none" xmlns="http://www.w3.org/2000/svg">
    <path
        d="M279.414 78.3275C302.842 162.838 253.257 250.358 168.664 273.809C119.356 287.478 69.0383 276.364 31 247.977C61.1485 326.034 146.333 369.935 228.808 347.071C316.594 322.735 368.067 231.975 343.777 144.353C331.617 100.49 302.776 65.7277 265.989 45C271.598 55.3537 276.134 66.4976 279.414 78.3275Z"
        fill="black" />
    <path
        d="M248.414 49.3275C271.842 133.838 222.257 221.358 137.664 244.809C88.3564 258.478 38.0383 247.364 0 218.977C30.1485 297.034 115.333 340.935 197.808 318.071C285.594 293.735 337.067 202.975 312.777 115.353C300.617 71.4898 271.776 36.7277 234.989 16C240.598 26.3537 245.134 37.4976 248.414 49.3275Z"
        fill="#33333F" />
    <path
        d="M137.398 50.9187C140.42 50.9187 142.869 48.4694 142.869 45.4481C142.869 42.4268 140.42 39.9775 137.398 39.9775C134.377 39.9775 131.928 42.4268 131.928 45.4481C131.928 48.4694 134.377 50.9187 137.398 50.9187Z"
        fill="#C73240" />
    <path
        d="M73.1538 40.5382C77.1047 40.5382 80.3076 37.3353 80.3076 33.3843C80.3076 29.4334 77.1047 26.2305 73.1538 26.2305C69.2028 26.2305 65.9999 29.4334 65.9999 33.3843C65.9999 37.3353 69.2028 40.5382 73.1538 40.5382Z"
        fill="#C73240" />
    <path
        d="M102.33 65.2264C104.732 65.2264 106.679 63.2795 106.679 60.878C106.679 58.4764 104.732 56.5295 102.33 56.5295C99.9288 56.5295 97.9819 58.4764 97.9819 60.878C97.9819 63.2795 99.9288 65.2264 102.33 65.2264Z"
        fill="#C73240" />
    <path
        d="M120.285 101.556C123.384 101.556 125.896 99.0441 125.896 95.9453C125.896 92.8465 123.384 90.3345 120.285 90.3345C117.186 90.3345 114.674 92.8465 114.674 95.9453C114.674 99.0441 117.186 101.556 120.285 101.556Z"
        fill="#3185C8" />
    <path
        d="M128.701 14.5882C132.73 14.5882 135.996 11.3225 135.996 7.29412C135.996 3.26569 132.73 0 128.701 0C124.673 0 121.407 3.26569 121.407 7.29412C121.407 11.3225 124.673 14.5882 128.701 14.5882Z"
        fill="#C8AE22" />
    <path
        d="M143.57 85.285C147.599 85.285 150.864 82.0193 150.864 77.9909C150.864 73.9625 147.599 70.6968 143.57 70.6968C139.542 70.6968 136.276 73.9625 136.276 77.9909C136.276 82.0193 139.542 85.285 143.57 85.285Z"
        fill="#C8AE22" />
    <path
        d="M84.1625 285.139H189.044C189.044 285.139 192.804 285.612 195.798 281.66C196.661 280.551 197.209 279.23 197.385 277.836C197.561 276.442 197.357 275.026 196.796 273.738L156.212 185.046V130.324H162.07V120.415L109.471 120.379V130.324H115.171V185.046L75.2704 273.74C75.2704 273.74 73.7417 277.752 77.0148 281.662C80.2879 285.573 84.1625 285.139 84.1625 285.139Z"
        fill="white" stroke="white" stroke-width="10" />
    <path
        d="M105.22 219.54L119.744 222.208L127.747 219.54H139.603L145.531 225.764L155.905 219.54H167.465L189.399 272.597C189.585 273.042 189.681 273.52 189.681 274.003C189.681 274.486 189.585 274.964 189.399 275.41C188.794 277.154 187.323 277.339 187.323 277.339H84.174C84.174 277.339 82.3281 277.154 81.5063 275.773C80.6846 274.392 81.5063 272.597 81.5063 272.597L105.22 219.54Z"
        fill="#C73240" />
    <path
        d="M155.633 253.47C161.753 253.47 166.715 248.508 166.715 242.388C166.715 236.268 161.753 231.307 155.633 231.307C149.513 231.307 144.552 236.268 144.552 242.388C144.552 248.508 149.513 253.47 155.633 253.47Z"
        fill="white" />
    <path
        d="M117.48 273.108C120.811 273.108 123.511 270.408 123.511 267.077C123.511 263.745 120.811 261.045 117.48 261.045C114.148 261.045 111.448 263.745 111.448 267.077C111.448 270.408 114.148 273.108 117.48 273.108Z"
        fill="white" />
    <path
        d="M142.869 181.371C145.813 181.371 148.199 178.921 148.199 175.9C148.199 172.879 145.813 170.429 142.869 170.429C139.925 170.429 137.538 172.879 137.538 175.9C137.538 178.921 139.925 181.371 142.869 181.371Z"
        fill="#C73240" />
    <path
        d="M127.018 143.918C130.117 143.918 132.629 141.406 132.629 138.307C132.629 135.209 130.117 132.697 127.018 132.697C123.919 132.697 121.407 135.209 121.407 138.307C121.407 141.406 123.919 143.918 127.018 143.918Z"
        fill="#C8AE22" />
</svg>