<svg width="346" height="56" viewBox="0 0 346 56" fill="none" xmlns="http://www.w3.org/2000/svg">
<rect width="346" height="56" rx="28" fill="#2D577A"/>
<path d="M145.05 24.126C145.05 25.0873 144.84 25.9273 144.42 26.646C144.009 27.3647 143.449 27.9573 142.74 28.424C142.031 28.8907 141.233 29.2313 140.346 29.446L146.058 38H143.146L137.882 29.726H135.278V38H132.842V18.722H137.798C140.178 18.722 141.979 19.1793 143.202 20.094C144.434 20.9993 145.05 22.3433 145.05 24.126ZM142.446 24.126C142.446 22.8847 142.091 21.998 141.382 21.466C140.673 20.9247 139.571 20.654 138.078 20.654H135.278V27.822H138.078C139.459 27.822 140.533 27.542 141.298 26.982C142.063 26.4127 142.446 25.4607 142.446 24.126ZM151.451 31.462C151.498 32.6007 151.717 33.534 152.109 34.262C152.501 34.9807 153.019 35.5127 153.663 35.858C154.307 36.194 155.007 36.362 155.763 36.362C156.519 36.362 157.2 36.25 157.807 36.026C158.423 35.802 159.053 35.4707 159.697 35.032L160.803 36.586C160.112 37.1273 159.324 37.552 158.437 37.86C157.56 38.168 156.659 38.322 155.735 38.322C154.307 38.322 153.089 38 152.081 37.356C151.073 36.712 150.303 35.816 149.771 34.668C149.248 33.5107 148.987 32.1713 148.987 30.65C148.987 29.1567 149.253 27.8313 149.785 26.674C150.317 25.5167 151.064 24.6067 152.025 23.944C152.986 23.2813 154.12 22.95 155.427 22.95C156.668 22.95 157.737 23.244 158.633 23.832C159.529 24.4107 160.215 25.2413 160.691 26.324C161.176 27.3973 161.419 28.6807 161.419 30.174C161.419 30.426 161.414 30.664 161.405 30.888C161.396 31.1027 161.382 31.294 161.363 31.462H151.451ZM155.455 24.882C154.363 24.882 153.448 25.2693 152.711 26.044C151.983 26.8187 151.568 28.018 151.465 29.642H159.151C159.123 28.0647 158.778 26.8793 158.115 26.086C157.452 25.2833 156.566 24.882 155.455 24.882ZM176.948 34.78C176.948 35.368 177.046 35.7973 177.242 36.068C177.438 36.3387 177.741 36.5393 178.152 36.67L177.578 38.322C176.943 38.238 176.388 38.0373 175.912 37.72C175.436 37.3933 175.091 36.9033 174.876 36.25C174.344 36.9313 173.681 37.4493 172.888 37.804C172.095 38.1493 171.217 38.322 170.256 38.322C168.781 38.322 167.619 37.9067 166.77 37.076C165.921 36.2453 165.496 35.144 165.496 33.772C165.496 32.2507 166.089 31.084 167.274 30.272C168.459 29.46 170.172 29.054 172.412 29.054H174.582V27.822C174.582 26.758 174.269 26.0067 173.644 25.568C173.028 25.12 172.169 24.896 171.068 24.896C170.583 24.896 170.013 24.9567 169.36 25.078C168.707 25.19 167.997 25.3813 167.232 25.652L166.616 23.874C167.521 23.538 168.371 23.3 169.164 23.16C169.957 23.02 170.713 22.95 171.432 22.95C173.271 22.95 174.647 23.3793 175.562 24.238C176.486 25.0873 176.948 26.2447 176.948 27.71V34.78ZM170.858 36.53C171.586 36.53 172.281 36.348 172.944 35.984C173.607 35.6107 174.153 35.0973 174.582 34.444V30.65H172.454C170.83 30.65 169.682 30.93 169.01 31.49C168.347 32.05 168.016 32.8013 168.016 33.744C168.016 34.6587 168.249 35.354 168.716 35.83C169.192 36.2967 169.906 36.53 170.858 36.53ZM189.845 36.292C190.583 36.292 191.269 36.1707 191.903 35.928C192.547 35.6853 193.14 35.3773 193.681 35.004L194.829 36.544C194.185 37.0947 193.411 37.5287 192.505 37.846C191.6 38.1633 190.713 38.322 189.845 38.322C188.38 38.322 187.129 38.0093 186.093 37.384C185.067 36.7493 184.283 35.8627 183.741 34.724C183.2 33.576 182.929 32.232 182.929 30.692C182.929 29.2173 183.2 27.8967 183.741 26.73C184.292 25.554 185.081 24.63 186.107 23.958C187.143 23.286 188.399 22.95 189.873 22.95C190.816 22.95 191.698 23.0947 192.519 23.384C193.35 23.664 194.111 24.0887 194.801 24.658L193.653 26.226C193.028 25.7873 192.398 25.4607 191.763 25.246C191.138 25.022 190.499 24.91 189.845 24.91C188.576 24.91 187.531 25.386 186.709 26.338C185.888 27.29 185.477 28.7413 185.477 30.692C185.477 31.9987 185.664 33.0673 186.037 33.898C186.42 34.7193 186.938 35.326 187.591 35.718C188.254 36.1007 189.005 36.292 189.845 36.292ZM211.674 37.258C211.17 37.594 210.559 37.8553 209.84 38.042C209.122 38.2287 208.417 38.322 207.726 38.322C206.14 38.322 204.917 37.9067 204.058 37.076C203.2 36.2453 202.77 35.1767 202.77 33.87V25.078H199.382V23.258H202.77V19.912L205.122 19.632V23.258H210.218L209.938 25.078H205.122V33.842C205.122 34.6633 205.337 35.2887 205.766 35.718C206.205 36.1473 206.928 36.362 207.936 36.362C208.487 36.362 208.996 36.2967 209.462 36.166C209.929 36.0353 210.363 35.8673 210.764 35.662L211.674 37.258ZM241.794 38L235.004 21.046C235.014 21.2607 235.032 21.62 235.06 22.124C235.098 22.6187 235.135 23.2113 235.172 23.902C235.219 24.5833 235.256 25.3067 235.284 26.072C235.312 26.8373 235.326 27.5933 235.326 28.34V38H233.072V18.722H236.362L243.264 35.746C243.255 35.4753 243.222 34.9807 243.166 34.262C243.11 33.534 243.059 32.6567 243.012 31.63C242.966 30.6033 242.942 29.516 242.942 28.368V18.722H245.196V38H241.794ZM260.893 34.78C260.893 35.368 260.991 35.7973 261.187 36.068C261.383 36.3387 261.687 36.5393 262.097 36.67L261.523 38.322C260.889 38.238 260.333 38.0373 259.857 37.72C259.381 37.3933 259.036 36.9033 258.821 36.25C258.289 36.9313 257.627 37.4493 256.833 37.804C256.04 38.1493 255.163 38.322 254.201 38.322C252.727 38.322 251.565 37.9067 250.715 37.076C249.866 36.2453 249.441 35.144 249.441 33.772C249.441 32.2507 250.034 31.084 251.219 30.272C252.405 29.46 254.117 29.054 256.357 29.054H258.527V27.822C258.527 26.758 258.215 26.0067 257.589 25.568C256.973 25.12 256.115 24.896 255.013 24.896C254.528 24.896 253.959 24.9567 253.305 25.078C252.652 25.19 251.943 25.3813 251.177 25.652L250.561 23.874C251.467 23.538 252.316 23.3 253.109 23.16C253.903 23.02 254.659 22.95 255.377 22.95C257.216 22.95 258.593 23.3793 259.507 24.238C260.431 25.0873 260.893 26.2447 260.893 27.71V34.78ZM254.803 36.53C255.531 36.53 256.227 36.348 256.889 35.984C257.552 35.6107 258.098 35.0973 258.527 34.444V30.65H256.399C254.775 30.65 253.627 30.93 252.955 31.49C252.293 32.05 251.961 32.8013 251.961 33.744C251.961 34.6587 252.195 35.354 252.661 35.83C253.137 36.2967 253.851 36.53 254.803 36.53ZM278.831 37.258C278.327 37.594 277.715 37.8553 276.997 38.042C276.278 38.2287 275.573 38.322 274.883 38.322C273.296 38.322 272.073 37.9067 271.215 37.076C270.356 36.2453 269.927 35.1767 269.927 33.87V25.078H266.539V23.258H269.927V19.912L272.279 19.632V23.258H277.375L277.095 25.078H272.279V33.842C272.279 34.6633 272.493 35.2887 272.923 35.718C273.361 36.1473 274.085 36.362 275.093 36.362C275.643 36.362 276.152 36.2967 276.619 36.166C277.085 36.0353 277.519 35.8673 277.921 35.662L278.831 37.258ZM291.378 23.258V36.138H295.536V38H284.476V36.138H289.026V25.12H284.616V23.258H291.378ZM289.502 16.356C290.024 16.356 290.44 16.5147 290.748 16.832C291.065 17.1493 291.224 17.5367 291.224 17.994C291.224 18.47 291.065 18.8713 290.748 19.198C290.44 19.5153 290.024 19.674 289.502 19.674C289.007 19.674 288.601 19.5153 288.284 19.198C287.966 18.8713 287.808 18.47 287.808 17.994C287.808 17.5367 287.966 17.1493 288.284 16.832C288.601 16.5147 289.007 16.356 289.502 16.356ZM312.997 23.258L307.635 38H304.905L299.585 23.258H302.077L306.347 35.858L310.561 23.258H312.997ZM319.342 31.462C319.388 32.6007 319.608 33.534 320 34.262C320.392 34.9807 320.91 35.5127 321.554 35.858C322.198 36.194 322.898 36.362 323.654 36.362C324.41 36.362 325.091 36.25 325.698 36.026C326.314 35.802 326.944 35.4707 327.588 35.032L328.694 36.586C328.003 37.1273 327.214 37.552 326.328 37.86C325.45 38.168 324.55 38.322 323.626 38.322C322.198 38.322 320.98 38 319.972 37.356C318.964 36.712 318.194 35.816 317.662 34.668C317.139 33.5107 316.878 32.1713 316.878 30.65C316.878 29.1567 317.144 27.8313 317.676 26.674C318.208 25.5167 318.954 24.6067 319.916 23.944C320.877 23.2813 322.011 22.95 323.318 22.95C324.559 22.95 325.628 23.244 326.524 23.832C327.42 24.4107 328.106 25.2413 328.582 26.324C329.067 27.3973 329.31 28.6807 329.31 30.174C329.31 30.426 329.305 30.664 329.296 30.888C329.286 31.1027 329.272 31.294 329.254 31.462H319.342ZM323.346 24.882C322.254 24.882 321.339 25.2693 320.602 26.044C319.874 26.8187 319.458 28.018 319.356 29.642H327.042C327.014 28.0647 326.668 26.8793 326.006 26.086C325.343 25.2833 324.456 24.882 323.346 24.882Z" fill="white"/>
<path d="M27.34 23.76L26.16 32.62H29.4V35.22H25.78L24.94 42H22.06L22.96 35.22H17.14L16.26 42H13.38L14.28 35.22H11.12V32.62H14.62L15.84 23.76H12.6V21.14H16.18L17.06 14.46H19.94L18.98 21.14H24.86L25.74 14.46H28.62L27.68 21.14H30.88V23.76H27.34ZM17.48 32.62H23.3L24.52 23.76H18.66L17.48 32.62Z" fill="white"/>
<path d="M86 28.0418C86 25.0607 82.2668 22.2356 76.5432 20.4837C77.864 14.65 77.277 10.0088 74.6904 8.52283C74.0942 8.17428 73.3971 8.00917 72.6358 8.00917V10.0546C73.0577 10.0546 73.3971 10.1372 73.6814 10.2931C74.9289 11.0086 75.47 13.7328 75.0481 17.2366C74.9472 18.0988 74.7821 19.0069 74.5803 19.9333C72.7825 19.4931 70.8196 19.1537 68.7558 18.9335C67.5175 17.2366 66.2334 15.6957 64.9401 14.3473C67.9303 11.5681 70.7371 10.0455 72.6449 10.0455V8C70.1225 8 66.8204 9.7978 63.4817 12.9164C60.1429 9.81614 56.8408 8.03669 54.3184 8.03669V10.0821C56.2171 10.0821 59.033 11.5956 62.0232 14.3565C60.7391 15.7048 59.455 17.2366 58.235 18.9335C56.162 19.1537 54.1991 19.4931 52.4013 19.9425C52.1904 19.0253 52.0344 18.1355 51.9244 17.2825C51.4933 13.7786 52.0253 11.0544 53.2636 10.3298C53.5387 10.1647 53.8965 10.0913 54.3184 10.0913V8.04586C53.5479 8.04586 52.8508 8.21097 52.2454 8.55952C49.668 10.0455 49.0901 14.6775 50.4201 20.4929C44.7148 22.254 41 25.0699 41 28.0418C41 31.0228 44.7332 33.8479 50.4568 35.5998C49.136 41.4335 49.723 46.0748 52.3096 47.5607C52.9058 47.9092 53.6029 48.0744 54.3734 48.0744C56.8958 48.0744 60.1979 46.2766 63.5367 43.1579C66.8755 46.2582 70.1775 48.0377 72.7 48.0377C73.4704 48.0377 74.1676 47.8726 74.7729 47.524C77.3504 46.0381 77.9283 41.406 76.5982 35.5907C82.2852 33.8387 86 31.0136 86 28.0418ZM74.0575 21.9238C73.7181 23.107 73.2962 24.3269 72.8192 25.5469C72.4431 24.8131 72.0487 24.0793 71.6176 23.3455C71.1957 22.6117 70.7462 21.8962 70.2968 21.1991C71.5993 21.3917 72.8559 21.6302 74.0575 21.9238ZM69.8565 31.6924C69.1411 32.9307 68.4073 34.1047 67.6459 35.1963C66.2793 35.3155 64.8942 35.3797 63.5 35.3797C62.115 35.3797 60.7299 35.3155 59.3724 35.2054C58.6111 34.1139 57.8681 32.949 57.1527 31.7199C56.4556 30.5183 55.8227 29.2984 55.2448 28.0693C55.8135 26.8402 56.4556 25.6111 57.1435 24.4095C57.859 23.1712 58.5927 21.9971 59.3541 20.9056C60.7208 20.7864 62.1058 20.7222 63.5 20.7222C64.885 20.7222 66.2701 20.7864 67.6276 20.8964C68.3889 21.988 69.1319 23.1529 69.8473 24.382C70.5444 25.5836 71.1773 26.8035 71.7552 28.0326C71.1773 29.2617 70.5444 30.4908 69.8565 31.6924ZM72.8192 30.5C73.3145 31.7291 73.7365 32.9582 74.085 34.1506C72.8834 34.4441 71.6176 34.6918 70.306 34.8844C70.7554 34.1781 71.2049 33.4535 71.6268 32.7105C72.0487 31.9767 72.4431 31.2338 72.8192 30.5ZM63.5183 40.287C62.6653 39.4064 61.8123 38.425 60.9684 37.3518C61.7939 37.3885 62.6378 37.416 63.4908 37.416C64.353 37.416 65.2061 37.3976 66.0408 37.3518C65.2152 38.425 64.3622 39.4064 63.5183 40.287ZM56.694 34.8844C55.3916 34.6918 54.1349 34.4533 52.9333 34.1598C53.2727 32.9765 53.6947 31.7566 54.1716 30.5367C54.5477 31.2705 54.9421 32.0043 55.3732 32.738C55.8043 33.4718 56.2446 34.1873 56.694 34.8844ZM63.4725 15.7966C64.3255 16.6771 65.1786 17.6586 66.0224 18.7317C65.1969 18.6951 64.353 18.6675 63.5 18.6675C62.6378 18.6675 61.7848 18.6859 60.9501 18.7317C61.7756 17.6586 62.6286 16.6771 63.4725 15.7966ZM56.6849 21.1991C56.2354 21.9054 55.786 22.63 55.364 23.373C54.9421 24.1068 54.5477 24.8406 54.1716 25.5744C53.6763 24.3453 53.2544 23.1162 52.9058 21.9238C54.1074 21.6394 55.3732 21.3917 56.6849 21.1991ZM48.3838 32.683C45.1368 31.298 43.0363 29.4818 43.0363 28.0418C43.0363 26.6017 45.1368 24.7764 48.3838 23.4005C49.1726 23.0611 50.0349 22.7584 50.9246 22.4741C51.4474 24.2719 52.1353 26.1431 52.9884 28.0601C52.1445 29.968 51.4658 31.83 50.9521 33.6186C50.044 33.3343 49.1818 33.0224 48.3838 32.683ZM53.3186 45.7904C52.0711 45.075 51.53 42.3508 51.9519 38.8469C52.0528 37.9847 52.2179 37.0766 52.4197 36.1502C54.2175 36.5905 56.1804 36.9298 58.2442 37.15C59.4825 38.8469 60.7666 40.3879 62.0599 41.7362C59.0697 44.5154 56.2629 46.0381 54.3551 46.0381C53.9423 46.0289 53.5938 45.9464 53.3186 45.7904ZM75.0756 38.801C75.5067 42.3049 74.9747 45.0291 73.7364 45.7537C73.4613 45.9188 73.1035 45.9922 72.6816 45.9922C70.7829 45.9922 67.967 44.4788 64.9768 41.7179C66.2609 40.3695 67.545 38.8377 68.765 37.1408C70.838 36.9207 72.8009 36.5813 74.5987 36.1318C74.8096 37.0583 74.9747 37.948 75.0756 38.801ZM78.607 32.683C77.8182 33.0224 76.956 33.3251 76.0662 33.6094C75.5434 31.8116 74.8555 29.9405 74.0024 28.0234C74.8463 26.1156 75.5251 24.2535 76.0387 22.4649C76.9468 22.7493 77.809 23.0611 78.6162 23.4005C81.8632 24.7855 83.9637 26.6017 83.9637 28.0418C83.9545 29.4818 81.8541 31.3071 78.607 32.683Z" fill="white"/>
<path d="M63.4903 32.2337C65.8054 32.2337 67.6821 30.357 67.6821 28.0419C67.6821 25.7268 65.8054 23.8501 63.4903 23.8501C61.1753 23.8501 59.2985 25.7268 59.2985 28.0419C59.2985 30.357 61.1753 32.2337 63.4903 32.2337Z" fill="white"/>
<path d="M114.264 46.8601H97.6218C96.1399 46.8601 95 45.5648 95 43.8808V10.9793C95 9.29534 96.1399 8 97.6218 8H114.264C115.746 8 116.886 9.29534 116.886 10.9793V43.7513C116.886 45.5648 115.746 46.8601 114.264 46.8601Z" stroke="white" stroke-width="3" stroke-miterlimit="10" stroke-linecap="round" stroke-linejoin="round"/>
<path d="M114.264 47H97.6218C96.1399 47 95 44.8723 95 42.1064V37H117V42.1064C116.886 44.8723 115.746 47 114.264 47Z" stroke="white" stroke-width="3" stroke-miterlimit="10" stroke-linecap="round" stroke-linejoin="round"/>
<path d="M97.6354 8H114.365C115.854 8 117 9.91489 117 12.4043V17H95V12.4043C95 9.91489 96.1458 8 97.6354 8Z" stroke="white" stroke-width="3" stroke-miterlimit="10" stroke-linecap="round" stroke-linejoin="round"/>
<path d="M103 42H108.699" stroke="white" stroke-width="3" stroke-miterlimit="10" stroke-linecap="round" stroke-linejoin="round"/>
<path d="M100.5 12.5H104.034" stroke="white" stroke-width="3" stroke-miterlimit="10" stroke-linecap="round" stroke-linejoin="round"/>
<path d="M110.769 12.5H111.567" stroke="white" stroke-width="3" stroke-miterlimit="10" stroke-linecap="round" stroke-linejoin="round"/>
</svg>
