<svg width="198" height="56" viewBox="0 0 198 56" fill="none" xmlns="http://www.w3.org/2000/svg">
<rect width="198" height="56" rx="28" fill="#2D577A"/>
<path d="M107.05 24.126C107.05 25.0873 106.84 25.9273 106.42 26.646C106.009 27.3647 105.449 27.9573 104.74 28.424C104.031 28.8907 103.233 29.2313 102.346 29.446L108.058 38H105.146L99.882 29.726H97.278V38H94.842V18.722H99.798C102.178 18.722 103.979 19.1793 105.202 20.094C106.434 20.9993 107.05 22.3433 107.05 24.126ZM104.446 24.126C104.446 22.8847 104.091 21.998 103.382 21.466C102.673 20.9247 101.571 20.654 100.078 20.654H97.278V27.822H100.078C101.459 27.822 102.533 27.542 103.298 26.982C104.063 26.4127 104.446 25.4607 104.446 24.126ZM113.451 31.462C113.498 32.6007 113.717 33.534 114.109 34.262C114.501 34.9807 115.019 35.5127 115.663 35.858C116.307 36.194 117.007 36.362 117.763 36.362C118.519 36.362 119.2 36.25 119.807 36.026C120.423 35.802 121.053 35.4707 121.697 35.032L122.803 36.586C122.112 37.1273 121.324 37.552 120.437 37.86C119.56 38.168 118.659 38.322 117.735 38.322C116.307 38.322 115.089 38 114.081 37.356C113.073 36.712 112.303 35.816 111.771 34.668C111.248 33.5107 110.987 32.1713 110.987 30.65C110.987 29.1567 111.253 27.8313 111.785 26.674C112.317 25.5167 113.064 24.6067 114.025 23.944C114.986 23.2813 116.12 22.95 117.427 22.95C118.668 22.95 119.737 23.244 120.633 23.832C121.529 24.4107 122.215 25.2413 122.691 26.324C123.176 27.3973 123.419 28.6807 123.419 30.174C123.419 30.426 123.414 30.664 123.405 30.888C123.396 31.1027 123.382 31.294 123.363 31.462H113.451ZM117.455 24.882C116.363 24.882 115.448 25.2693 114.711 26.044C113.983 26.8187 113.568 28.018 113.465 29.642H121.151C121.123 28.0647 120.778 26.8793 120.115 26.086C119.452 25.2833 118.566 24.882 117.455 24.882ZM138.948 34.78C138.948 35.368 139.046 35.7973 139.242 36.068C139.438 36.3387 139.741 36.5393 140.152 36.67L139.578 38.322C138.943 38.238 138.388 38.0373 137.912 37.72C137.436 37.3933 137.091 36.9033 136.876 36.25C136.344 36.9313 135.681 37.4493 134.888 37.804C134.095 38.1493 133.217 38.322 132.256 38.322C130.781 38.322 129.619 37.9067 128.77 37.076C127.921 36.2453 127.496 35.144 127.496 33.772C127.496 32.2507 128.089 31.084 129.274 30.272C130.459 29.46 132.172 29.054 134.412 29.054H136.582V27.822C136.582 26.758 136.269 26.0067 135.644 25.568C135.028 25.12 134.169 24.896 133.068 24.896C132.583 24.896 132.013 24.9567 131.36 25.078C130.707 25.19 129.997 25.3813 129.232 25.652L128.616 23.874C129.521 23.538 130.371 23.3 131.164 23.16C131.957 23.02 132.713 22.95 133.432 22.95C135.271 22.95 136.647 23.3793 137.562 24.238C138.486 25.0873 138.948 26.2447 138.948 27.71V34.78ZM132.858 36.53C133.586 36.53 134.281 36.348 134.944 35.984C135.607 35.6107 136.153 35.0973 136.582 34.444V30.65H134.454C132.83 30.65 131.682 30.93 131.01 31.49C130.347 32.05 130.016 32.8013 130.016 33.744C130.016 34.6587 130.249 35.354 130.716 35.83C131.192 36.2967 131.906 36.53 132.858 36.53ZM151.845 36.292C152.583 36.292 153.269 36.1707 153.903 35.928C154.547 35.6853 155.14 35.3773 155.681 35.004L156.829 36.544C156.185 37.0947 155.411 37.5287 154.505 37.846C153.6 38.1633 152.713 38.322 151.845 38.322C150.38 38.322 149.129 38.0093 148.093 37.384C147.067 36.7493 146.283 35.8627 145.741 34.724C145.2 33.576 144.929 32.232 144.929 30.692C144.929 29.2173 145.2 27.8967 145.741 26.73C146.292 25.554 147.081 24.63 148.107 23.958C149.143 23.286 150.399 22.95 151.873 22.95C152.816 22.95 153.698 23.0947 154.519 23.384C155.35 23.664 156.111 24.0887 156.801 24.658L155.653 26.226C155.028 25.7873 154.398 25.4607 153.763 25.246C153.138 25.022 152.499 24.91 151.845 24.91C150.576 24.91 149.531 25.386 148.709 26.338C147.888 27.29 147.477 28.7413 147.477 30.692C147.477 31.9987 147.664 33.0673 148.037 33.898C148.42 34.7193 148.938 35.326 149.591 35.718C150.254 36.1007 151.005 36.292 151.845 36.292ZM173.674 37.258C173.17 37.594 172.559 37.8553 171.84 38.042C171.122 38.2287 170.417 38.322 169.726 38.322C168.14 38.322 166.917 37.9067 166.058 37.076C165.2 36.2453 164.77 35.1767 164.77 33.87V25.078H161.382V23.258H164.77V19.912L167.122 19.632V23.258H172.218L171.938 25.078H167.122V33.842C167.122 34.6633 167.337 35.2887 167.766 35.718C168.205 36.1473 168.928 36.362 169.936 36.362C170.487 36.362 170.996 36.2967 171.462 36.166C171.929 36.0353 172.363 35.8673 172.764 35.662L173.674 37.258Z" fill="white"/>
<path d="M27.34 23.76L26.16 32.62H29.4V35.22H25.78L24.94 42H22.06L22.96 35.22H17.14L16.26 42H13.38L14.28 35.22H11.12V32.62H14.62L15.84 23.76H12.6V21.14H16.18L17.06 14.46H19.94L18.98 21.14H24.86L25.74 14.46H28.62L27.68 21.14H30.88V23.76H27.34ZM17.48 32.62H23.3L24.52 23.76H18.66L17.48 32.62Z" fill="white"/>
<path d="M86 28.0418C86 25.0607 82.2668 22.2356 76.5432 20.4837C77.864 14.65 77.277 10.0088 74.6904 8.52283C74.0942 8.17428 73.3971 8.00917 72.6358 8.00917V10.0546C73.0577 10.0546 73.3971 10.1372 73.6814 10.2931C74.9289 11.0086 75.47 13.7328 75.0481 17.2366C74.9472 18.0988 74.7821 19.0069 74.5803 19.9333C72.7825 19.4931 70.8196 19.1537 68.7558 18.9335C67.5175 17.2366 66.2334 15.6957 64.9401 14.3473C67.9303 11.5681 70.7371 10.0455 72.6449 10.0455V8C70.1225 8 66.8204 9.7978 63.4817 12.9164C60.1429 9.81614 56.8408 8.03669 54.3184 8.03669V10.0821C56.2171 10.0821 59.033 11.5956 62.0232 14.3565C60.7391 15.7048 59.455 17.2366 58.235 18.9335C56.162 19.1537 54.1991 19.4931 52.4013 19.9425C52.1904 19.0253 52.0344 18.1355 51.9244 17.2825C51.4933 13.7786 52.0253 11.0544 53.2636 10.3298C53.5387 10.1647 53.8965 10.0913 54.3184 10.0913V8.04586C53.5479 8.04586 52.8508 8.21097 52.2454 8.55952C49.668 10.0455 49.0901 14.6775 50.4201 20.4929C44.7148 22.254 41 25.0699 41 28.0418C41 31.0228 44.7332 33.8479 50.4568 35.5998C49.136 41.4335 49.723 46.0748 52.3096 47.5607C52.9058 47.9092 53.6029 48.0744 54.3734 48.0744C56.8958 48.0744 60.1979 46.2766 63.5367 43.1579C66.8755 46.2582 70.1775 48.0377 72.7 48.0377C73.4704 48.0377 74.1676 47.8726 74.7729 47.524C77.3504 46.0381 77.9283 41.406 76.5982 35.5907C82.2852 33.8387 86 31.0136 86 28.0418ZM74.0575 21.9238C73.7181 23.107 73.2962 24.3269 72.8192 25.5469C72.4431 24.8131 72.0487 24.0793 71.6176 23.3455C71.1957 22.6117 70.7462 21.8962 70.2968 21.1991C71.5993 21.3917 72.8559 21.6302 74.0575 21.9238ZM69.8565 31.6924C69.1411 32.9307 68.4073 34.1047 67.6459 35.1963C66.2793 35.3155 64.8942 35.3797 63.5 35.3797C62.115 35.3797 60.7299 35.3155 59.3724 35.2054C58.6111 34.1139 57.8681 32.949 57.1527 31.7199C56.4556 30.5183 55.8227 29.2984 55.2448 28.0693C55.8135 26.8402 56.4556 25.6111 57.1435 24.4095C57.859 23.1712 58.5927 21.9971 59.3541 20.9056C60.7208 20.7864 62.1058 20.7222 63.5 20.7222C64.885 20.7222 66.2701 20.7864 67.6276 20.8964C68.3889 21.988 69.1319 23.1529 69.8473 24.382C70.5444 25.5836 71.1773 26.8035 71.7552 28.0326C71.1773 29.2617 70.5444 30.4908 69.8565 31.6924ZM72.8192 30.5C73.3145 31.7291 73.7365 32.9582 74.085 34.1506C72.8834 34.4441 71.6176 34.6918 70.306 34.8844C70.7554 34.1781 71.2049 33.4535 71.6268 32.7105C72.0487 31.9767 72.4431 31.2338 72.8192 30.5ZM63.5183 40.287C62.6653 39.4064 61.8123 38.425 60.9684 37.3518C61.7939 37.3885 62.6378 37.416 63.4908 37.416C64.353 37.416 65.2061 37.3976 66.0408 37.3518C65.2152 38.425 64.3622 39.4064 63.5183 40.287ZM56.694 34.8844C55.3916 34.6918 54.1349 34.4533 52.9333 34.1598C53.2727 32.9765 53.6947 31.7566 54.1716 30.5367C54.5477 31.2705 54.9421 32.0043 55.3732 32.738C55.8043 33.4718 56.2446 34.1873 56.694 34.8844ZM63.4725 15.7966C64.3255 16.6771 65.1786 17.6586 66.0224 18.7317C65.1969 18.6951 64.353 18.6675 63.5 18.6675C62.6378 18.6675 61.7848 18.6859 60.9501 18.7317C61.7756 17.6586 62.6286 16.6771 63.4725 15.7966ZM56.6849 21.1991C56.2354 21.9054 55.786 22.63 55.364 23.373C54.9421 24.1068 54.5477 24.8406 54.1716 25.5744C53.6763 24.3453 53.2544 23.1162 52.9058 21.9238C54.1074 21.6394 55.3732 21.3917 56.6849 21.1991ZM48.3838 32.683C45.1368 31.298 43.0363 29.4818 43.0363 28.0418C43.0363 26.6017 45.1368 24.7764 48.3838 23.4005C49.1726 23.0611 50.0349 22.7584 50.9246 22.4741C51.4474 24.2719 52.1353 26.1431 52.9884 28.0601C52.1445 29.968 51.4658 31.83 50.9521 33.6186C50.044 33.3343 49.1818 33.0224 48.3838 32.683ZM53.3186 45.7904C52.0711 45.075 51.53 42.3508 51.9519 38.8469C52.0528 37.9847 52.2179 37.0766 52.4197 36.1502C54.2175 36.5905 56.1804 36.9298 58.2442 37.15C59.4825 38.8469 60.7666 40.3879 62.0599 41.7362C59.0697 44.5154 56.2629 46.0381 54.3551 46.0381C53.9423 46.0289 53.5938 45.9464 53.3186 45.7904ZM75.0756 38.801C75.5067 42.3049 74.9747 45.0291 73.7364 45.7537C73.4613 45.9188 73.1035 45.9922 72.6816 45.9922C70.7829 45.9922 67.967 44.4788 64.9768 41.7179C66.2609 40.3695 67.545 38.8377 68.765 37.1408C70.838 36.9207 72.8009 36.5813 74.5987 36.1318C74.8096 37.0583 74.9747 37.948 75.0756 38.801ZM78.607 32.683C77.8182 33.0224 76.956 33.3251 76.0662 33.6094C75.5434 31.8116 74.8555 29.9405 74.0024 28.0234C74.8463 26.1156 75.5251 24.2535 76.0387 22.4649C76.9468 22.7493 77.809 23.0611 78.6162 23.4005C81.8632 24.7855 83.9637 26.6017 83.9637 28.0418C83.9545 29.4818 81.8541 31.3071 78.607 32.683Z" fill="white"/>
<path d="M63.4903 32.2337C65.8054 32.2337 67.6821 30.357 67.6821 28.0419C67.6821 25.7268 65.8054 23.8501 63.4903 23.8501C61.1752 23.8501 59.2985 25.7268 59.2985 28.0419C59.2985 30.357 61.1752 32.2337 63.4903 32.2337Z" fill="white"/>
</svg>
