<svg width="198" height="56" viewBox="0 0 198 56" fill="none" xmlns="http://www.w3.org/2000/svg">
<rect width="198" height="56" rx="28" fill="#2D577A"/>
<path d="M107.05 24.126C107.05 25.0873 106.84 25.9273 106.42 26.646C106.009 27.3647 105.449 27.9573 104.74 28.424C104.031 28.8907 103.233 29.2313 102.346 29.446L108.058 38H105.146L99.882 29.726H97.278V38H94.842V18.722H99.798C102.178 18.722 103.979 19.1793 105.202 20.094C106.434 20.9993 107.05 22.3433 107.05 24.126ZM104.446 24.126C104.446 22.8847 104.091 21.998 103.382 21.466C102.673 20.9247 101.571 20.654 100.078 20.654H97.278V27.822H100.078C101.459 27.822 102.533 27.542 103.298 26.982C104.063 26.4127 104.446 25.4607 104.446 24.126ZM113.451 31.462C113.498 32.6007 113.717 33.534 114.109 34.262C114.501 34.9807 115.019 35.5127 115.663 35.858C116.307 36.194 117.007 36.362 117.763 36.362C118.519 36.362 119.2 36.25 119.807 36.026C120.423 35.802 121.053 35.4707 121.697 35.032L122.803 36.586C122.112 37.1273 121.324 37.552 120.437 37.86C119.56 38.168 118.659 38.322 117.735 38.322C116.307 38.322 115.089 38 114.081 37.356C113.073 36.712 112.303 35.816 111.771 34.668C111.248 33.5107 110.987 32.1713 110.987 30.65C110.987 29.1567 111.253 27.8313 111.785 26.674C112.317 25.5167 113.064 24.6067 114.025 23.944C114.986 23.2813 116.12 22.95 117.427 22.95C118.668 22.95 119.737 23.244 120.633 23.832C121.529 24.4107 122.215 25.2413 122.691 26.324C123.176 27.3973 123.419 28.6807 123.419 30.174C123.419 30.426 123.414 30.664 123.405 30.888C123.396 31.1027 123.382 31.294 123.363 31.462H113.451ZM117.455 24.882C116.363 24.882 115.448 25.2693 114.711 26.044C113.983 26.8187 113.568 28.018 113.465 29.642H121.151C121.123 28.0647 120.778 26.8793 120.115 26.086C119.452 25.2833 118.566 24.882 117.455 24.882ZM137.212 17.028L139.564 17.322V38H137.506L137.282 36.054C136.731 36.838 136.097 37.412 135.378 37.776C134.669 38.14 133.908 38.322 133.096 38.322C131.817 38.322 130.763 38 129.932 37.356C129.101 36.712 128.485 35.816 128.084 34.668C127.683 33.5107 127.482 32.1713 127.482 30.65C127.482 29.1753 127.711 27.8593 128.168 26.702C128.625 25.5353 129.283 24.6207 130.142 23.958C131.01 23.286 132.051 22.95 133.264 22.95C134.113 22.95 134.86 23.0993 135.504 23.398C136.148 23.6873 136.717 24.1167 137.212 24.686V17.028ZM133.88 24.84C132.648 24.84 131.701 25.3207 131.038 26.282C130.375 27.2433 130.044 28.6993 130.044 30.65C130.044 31.9193 130.179 32.9833 130.45 33.842C130.721 34.7007 131.117 35.3447 131.64 35.774C132.172 36.2033 132.821 36.418 133.586 36.418C134.426 36.418 135.14 36.18 135.728 35.704C136.325 35.228 136.82 34.6913 137.212 34.094V26.73C136.811 26.1327 136.325 25.6707 135.756 25.344C135.187 25.008 134.561 24.84 133.88 24.84ZM147.533 23.258V33.702C147.533 34.6727 147.734 35.3727 148.135 35.802C148.537 36.2313 149.162 36.446 150.011 36.446C150.823 36.446 151.589 36.2173 152.307 35.76C153.035 35.2933 153.6 34.7427 154.001 34.108V23.258H156.353V38H154.351L154.155 36.012C153.577 36.7587 152.863 37.3327 152.013 37.734C151.164 38.126 150.305 38.322 149.437 38.322C148.009 38.322 146.941 37.944 146.231 37.188C145.531 36.4227 145.181 35.354 145.181 33.982V23.258H147.533ZM163.398 38H160.71L166.156 30.216L161.382 23.258H164.168L167.584 28.746L171.042 23.258H173.73L168.97 30.118L174.402 38H171.518L167.486 31.672L163.398 38Z" fill="white"/>
<path d="M27.34 23.76L26.16 32.62H29.4V35.22H25.78L24.94 42H22.06L22.96 35.22H17.14L16.26 42H13.38L14.28 35.22H11.12V32.62H14.62L15.84 23.76H12.6V21.14H16.18L17.06 14.46H19.94L18.98 21.14H24.86L25.74 14.46H28.62L27.68 21.14H30.88V23.76H27.34ZM17.48 32.62H23.3L24.52 23.76H18.66L17.48 32.62Z" fill="white"/>
<path d="M71.1802 34.8359C72.8409 34.664 74.1007 33.2324 74.0434 31.5143C73.9862 29.7964 72.5545 28.422 70.8366 28.422H70.7222C68.9468 28.4793 67.5725 29.9682 67.6298 31.7434C67.6871 32.6024 68.0306 33.3468 68.546 33.8622C66.599 37.6992 63.6213 40.5052 59.1547 42.8531C56.1197 44.4566 52.9702 45.0293 49.8207 44.6285C47.2438 44.2848 45.2395 43.1396 43.9795 41.2496C42.1472 38.4436 41.9754 35.4084 43.5216 32.3734C44.6097 30.1972 46.3274 28.5937 47.4155 27.792C47.1865 27.0475 46.8428 25.7877 46.6711 24.8716C38.3677 30.8845 39.2267 39.0163 41.7464 42.8531C43.636 45.7166 47.4728 47.4918 51.7104 47.4918C52.8556 47.4918 54.0008 47.3772 55.1462 47.091C62.4761 45.6593 68.0308 41.3069 71.1802 34.8359ZM81.2588 27.7349C76.9067 22.6381 70.4931 19.8321 63.1632 19.8321H62.247C61.7317 18.8013 60.6436 18.114 59.441 18.114H59.3264C57.5514 18.1713 56.1771 19.6602 56.2343 21.4356C56.2916 23.1535 57.7231 24.5279 59.441 24.5279H59.5555C60.8153 24.4706 61.9034 23.6689 62.3615 22.5808H63.3923C67.7444 22.5808 71.8674 23.8406 75.5897 26.3031C78.4528 28.1929 80.5144 30.6555 81.6596 33.6332C82.6331 36.0384 82.5758 38.3863 81.545 40.3908C79.9417 43.4258 77.2503 45.0866 73.6999 45.0866C71.4093 45.0866 69.2333 44.3993 68.0879 43.8839C67.4581 44.4566 66.3127 45.3727 65.511 45.9456C67.9735 47.0908 70.4931 47.7208 72.8982 47.7208C78.3955 47.7208 82.4614 44.6856 84.0075 41.6506C85.6681 38.329 85.5535 32.6024 81.2588 27.7349ZM52.1685 35.8092C52.2258 37.5273 53.6573 38.9015 55.3752 38.9015H55.4898C57.2651 38.8444 58.6393 37.3554 58.582 35.5801C58.5249 33.8621 57.0931 32.4878 55.3752 32.4878H55.2608C55.1462 32.4878 54.9743 32.4878 54.86 32.5449C52.5121 28.6509 51.5386 24.4133 51.8823 19.8319C52.1111 16.3959 53.2565 13.418 55.2608 10.9555C56.9214 8.8366 60.1282 7.80582 62.3044 7.74869C68.3743 7.63408 70.951 15.1932 71.1229 18.2284C71.8674 18.4002 73.1272 18.8011 73.9862 19.0875C73.2989 9.81043 67.5725 5 62.0753 5C56.9214 5 52.1685 8.72235 50.2786 14.2199C47.6445 21.55 49.3625 28.5937 52.5692 34.1486C52.2831 34.5494 52.1111 35.1794 52.1685 35.8094V35.8092Z" fill="white"/>
</svg>
