<svg width="209" height="56" viewBox="0 0 209 56" fill="none" xmlns="http://www.w3.org/2000/svg">
<rect width="209" height="56" rx="28" fill="#2D577A"/>
<path d="M105.022 32.666C105.022 33.7673 104.747 34.7473 104.196 35.606C103.645 36.4553 102.847 37.1227 101.802 37.608C100.757 38.084 99.4827 38.322 97.98 38.322C96.5707 38.322 95.292 38.1073 94.144 37.678C93.0053 37.2487 92.03 36.642 91.218 35.858L92.66 34.234C93.332 34.8593 94.102 35.3587 94.97 35.732C95.838 36.096 96.8553 36.278 98.022 36.278C98.806 36.278 99.5387 36.152 100.22 35.9C100.901 35.6387 101.452 35.2467 101.872 34.724C102.292 34.192 102.502 33.52 102.502 32.708C102.502 32.0827 102.381 31.5507 102.138 31.112C101.895 30.6733 101.466 30.286 100.85 29.95C100.234 29.6047 99.3753 29.2687 98.274 28.942C97.0047 28.5687 95.9033 28.1487 94.97 27.682C94.046 27.206 93.3273 26.6227 92.814 25.932C92.31 25.2413 92.058 24.3873 92.058 23.37C92.058 22.4087 92.324 21.5547 92.856 20.808C93.388 20.0613 94.1207 19.478 95.054 19.058C95.9967 18.6287 97.0793 18.414 98.302 18.414C99.6367 18.414 100.794 18.6053 101.774 18.988C102.763 19.3613 103.659 19.9027 104.462 20.612L103.034 22.194C102.343 21.578 101.601 21.1347 100.808 20.864C100.015 20.584 99.2073 20.444 98.386 20.444C97.686 20.444 97.042 20.5513 96.454 20.766C95.8753 20.9713 95.4087 21.284 95.054 21.704C94.7087 22.1147 94.536 22.642 94.536 23.286C94.536 23.8367 94.6853 24.3127 94.984 24.714C95.2827 25.1153 95.7867 25.484 96.496 25.82C97.2053 26.1467 98.1713 26.492 99.394 26.856C100.393 27.1453 101.317 27.5093 102.166 27.948C103.025 28.3773 103.715 28.9653 104.238 29.712C104.761 30.4493 105.022 31.434 105.022 32.666ZM116.197 22.95C117.504 22.95 118.544 23.2673 119.319 23.902C120.103 24.5367 120.668 25.4327 121.013 26.59C121.358 27.738 121.531 29.082 121.531 30.622C121.531 32.106 121.321 33.4313 120.901 34.598C120.49 35.7553 119.865 36.6653 119.025 37.328C118.185 37.9907 117.126 38.322 115.847 38.322C114.232 38.322 112.935 37.7527 111.955 36.614V43.642L109.603 43.936V23.258H111.605L111.801 25.316C112.342 24.56 112.986 23.9767 113.733 23.566C114.489 23.1553 115.31 22.95 116.197 22.95ZM115.637 24.84C114.825 24.84 114.106 25.0873 113.481 25.582C112.865 26.0673 112.356 26.6087 111.955 27.206V34.514C112.338 35.0833 112.818 35.536 113.397 35.872C113.985 36.1987 114.629 36.362 115.329 36.362C116.552 36.362 117.471 35.8953 118.087 34.962C118.703 34.0287 119.011 32.5773 119.011 30.608C119.011 29.32 118.89 28.2513 118.647 27.402C118.404 26.5433 118.036 25.904 117.541 25.484C117.046 25.0547 116.412 24.84 115.637 24.84ZM126.532 38V36.194H128.828V25.064H126.532V23.258H130.62L131.054 26.744C131.623 25.5307 132.314 24.5927 133.126 23.93C133.938 23.2673 135.011 22.936 136.346 22.936C136.757 22.936 137.121 22.9687 137.438 23.034C137.765 23.09 138.096 23.1647 138.432 23.258L137.746 25.358C137.438 25.274 137.158 25.2133 136.906 25.176C136.654 25.1293 136.365 25.106 136.038 25.106C134.909 25.106 133.938 25.5073 133.126 26.31C132.314 27.1127 131.665 28.326 131.18 29.95V36.194H134.176V38H126.532ZM136.164 28.242V25.036L136.402 23.258H138.432L138.096 28.242H136.164ZM150.643 23.258V36.138H154.801V38H143.741V36.138H148.291V25.12H143.881V23.258H150.643ZM148.767 16.356C149.29 16.356 149.705 16.5147 150.013 16.832C150.331 17.1493 150.489 17.5367 150.489 17.994C150.489 18.47 150.331 18.8713 150.013 19.198C149.705 19.5153 149.29 19.674 148.767 19.674C148.273 19.674 147.867 19.5153 147.549 19.198C147.232 18.8713 147.073 18.47 147.073 17.994C147.073 17.5367 147.232 17.1493 147.549 16.832C147.867 16.5147 148.273 16.356 148.767 16.356ZM159.97 38V23.258H161.972L162.154 25.302C162.752 24.546 163.498 23.9673 164.394 23.566C165.3 23.1553 166.177 22.95 167.026 22.95C168.473 22.95 169.523 23.3327 170.176 24.098C170.839 24.8633 171.17 25.9273 171.17 27.29V38H168.818V29.026C168.818 28.018 168.762 27.206 168.65 26.59C168.538 25.9647 168.305 25.512 167.95 25.232C167.596 24.9427 167.045 24.798 166.298 24.798C165.72 24.798 165.174 24.924 164.66 25.176C164.156 25.428 163.704 25.7453 163.302 26.128C162.91 26.5013 162.584 26.8793 162.322 27.262V38H159.97ZM188.743 21.69L189.471 23.902C188.846 24.098 188.179 24.2193 187.469 24.266C186.76 24.3127 185.99 24.336 185.159 24.336C186.009 24.728 186.648 25.2367 187.077 25.862C187.507 26.478 187.721 27.206 187.721 28.046C187.721 29.0167 187.502 29.88 187.063 30.636C186.625 31.392 185.99 31.9847 185.159 32.414C184.338 32.8433 183.344 33.058 182.177 33.058C181.683 33.058 181.267 33.0347 180.931 32.988C180.605 32.9413 180.287 32.8713 179.979 32.778C179.755 32.9273 179.569 33.1327 179.419 33.394C179.279 33.6553 179.209 33.926 179.209 34.206C179.209 34.5607 179.349 34.8547 179.629 35.088C179.909 35.3213 180.427 35.438 181.183 35.438H183.843C184.833 35.438 185.719 35.6153 186.503 35.97C187.297 36.3247 187.917 36.8007 188.365 37.398C188.823 37.9953 189.051 38.6767 189.051 39.442C189.051 40.8887 188.435 41.9993 187.203 42.774C185.981 43.5487 184.249 43.936 182.009 43.936C180.441 43.936 179.205 43.7727 178.299 43.446C177.394 43.1287 176.745 42.6387 176.353 41.976C175.971 41.3227 175.779 40.4967 175.779 39.498H177.907C177.907 40.0673 178.019 40.5387 178.243 40.912C178.467 41.2853 178.873 41.5607 179.461 41.738C180.049 41.9247 180.894 42.018 181.995 42.018C183.078 42.018 183.96 41.9247 184.641 41.738C185.332 41.5607 185.841 41.29 186.167 40.926C186.503 40.5713 186.671 40.128 186.671 39.596C186.671 38.896 186.354 38.3687 185.719 38.014C185.085 37.6593 184.291 37.482 183.339 37.482H180.707C179.438 37.482 178.5 37.202 177.893 36.642C177.296 36.082 176.997 35.438 176.997 34.71C176.997 34.234 177.133 33.772 177.403 33.324C177.683 32.876 178.089 32.4793 178.621 32.134C177.772 31.686 177.147 31.1307 176.745 30.468C176.344 29.8053 176.143 29.0027 176.143 28.06C176.143 27.0613 176.391 26.1793 176.885 25.414C177.38 24.6393 178.071 24.0327 178.957 23.594C179.844 23.1553 180.866 22.936 182.023 22.936C183.265 22.9267 184.273 22.8753 185.047 22.782C185.822 22.6793 186.485 22.5347 187.035 22.348C187.595 22.1613 188.165 21.942 188.743 21.69ZM182.023 24.658C180.838 24.658 179.961 24.98 179.391 25.624C178.831 26.2587 178.551 27.0707 178.551 28.06C178.551 29.0587 178.841 29.88 179.419 30.524C179.998 31.168 180.885 31.49 182.079 31.49C183.125 31.49 183.918 31.1867 184.459 30.58C185.01 29.9733 185.285 29.1287 185.285 28.046C185.285 26.9353 185.01 26.0953 184.459 25.526C183.918 24.9473 183.106 24.658 182.023 24.658Z" fill="white"/>
<path d="M27.34 23.76L26.16 32.62H29.4V35.22H25.78L24.94 42H22.06L22.96 35.22H17.14L16.26 42H13.38L14.28 35.22H11.12V32.62H14.62L15.84 23.76H12.6V21.14H16.18L17.06 14.46H19.94L18.98 21.14H24.86L25.74 14.46H28.62L27.68 21.14H30.88V23.76H27.34ZM17.48 32.62H23.3L24.52 23.76H18.66L17.48 32.62Z" fill="white"/>
<path d="M78.4173 9.11514C77.8569 10.4587 77.1395 11.7312 76.2799 12.906C74.4034 11.0217 72.1711 9.52928 69.7127 8.51542C67.2544 7.50156 64.6189 6.98653 61.9597 7.00027C59.3005 7.01401 56.6706 7.55624 54.2228 8.59545C51.775 9.63466 49.5583 11.1501 47.7014 13.0537C45.8445 14.9573 44.3846 17.211 43.4065 19.6838C42.4283 22.1566 41.9516 24.7992 42.0039 27.458C42.0562 30.1167 42.6365 32.7385 43.7111 35.171C44.7857 37.6034 46.3331 39.798 48.2634 41.6271L49.0048 42.2816C51.8342 44.6656 55.2678 46.2205 58.926 46.7741C62.5841 47.3278 66.3242 46.8588 69.7323 45.4188C73.1404 43.9789 76.0837 41.6243 78.2367 38.6154C80.3897 35.6065 81.6683 32.0607 81.9312 28.3702C82.4782 23.2628 80.9785 16.7988 78.4179 9.11577L78.4173 9.11514ZM51.1172 41.7433C50.9037 42.0071 50.6167 42.2017 50.2927 42.3024C49.9686 42.403 49.6219 42.4053 49.2965 42.3089C48.9711 42.2125 48.6816 42.0218 48.4647 41.7608C48.2477 41.4999 48.1131 41.1804 48.0777 40.8429C48.0423 40.5054 48.1079 40.1649 48.2661 39.8647C48.4242 39.5644 48.6679 39.3178 48.9663 39.1561C49.2646 38.9944 49.6042 38.9248 49.9422 38.9561C50.2801 38.9874 50.6011 39.1183 50.8646 39.3321C51.2176 39.6186 51.4425 40.0334 51.4898 40.4855C51.5372 40.9376 51.4032 41.39 51.1172 41.7433ZM78.3347 35.7357C73.3836 42.331 62.8124 40.1054 56.0346 40.4255C56.0346 40.4255 54.833 40.4962 53.6234 40.6943C53.6234 40.6943 54.0797 40.5005 54.663 40.2799C59.4229 38.6232 61.6728 38.3044 64.5641 36.8166C70.0078 34.049 75.3928 27.9883 76.5118 21.6881C74.4407 27.7488 68.1518 32.9607 62.4273 35.0774C58.5039 36.5234 51.416 37.9318 51.416 37.9318L51.1303 37.7787C46.3079 35.4344 46.1592 24.9901 54.9293 21.6218C58.7696 20.1427 62.4436 20.9548 66.5908 19.9652C71.0193 18.913 76.143 15.5954 78.2278 11.2656C80.5596 18.1922 83.369 29.0335 78.3316 35.7401L78.3347 35.7357Z" fill="white"/>
</svg>
