<svg width="285" height="56" viewBox="0 0 285 56" fill="none" xmlns="http://www.w3.org/2000/svg">
    <rect width="285" height="56" rx="28" fill="#98353C" />
    <path
        d="M108.562 20.808V38H106.14V20.808H100.12V18.722H114.666L114.414 20.808H108.562ZM130.867 23.258L125.687 38.098C125.342 39.0967 124.903 40.0113 124.371 40.842C123.848 41.6727 123.162 42.3587 122.313 42.9C121.473 43.4507 120.404 43.7913 119.107 43.922L118.743 42.046C119.76 41.878 120.563 41.6213 121.151 41.276C121.739 40.9307 122.201 40.4873 122.537 39.946C122.882 39.4047 123.186 38.756 123.447 38H122.663L117.511 23.258H120.031L124.259 36.208L128.431 23.258H130.867ZM141.986 22.95C143.293 22.95 144.333 23.2673 145.108 23.902C145.892 24.5367 146.457 25.4327 146.802 26.59C147.147 27.738 147.32 29.082 147.32 30.622C147.32 32.106 147.11 33.4313 146.69 34.598C146.279 35.7553 145.654 36.6653 144.814 37.328C143.974 37.9907 142.915 38.322 141.636 38.322C140.021 38.322 138.724 37.7527 137.744 36.614V43.642L135.392 43.936V23.258H137.394L137.59 25.316C138.131 24.56 138.775 23.9767 139.522 23.566C140.278 23.1553 141.099 22.95 141.986 22.95ZM141.426 24.84C140.614 24.84 139.895 25.0873 139.27 25.582C138.654 26.0673 138.145 26.6087 137.744 27.206V34.514C138.127 35.0833 138.607 35.536 139.186 35.872C139.774 36.1987 140.418 36.362 141.118 36.362C142.341 36.362 143.26 35.8953 143.876 34.962C144.492 34.0287 144.8 32.5773 144.8 30.608C144.8 29.32 144.679 28.2513 144.436 27.402C144.193 26.5433 143.825 25.904 143.33 25.484C142.835 25.0547 142.201 24.84 141.426 24.84ZM154.029 31.462C154.076 32.6007 154.295 33.534 154.687 34.262C155.079 34.9807 155.597 35.5127 156.241 35.858C156.885 36.194 157.585 36.362 158.341 36.362C159.097 36.362 159.779 36.25 160.385 36.026C161.001 35.802 161.631 35.4707 162.275 35.032L163.381 36.586C162.691 37.1273 161.902 37.552 161.015 37.86C160.138 38.168 159.237 38.322 158.313 38.322C156.885 38.322 155.667 38 154.659 37.356C153.651 36.712 152.881 35.816 152.349 34.668C151.827 33.5107 151.565 32.1713 151.565 30.65C151.565 29.1567 151.831 27.8313 152.363 26.674C152.895 25.5167 153.642 24.6067 154.603 23.944C155.565 23.2813 156.699 22.95 158.005 22.95C159.247 22.95 160.315 23.244 161.211 23.832C162.107 24.4107 162.793 25.2413 163.269 26.324C163.755 27.3973 163.997 28.6807 163.997 30.174C163.997 30.426 163.993 30.664 163.983 30.888C163.974 31.1027 163.96 31.294 163.941 31.462H154.029ZM158.033 24.882C156.941 24.882 156.027 25.2693 155.289 26.044C154.561 26.8187 154.146 28.018 154.043 29.642H161.729C161.701 28.0647 161.356 26.8793 160.693 26.086C160.031 25.2833 159.144 24.882 158.033 24.882ZM181.178 32.666C181.178 33.7673 180.903 34.7473 180.352 35.606C179.802 36.4553 179.004 37.1227 177.958 37.608C176.913 38.084 175.639 38.322 174.136 38.322C172.727 38.322 171.448 38.1073 170.3 37.678C169.162 37.2487 168.186 36.642 167.374 35.858L168.816 34.234C169.488 34.8593 170.258 35.3587 171.126 35.732C171.994 36.096 173.012 36.278 174.178 36.278C174.962 36.278 175.695 36.152 176.376 35.9C177.058 35.6387 177.608 35.2467 178.028 34.724C178.448 34.192 178.658 33.52 178.658 32.708C178.658 32.0827 178.537 31.5507 178.294 31.112C178.052 30.6733 177.622 30.286 177.006 29.95C176.39 29.6047 175.532 29.2687 174.43 28.942C173.161 28.5687 172.06 28.1487 171.126 27.682C170.202 27.206 169.484 26.6227 168.97 25.932C168.466 25.2413 168.214 24.3873 168.214 23.37C168.214 22.4087 168.48 21.5547 169.012 20.808C169.544 20.0613 170.277 19.478 171.21 19.058C172.153 18.6287 173.236 18.414 174.458 18.414C175.793 18.414 176.95 18.6053 177.93 18.988C178.92 19.3613 179.816 19.9027 180.618 20.612L179.19 22.194C178.5 21.578 177.758 21.1347 176.964 20.864C176.171 20.584 175.364 20.444 174.542 20.444C173.842 20.444 173.198 20.5513 172.61 20.766C172.032 20.9713 171.565 21.284 171.21 21.704C170.865 22.1147 170.692 22.642 170.692 23.286C170.692 23.8367 170.842 24.3127 171.14 24.714C171.439 25.1153 171.943 25.484 172.652 25.82C173.362 26.1467 174.328 26.492 175.55 26.856C176.549 27.1453 177.473 27.5093 178.322 27.948C179.181 28.3773 179.872 28.9653 180.394 29.712C180.917 30.4493 181.178 31.434 181.178 32.666ZM192.423 36.292C193.161 36.292 193.847 36.1707 194.481 35.928C195.125 35.6853 195.718 35.3773 196.259 35.004L197.407 36.544C196.763 37.0947 195.989 37.5287 195.083 37.846C194.178 38.1633 193.291 38.322 192.423 38.322C190.958 38.322 189.707 38.0093 188.671 37.384C187.645 36.7493 186.861 35.8627 186.319 34.724C185.778 33.576 185.507 32.232 185.507 30.692C185.507 29.2173 185.778 27.8967 186.319 26.73C186.87 25.554 187.659 24.63 188.685 23.958C189.721 23.286 190.977 22.95 192.451 22.95C193.394 22.95 194.276 23.0947 195.097 23.384C195.928 23.664 196.689 24.0887 197.379 24.658L196.231 26.226C195.606 25.7873 194.976 25.4607 194.341 25.246C193.716 25.022 193.077 24.91 192.423 24.91C191.154 24.91 190.109 25.386 189.287 26.338C188.466 27.29 188.055 28.7413 188.055 30.692C188.055 31.9987 188.242 33.0673 188.615 33.898C188.998 34.7193 189.516 35.326 190.169 35.718C190.832 36.1007 191.583 36.292 192.423 36.292ZM202.688 38V36.194H204.984V25.064H202.688V23.258H206.776L207.21 26.744C207.78 25.5307 208.47 24.5927 209.282 23.93C210.094 23.2673 211.168 22.936 212.502 22.936C212.913 22.936 213.277 22.9687 213.594 23.034C213.921 23.09 214.252 23.1647 214.588 23.258L213.902 25.358C213.594 25.274 213.314 25.2133 213.062 25.176C212.81 25.1293 212.521 25.106 212.194 25.106C211.065 25.106 210.094 25.5073 209.282 26.31C208.47 27.1127 207.822 28.326 207.336 29.95V36.194H210.332V38H202.688ZM212.32 28.242V25.036L212.558 23.258H214.588L214.252 28.242H212.32ZM226.799 23.258V36.138H230.957V38H219.897V36.138H224.447V25.12H220.037V23.258H226.799ZM224.923 16.356C225.446 16.356 225.861 16.5147 226.169 16.832C226.487 17.1493 226.645 17.5367 226.645 17.994C226.645 18.47 226.487 18.8713 226.169 19.198C225.861 19.5153 225.446 19.674 224.923 19.674C224.429 19.674 224.023 19.5153 223.705 19.198C223.388 18.8713 223.229 18.47 223.229 17.994C223.229 17.5367 223.388 17.1493 223.705 16.832C224.023 16.5147 224.429 16.356 224.923 16.356ZM242.721 22.95C244.027 22.95 245.068 23.2673 245.843 23.902C246.627 24.5367 247.191 25.4327 247.537 26.59C247.882 27.738 248.055 29.082 248.055 30.622C248.055 32.106 247.845 33.4313 247.425 34.598C247.014 35.7553 246.389 36.6653 245.549 37.328C244.709 37.9907 243.649 38.322 242.371 38.322C240.756 38.322 239.459 37.7527 238.479 36.614V43.642L236.127 43.936V23.258H238.129L238.325 25.316C238.866 24.56 239.51 23.9767 240.257 23.566C241.013 23.1553 241.834 22.95 242.721 22.95ZM242.161 24.84C241.349 24.84 240.63 25.0873 240.005 25.582C239.389 26.0673 238.88 26.6087 238.479 27.206V34.514C238.861 35.0833 239.342 35.536 239.921 35.872C240.509 36.1987 241.153 36.362 241.853 36.362C243.075 36.362 243.995 35.8953 244.611 34.962C245.227 34.0287 245.535 32.5773 245.535 30.608C245.535 29.32 245.413 28.2513 245.171 27.402C244.928 26.5433 244.559 25.904 244.065 25.484C243.57 25.0547 242.935 24.84 242.161 24.84ZM264.62 37.258C264.116 37.594 263.504 37.8553 262.786 38.042C262.067 38.2287 261.362 38.322 260.672 38.322C259.085 38.322 257.862 37.9067 257.004 37.076C256.145 36.2453 255.716 35.1767 255.716 33.87V25.078H252.328V23.258H255.716V19.912L258.068 19.632V23.258H263.164L262.884 25.078H258.068V33.842C258.068 34.6633 258.282 35.2887 258.712 35.718C259.15 36.1473 259.874 36.362 260.882 36.362C261.432 36.362 261.941 36.2967 262.408 36.166C262.874 36.0353 263.308 35.8673 263.71 35.662L264.62 37.258Z"
        fill="white" />
    <path
        d="M32.34 23.76L31.16 32.62H34.4V35.22H30.78L29.94 42H27.06L27.96 35.22H22.14L21.26 42H18.38L19.28 35.22H16.12V32.62H19.62L20.84 23.76H17.6V21.14H21.18L22.06 14.46H24.94L23.98 21.14H29.86L30.74 14.46H33.62L32.68 21.14H35.88V23.76H32.34ZM22.48 32.62H28.3L29.52 23.76H23.66L22.48 32.62Z"
        fill="white" />
    <path
        d="M83.2891 9H52.7109C50.6614 9 49 10.6614 49 12.7109V43.2891C49 45.3386 50.6614 47 52.7109 47H83.2891C85.3386 47 87 45.3386 87 43.2891V12.7109C87 10.6614 85.3386 9 83.2891 9Z"
        fill="white" />
    <path fill-rule="evenodd" clip-rule="evenodd"
        d="M72.5273 39.2071V42.918C73.1285 43.2298 73.8633 43.4598 74.6797 43.6157C75.4961 43.7716 76.3867 43.8458 77.2773 43.8458C78.168 43.8458 78.9844 43.7641 79.8008 43.5934C80.6172 43.4227 81.2851 43.1407 81.8789 42.777C82.4801 42.3837 82.9922 41.8864 83.2891 41.2184C83.5859 40.5505 83.816 39.8083 83.816 38.8434C83.816 38.168 83.7121 37.5817 83.5117 37.0622C83.3113 36.5426 83.0219 36.0973 82.6211 35.7262C82.2426 35.3329 81.8047 34.984 81.2851 34.6872C80.7656 34.3903 80.1719 34.0786 79.5039 33.7965C79.0141 33.5962 78.6133 33.4032 78.168 33.2102C77.782 33.0173 77.448 32.8243 77.2031 32.6313C76.9285 32.4309 76.7207 32.2231 76.5723 32.0079C76.4238 31.7852 76.3496 31.5403 76.3496 31.2657C76.3496 31.0133 76.4157 30.7833 76.55 30.5755C76.6843 30.3676 76.8691 30.1969 77.1066 30.0485C77.3441 29.9001 77.641 29.7887 77.9973 29.7071C78.3461 29.6255 78.732 29.5883 79.1848 29.5883C79.4965 29.5883 79.823 29.6113 80.1496 29.6581C80.491 29.7049 80.8398 29.7769 81.1887 29.8733C81.5375 29.9698 81.8789 30.0886 82.2277 30.237C82.5543 30.3855 82.8586 30.5562 83.1184 30.7491V27.2608C82.5543 27.0456 81.9309 26.8823 81.2629 26.7784C80.5949 26.6745 79.8527 26.6226 78.9621 26.6226C78.0715 26.6226 77.2551 26.719 76.4387 26.9046C75.6223 27.0901 74.9543 27.387 74.3605 27.7952C73.7594 28.196 73.3215 28.6858 72.9504 29.3538C72.6016 29.9772 72.4309 30.6897 72.4309 31.5804C72.4309 32.6937 72.75 33.6585 73.3957 34.4007C74.034 35.2171 75.0285 35.8108 76.2902 36.4046C76.8023 36.6124 77.2551 36.8202 77.7004 37.0206C78.1457 37.221 78.5168 37.4288 78.8137 37.644C79.1328 37.8593 79.3851 38.0968 79.5559 38.3491C79.7414 38.6015 79.8379 38.8983 79.8379 39.2398C79.8379 39.4773 79.78 39.6999 79.6672 39.9077C79.5544 40.1155 79.3777 40.2937 79.1402 40.4421C78.9027 40.5905 78.6133 40.7093 78.2496 40.7983C77.9008 40.88 77.5074 40.9245 76.9879 40.9245C76.1715 40.9245 75.3551 40.7835 74.6129 40.5015C73.7965 40.2194 73.0543 39.7964 72.3863 39.2398L72.5273 39.2071ZM66.293 30.0782H71.043V27.0352H57.7578V30.0782H62.5078V43.6602H66.293V30.0782Z"
        fill="#98353C" />
</svg>