<svg width="205" height="56" viewBox="0 0 205 56" fill="none" xmlns="http://www.w3.org/2000/svg">
<rect width="205" height="56" rx="28" fill="#2D577A"/>
<path d="M27.34 23.76L26.16 32.62H29.4V35.22H25.78L24.94 42H22.06L22.96 35.22H17.14L16.26 42H13.38L14.28 35.22H11.12V32.62H14.62L15.84 23.76H12.6V21.14H16.18L17.06 14.46H19.94L18.98 21.14H24.86L25.74 14.46H28.62L27.68 21.14H30.88V23.76H27.34ZM17.48 32.62H23.3L24.52 23.76H18.66L17.48 32.62Z" fill="white"/>
<path d="M46.8574 42.6843C47.2875 42.6843 47.6365 42.3335 47.6365 41.9006C47.6365 41.4677 47.2875 41.1162 46.8574 41.1162C46.4285 41.1162 46.0795 41.4677 46.0795 41.9006C46.0795 42.3335 46.4285 42.6843 46.8574 42.6843Z" fill="white"/>
<path d="M107.116 48.823C107.546 48.823 107.895 48.4721 107.895 48.0396C107.895 47.6064 107.546 47.2549 107.116 47.2549C106.686 47.2549 106.338 47.6064 106.338 48.0396C106.338 48.4721 106.686 48.823 107.116 48.823Z" fill="white"/>
<path d="M70.2547 44.0732L70.2544 44.0705C70.2526 43.1968 69.9494 42.4597 69.3987 41.9618L69.36 41.9271L69.3512 41.9192H69.3492C68.8312 41.4744 68.1299 41.2398 67.298 41.2318C67.295 41.2312 67.2879 41.231 67.28 41.231C67.2723 41.231 67.2644 41.2312 67.2567 41.2322L67.2508 41.2318C67.2257 41.2318 67.2089 41.2325 67.1967 41.233C67.187 41.2325 67.1714 41.2318 67.1531 41.2318L67.1406 41.2322C67.1341 41.2315 67.1263 41.231 67.1161 41.231H67.1131C67.1141 41.231 67.1116 41.231 67.1089 41.231C67.1046 41.231 67.0989 41.231 67.0927 41.2318C66.2629 41.2409 65.564 41.4747 65.0475 41.9192H65.0451L64.9978 41.9618C64.4492 42.4576 64.146 43.1913 64.1421 44.0604L64.1418 44.0614L64.1409 44.0647L64.1367 48.5642C64.1367 48.6243 64.1622 48.6834 64.2071 48.7252C64.2519 48.7679 64.3148 48.7927 64.3779 48.7927H65.1787C65.2418 48.7927 65.3038 48.7679 65.3492 48.7252C65.3946 48.6834 65.4198 48.6243 65.4198 48.5642L65.4216 44.2166C65.4264 43.5796 65.5893 43.1281 65.8834 42.8298C66.1683 42.5409 66.6031 42.3777 67.2016 42.3661C67.7943 42.3777 68.2284 42.5409 68.5134 42.8298C68.8072 43.1281 68.9701 43.5796 68.9752 44.2179L68.9741 48.5642C68.9741 48.6243 68.9996 48.6834 69.0445 48.7252C69.0897 48.7679 69.1522 48.7927 69.2154 48.7927H70.0174C70.0806 48.7927 70.1428 48.7679 70.1879 48.7252C70.2337 48.6834 70.2587 48.6243 70.2587 48.5642L70.2547 44.0732Z" fill="white"/>
<path d="M98.177 44.0732L98.1768 44.0705C98.1749 43.1968 97.8717 42.4597 97.321 41.9618L97.2823 41.9271L97.2735 41.9192H97.2716C96.7536 41.4744 96.0522 41.2398 95.2204 41.2318C95.2173 41.2312 95.2103 41.231 95.2024 41.231C95.1947 41.231 95.1868 41.2312 95.1792 41.2322L95.1731 41.2318C95.1481 41.2318 95.1313 41.2325 95.1191 41.233C95.1093 41.2325 95.0937 41.2318 95.0755 41.2318L95.0629 41.2322C95.0565 41.2315 95.0486 41.231 95.0385 41.231H95.0355C95.0367 41.231 95.034 41.231 95.0312 41.231C95.027 41.231 95.0212 41.231 95.0151 41.2318C94.1852 41.2409 93.4864 41.4747 92.9699 41.9192H92.9674L92.9201 41.9618C92.3716 42.4576 92.0685 43.1913 92.0644 44.0604L92.0641 44.0614L92.0632 44.0647L92.0589 48.5642C92.0589 48.6243 92.0846 48.6834 92.1294 48.7252C92.1742 48.7679 92.2371 48.7927 92.3002 48.7927H93.101C93.1642 48.7927 93.2261 48.7679 93.2717 48.7252C93.3171 48.6834 93.342 48.6243 93.342 48.5642L93.3439 44.2166C93.3487 43.5796 93.5117 43.1281 93.8057 42.8298C94.0907 42.5409 94.5254 42.3777 95.124 42.3661C95.7167 42.3777 96.1508 42.5409 96.4358 42.8298C96.7295 43.1281 96.8924 43.5796 96.8976 44.2179L96.8964 48.5642C96.8964 48.6243 96.922 48.6834 96.9669 48.7252C97.012 48.7679 97.0745 48.7927 97.1377 48.7927H97.9398C98.0028 48.7927 98.0651 48.7679 98.1102 48.7252C98.156 48.6834 98.181 48.6243 98.181 48.5642L98.177 44.0732Z" fill="white"/>
<path d="M83.2049 45.0327V45.0486V45.0504V45.0669C83.2031 45.7834 83.1269 46.4836 82.8545 46.9848C82.5866 47.4668 82.1558 47.7888 81.3193 47.8016C81.3138 47.8009 81.305 47.8009 81.2882 47.8016H81.2742C80.4321 47.793 79.9956 47.4705 79.7265 46.984C79.4517 46.4809 79.3748 45.775 79.3748 45.0538V45.0105C79.3755 44.2941 79.4517 43.7193 79.7265 43.2185C79.9956 42.7319 80.4321 42.4089 81.2742 42.4012H81.28H81.2937H81.3065C82.1491 42.4089 82.5841 42.7313 82.8553 43.2194C83.1284 43.7193 83.2049 44.2941 83.2049 45.0105V45.0327ZM83.442 41.9994C83.4377 41.9943 83.4335 41.9891 83.4277 41.9839C82.9715 41.5633 82.2421 41.3026 81.3972 41.3017C81.3857 41.3002 81.3681 41.3002 81.3516 41.3002C80.6567 41.2999 79.9712 41.4451 79.3755 41.9552L79.3748 41.9556V41.508H79.376V39.2407C79.376 39.1809 79.3504 39.1221 79.3055 39.0802C79.2607 39.0379 79.1981 39.0132 79.1348 39.0132H78.3456C78.2827 39.0132 78.2205 39.0379 78.175 39.0802C78.1295 39.1221 78.1046 39.1809 78.1046 39.2407V41.508H78.1052V46.3214H78.1046V48.5764C78.1046 48.6362 78.1304 48.6951 78.175 48.7366C78.2201 48.7793 78.2827 48.8036 78.3461 48.8036H79.1351C79.1981 48.8036 79.2604 48.7793 79.3055 48.7366C79.3513 48.6951 79.3764 48.6362 79.3764 48.5764V48.1102C79.9029 48.699 80.6586 48.9019 81.3516 48.9016H81.4005C82.2436 48.8989 82.9731 48.6384 83.4277 48.2182C84.2778 47.4135 84.4722 46.1798 84.4749 45.033C84.4725 43.8924 84.2778 42.8012 83.442 41.9994Z" fill="white"/>
<path d="M61.9193 46.0596C61.9175 46.6614 61.7858 46.9939 61.6088 47.149C61.182 47.5428 60.6536 47.602 60.01 47.6032H60.003H59.991C59.3711 47.6041 58.9639 47.4965 58.7329 47.3293C58.5136 47.1706 58.4004 46.9439 58.395 46.5538V46.5361C58.3991 46.149 58.5167 45.9073 58.7384 45.7371C58.9706 45.5604 59.3614 45.4458 59.9466 45.4458H59.9516H61.9193V46.0596ZM63.2443 43.7401V43.7349C63.2446 42.972 62.9908 42.3179 62.4587 41.8808C61.9227 41.4406 61.1535 41.2337 60.1634 41.2334H60.1277H60.1143C59.0747 41.2303 58.2487 41.4567 57.62 42.1257L57.6176 42.1233L57.5816 42.1663C57.5343 42.2188 57.488 42.2728 57.4431 42.3305C57.4431 42.3305 57.4422 42.3317 57.4419 42.3322L57.3775 42.4085C57.3391 42.454 57.3202 42.5153 57.3281 42.5769C57.3348 42.6391 57.3662 42.6987 57.4141 42.7398L57.4505 42.7713C57.4644 42.788 57.4797 42.8036 57.4968 42.818L57.6374 42.9332L58.0115 43.2569C58.0593 43.2987 58.1225 43.321 58.1838 43.3179C58.2445 43.3155 58.3018 43.2877 58.34 43.2419L58.5804 42.9567C58.73 42.7942 58.8836 42.6788 59.0694 42.5977C59.3318 42.4824 59.6685 42.4287 60.1549 42.4241H60.1607L60.1772 42.4231C60.869 42.425 61.2994 42.5656 61.546 42.7819C61.7918 42.9949 61.9166 43.3164 61.9185 43.8165C61.9185 43.8198 61.9185 43.8286 61.9193 43.8399V44.3115H59.865C59.0362 44.3133 58.343 44.5007 57.8428 44.8909C57.3458 45.2725 57.0688 45.8601 57.0685 46.5443L57.0688 46.5702C57.07 47.1404 57.2842 47.6996 57.6734 48.088C58.1994 48.6063 58.8997 48.7945 59.9581 48.7945H59.9699H60.5063C61.4755 48.7955 62.1707 48.5559 62.6186 48.073C63.0655 47.5901 63.2446 46.8918 63.2446 46.0232V43.7533L63.2443 43.7401Z" fill="white"/>
<path d="M86.3255 46.5671V46.5495C86.3296 46.1629 86.4472 45.9213 86.6691 45.7514C86.9012 45.5744 87.2921 45.4601 87.8772 45.4601H87.8824H89.85V46.0732C89.8482 46.6748 89.7164 47.007 89.5394 47.1623C89.1126 47.5555 88.5843 47.6147 87.9403 47.6162H87.9332H87.9217C87.3015 47.6168 86.8945 47.5095 86.6636 47.342C86.444 47.1836 86.3311 46.9573 86.3255 46.5671ZM91.1749 43.7553V43.7501C91.1752 42.9874 90.9214 42.334 90.3891 41.8971C89.8536 41.4572 89.0843 41.2504 88.0944 41.25H88.0584H88.045C87.005 41.2474 86.1795 41.4733 85.551 42.1418L85.5483 42.1397L85.5123 42.1827C85.465 42.2348 85.4186 42.2891 85.3734 42.3465C85.3732 42.3471 85.3729 42.3477 85.3725 42.3484L85.3082 42.4246C85.2697 42.47 85.2508 42.5314 85.2588 42.593C85.2655 42.655 85.2969 42.7144 85.3448 42.7559L85.3811 42.7873C85.3951 42.8038 85.4104 42.8194 85.4274 42.8336L85.568 42.949L85.9421 43.2724C85.99 43.3139 86.0532 43.3364 86.1142 43.3334C86.1752 43.3309 86.2322 43.3031 86.2706 43.2575L86.5107 42.9725C86.6605 42.8101 86.8143 42.6946 87.0001 42.6134C87.2625 42.4984 87.5992 42.4444 88.0855 42.4401L88.0913 42.4398L88.1078 42.4392C88.7997 42.4408 89.2301 42.5817 89.4766 42.7976C89.7225 43.0103 89.8469 43.3318 89.8491 43.8315C89.8491 43.8349 89.8491 43.8438 89.85 43.855V44.3264H87.7957C86.9668 44.3282 86.2738 44.5152 85.7733 44.9054C85.2764 45.2868 84.9995 45.874 84.9991 46.5579L84.9995 46.5838C85.0007 47.1538 85.2147 47.7124 85.6041 48.1003C86.13 48.6184 86.8305 48.8067 87.8888 48.8067H87.9006H88.437C89.4062 48.8075 90.1013 48.568 90.5492 48.0854C90.9961 47.6031 91.1752 46.9051 91.1752 46.0372V43.7684L91.1749 43.7553Z" fill="white"/>
<path d="M50.9013 41.2596H49.5481L49.5476 39.8879H49.547L49.5466 39.2242C49.5466 39.1051 49.4423 39.0078 49.3135 39.0078H48.5C48.4387 39.0078 48.3782 39.0307 48.3355 39.071C48.2919 39.1115 48.2663 39.1677 48.2663 39.2242V40.4471H48.2669V46.8767C48.2675 47.399 48.4179 47.8692 48.7486 48.2254C49.0637 48.5702 49.5743 48.7852 50.1644 48.7852H50.1666H50.5585V48.7804H50.9013C50.9609 48.7804 51.0191 48.7544 51.0607 48.7093C51.1031 48.6641 51.1271 48.6014 51.1271 48.5372V47.7425C51.1271 47.679 51.1031 47.6162 51.0607 47.5708C51.0191 47.5251 50.9609 47.4997 50.9013 47.4997H50.2725C50.1451 47.4948 50.0429 47.4793 49.9539 47.4478C49.8971 47.4283 49.862 47.4064 49.8294 47.3856C49.7934 47.3602 49.7736 47.3481 49.7382 47.3111C49.6171 47.1845 49.55 46.9841 49.5481 46.6854V42.5406H50.9013C50.9609 42.5406 51.0191 42.5146 51.0607 42.4694C51.1031 42.4239 51.1271 42.3612 51.1271 42.2974V41.5024C51.1271 41.439 51.1031 41.3764 51.0607 41.3306C51.0191 41.2849 50.9609 41.2596 50.9013 41.2596Z" fill="white"/>
<path d="M56.737 42.1983L56.6619 42.1148C56.6588 42.1049 56.6533 42.0959 56.6442 42.0863L56.5988 42.0397L56.5365 41.975L56.4852 41.9179L56.4831 41.9201C56.0228 41.4357 55.4498 41.2316 54.8397 41.231C54.8272 41.231 54.8125 41.2313 54.7918 41.2316C54.3586 41.2316 53.8473 41.4263 53.5404 41.7956L53.329 42.0468V41.9417V41.4854C53.329 41.4256 53.3034 41.3667 53.2586 41.3252C53.2134 41.2825 53.1509 41.2581 53.0874 41.2581H52.2988C52.2354 41.2581 52.1731 41.2825 52.1279 41.3252C52.0825 41.3667 52.0575 41.4256 52.0575 41.4854V41.9417V48.5675C52.0575 48.6277 52.0831 48.6862 52.1279 48.728C52.1727 48.7707 52.2354 48.7951 52.2988 48.7951H52.4348C52.4391 48.7954 52.4437 48.7963 52.448 48.7963H52.9449C52.9496 48.7963 52.9538 48.7954 52.9584 48.7951H53.0878C53.1509 48.7951 53.213 48.7707 53.2586 48.728C53.304 48.6862 53.329 48.6277 53.329 48.5675V48.4449C53.329 48.4433 53.3293 48.4418 53.3293 48.4403V44.2386C53.3293 44.2331 53.329 44.228 53.329 44.2224V43.8823C53.3529 43.4918 53.4766 43.1401 53.6799 42.8847C53.8976 42.6121 54.2167 42.435 54.6472 42.4338C54.875 42.4338 55.0249 42.461 55.1546 42.5149C55.2796 42.5696 55.4072 42.6629 55.5746 42.8356L55.6125 42.8746L55.7839 43.0656C55.8242 43.1108 55.8831 43.1373 55.945 43.1378C56.0072 43.1392 56.0704 43.1147 56.118 43.0714L56.7092 42.5333C56.7564 42.4903 56.7866 42.4296 56.7919 42.3664C56.7979 42.3042 56.7771 42.2432 56.737 42.1983Z" fill="white"/>
<path d="M76.6138 44.9211C76.6107 44.9187 76.607 44.9169 76.6043 44.9147H76.6034C76.1428 44.5932 75.5595 44.4812 74.9314 44.4275L73.7538 44.3283C73.2639 44.2873 72.9603 44.1853 72.784 44.0467C72.6345 43.9327 72.5418 43.7487 72.539 43.466V43.4596H72.5381L72.539 43.4448C72.5418 43.1103 72.6717 42.8672 72.9027 42.7021C73.1488 42.5245 73.5436 42.4114 74.1018 42.4108H74.1065H74.1073C74.8196 42.412 75.4088 42.5782 75.9002 42.8939L75.8996 42.8949L76.1983 43.1045C76.2459 43.138 76.3069 43.1505 76.3654 43.1368C76.4249 43.124 76.479 43.0871 76.5143 43.0358L76.9542 42.3946C76.9897 42.343 77.0049 42.2784 76.9964 42.2182C76.9918 42.185 76.9789 42.1539 76.9606 42.1267C76.9445 42.0956 76.9213 42.0676 76.8908 42.0458L76.8402 42.0096C76.1382 41.5092 75.1592 41.2285 74.104 41.2271C73.259 41.2274 72.5381 41.4305 72.0149 41.8196C71.496 42.2021 71.191 42.7805 71.1906 43.4388L71.191 43.448V43.4523L71.1906 43.4699C71.1906 44.052 71.4063 44.5663 71.8371 44.9169C72.2722 45.2729 72.8847 45.4626 73.6561 45.5248L74.8664 45.6227C75.3099 45.6634 75.5872 45.7619 75.7504 45.8986C75.8929 46.0142 75.9838 46.1976 75.9847 46.4898V46.5057V46.5081C75.9814 46.8766 75.8331 47.1307 75.5562 47.3071C75.259 47.4955 74.7757 47.6109 74.104 47.6109H74.0994C74.097 47.6109 74.0927 47.6112 74.0869 47.6118H74.0808C73.1946 47.6075 72.5646 47.4083 72.0743 47.0032L71.8191 46.7873C71.7733 46.7485 71.7126 46.7302 71.6513 46.7384C71.59 46.7463 71.5313 46.7787 71.4908 46.8278L70.984 47.4404C70.9431 47.4895 70.9219 47.5538 70.9255 47.6161C70.9283 47.6778 70.9566 47.7357 71.0024 47.7742L71.2428 47.9776L71.2419 47.9788C71.2467 47.9825 71.2516 47.9855 71.2563 47.9892L71.2876 48.0155L71.2898 48.0131C72.0338 48.5517 72.9624 48.8096 74.0994 48.8096H74.1195C75.057 48.8086 75.8481 48.6054 76.4252 48.207C76.9957 47.8141 77.3359 47.2076 77.335 46.5081V46.4732C77.3362 45.768 77.0629 45.2363 76.6138 44.9211Z" fill="white"/>
<path d="M105.663 48.4807L104.676 47.0874L102.698 44.1991L104.235 42.5662L105.13 41.6203L105.185 41.5599C105.288 41.4559 105.237 41.3476 105.192 41.306C105.148 41.2635 105.085 41.2387 105.022 41.2387H103.994C103.933 41.2387 103.854 41.2859 103.809 41.3259C103.808 41.3262 103.81 41.3256 103.809 41.3259L100.357 45.0069V41.9308V39.2164C100.357 39.1566 100.332 39.0977 100.287 39.0559C100.242 39.0132 100.179 38.9888 100.116 38.9888H99.3269C99.2638 38.9888 99.2015 39.0132 99.1564 39.0559C99.1107 39.0977 99.0856 39.1566 99.0856 39.2164V41.9308V48.5691C99.0856 48.6289 99.1113 48.6881 99.1561 48.73C99.2012 48.7723 99.2638 48.797 99.3273 48.797H100.116C100.179 48.797 100.242 48.7723 100.287 48.73C100.332 48.6881 100.357 48.6289 100.357 48.5691V46.6811L101.853 45.0605L102.859 46.5663H102.854L104.269 48.6805C104.302 48.7275 104.354 48.8019 104.472 48.8019H105.5C105.564 48.8019 105.626 48.7772 105.671 48.7344C105.716 48.6926 105.746 48.5847 105.663 48.4807Z" fill="white"/>
<path d="M96.8274 39.0601H96.9667L97.1739 39.6699L97.3813 39.0601H97.5189V39.7816H97.4262V39.3547C97.4262 39.3398 97.4268 39.3172 97.4268 39.2819C97.4268 39.2477 97.4289 39.2129 97.4289 39.173L97.2221 39.7816H97.1247L96.9183 39.173V39.1943V39.2745C96.9198 39.3127 96.9198 39.3386 96.9198 39.3547V39.7816H96.8274V39.0601Z" fill="white"/>
<path d="M98.255 39.3899C98.299 39.3899 98.3347 39.3813 98.3618 39.3627C98.3857 39.3459 98.4003 39.3127 98.4003 39.2629C98.4003 39.2129 98.3828 39.1769 98.345 39.158C98.3252 39.1479 98.299 39.1433 98.2676 39.1433H98.0339V39.3899H98.255ZM97.9366 39.0601H98.266C98.3201 39.0601 98.3655 39.0677 98.399 39.0842C98.4662 39.1137 98.4987 39.1705 98.4987 39.2538C98.4987 39.2967 98.4914 39.3322 98.4728 39.3603C98.4536 39.3868 98.4289 39.4106 98.3963 39.4271C98.4247 39.4393 98.4479 39.4533 98.4619 39.4719C98.475 39.4905 98.483 39.5219 98.483 39.5637L98.4884 39.6589C98.4884 39.6876 98.4921 39.7077 98.4948 39.7214C98.5016 39.7429 98.5116 39.7577 98.5269 39.7638V39.7816H98.4073C98.4039 39.7739 98.4024 39.7666 98.399 39.7577C98.3963 39.7477 98.3956 39.7288 98.3951 39.7007L98.3884 39.5799C98.385 39.532 98.3694 39.5004 98.3374 39.4848C98.3201 39.4761 98.2893 39.4719 98.2508 39.4719H98.0339V39.7816H97.9366V39.0601Z" fill="white"/>
<path d="M97.7236 39.7606C97.7006 39.7606 97.6847 39.7434 97.6847 39.7171C97.6847 39.6907 97.7011 39.6729 97.7261 39.6729C97.7497 39.6729 97.7666 39.6907 97.7666 39.7171C97.7666 39.7434 97.7497 39.7606 97.7236 39.7606Z" fill="white"/>
<path d="M98.7112 39.7606C98.6874 39.7606 98.6699 39.7434 98.6699 39.7171C98.6699 39.6907 98.6874 39.6729 98.7122 39.6729C98.7372 39.6729 98.7535 39.6907 98.7535 39.7171C98.7535 39.7434 98.7372 39.7606 98.7117 39.7606H98.7112Z" fill="white"/>
<path d="M114.05 20.9847V21.0321V21.0374V21.0872C114.044 23.228 113.817 25.32 113.003 26.817C112.203 28.2575 110.916 29.2194 108.416 29.2576C108.4 29.2553 108.373 29.2553 108.323 29.2576H108.282C105.765 29.2323 104.462 28.2682 103.657 26.8148C102.836 25.3115 102.606 23.2021 102.606 21.0482V20.9182C102.608 18.7781 102.836 17.0608 103.657 15.5645C104.462 14.1102 105.765 13.1453 108.282 13.1224H108.298H108.34H108.378C110.896 13.1453 112.195 14.1088 113.006 15.5675C113.821 17.0608 114.05 18.7781 114.05 20.9182V20.9847ZM114.759 11.922C114.746 11.9068 114.733 11.8907 114.716 11.8754C113.353 10.6184 111.174 9.84006 108.649 9.83765C108.615 9.83318 108.562 9.83318 108.513 9.83318C106.437 9.83241 104.388 10.2659 102.608 11.7897L102.606 11.7912V10.454H102.61V3.67972C102.61 3.5008 102.533 3.32491 102.4 3.20024C102.266 3.07331 102.079 3 101.889 3H99.5309C99.3435 3 99.1577 3.07331 99.0217 3.20024C98.8863 3.32491 98.8114 3.5008 98.8114 3.67972V10.454H98.8129V24.8352H98.8114V31.5728C98.8114 31.7517 98.8886 31.9276 99.0217 32.0514C99.157 32.1791 99.3435 32.2518 99.5331 32.2518H101.89C102.079 32.2518 102.265 32.1791 102.4 32.0514C102.537 31.9276 102.611 31.7517 102.611 31.5728V30.1797C104.184 31.9391 106.442 32.5454 108.513 32.5446H108.659C111.178 32.5361 113.357 31.7579 114.716 30.5023C117.256 28.0977 117.836 24.4116 117.844 20.9855C117.838 17.5777 117.256 14.3175 114.759 11.922Z" fill="white"/>
<path d="M135.77 21.4398C135.77 23.5799 135.541 25.2972 134.726 26.7905C133.914 28.2493 132.615 29.2128 130.098 29.2356H130.059H130.018H130.001C127.485 29.2128 126.181 28.2478 125.377 26.7936C124.556 25.2972 124.328 23.5799 124.326 21.4398V21.3099C124.326 19.1561 124.556 17.0465 125.377 15.5433C126.181 14.0898 127.485 13.1257 130.001 13.1005H130.042C130.093 13.1028 130.12 13.1028 130.136 13.1005C132.635 13.1387 133.922 14.1005 134.723 15.5411C135.537 17.0381 135.764 19.13 135.77 21.2709V21.3206V21.326V21.3734V21.4398ZM136.478 30.436C138.975 28.0405 139.557 24.7804 139.564 21.3726C139.556 17.9465 138.975 14.2604 136.435 11.8557C135.077 10.6002 132.898 9.82185 130.378 9.81348H130.233C128.162 9.81271 125.904 10.419 124.331 12.1784V10.7852C124.331 10.6063 124.256 10.4305 124.119 10.3066C123.985 10.179 123.799 10.1063 123.609 10.1063H121.253C121.063 10.1063 120.877 10.179 120.741 10.3066C120.608 10.4305 120.531 10.6063 120.531 10.7852V17.5229H120.532V31.9041H120.531V38.6784C120.531 38.8573 120.606 39.0331 120.741 39.1577C120.877 39.2847 121.063 39.3581 121.25 39.3581H123.608C123.799 39.3581 123.985 39.2847 124.119 39.1577C124.253 39.0331 124.33 38.8573 124.33 38.6784V31.9041H124.326V30.5669L124.328 30.5684C126.108 32.0922 128.156 32.5257 130.233 32.5249C130.282 32.5249 130.335 32.5249 130.368 32.5203C132.894 32.518 135.073 31.7396 136.435 30.4827C136.452 30.4674 136.465 30.4513 136.478 30.436Z" fill="white"/>
<path d="M170.308 34.3064C170.1 34.868 169.728 35.7744 169.48 36.3191C169.48 36.3191 169.032 37.3062 168.396 37.943C167.815 38.5237 167.151 38.9247 166.403 39.1467C165.656 39.3679 165.165 39.4025 165.165 39.4025C164.568 39.4439 163.696 39.4785 163.228 39.4785C162.76 39.4785 162.377 38.9884 162.377 38.3901V36.7899C162.377 36.1916 162.62 35.7014 162.917 35.7014C163.214 35.7014 163.944 35.6507 164.539 35.5892C164.539 35.5892 164.993 35.5416 165.407 35.2236C165.823 34.9041 166.033 34.4463 166.033 34.4463C166.282 33.9016 166.65 32.9943 166.85 32.4298L167.286 31.1992C167.485 30.6345 167.48 29.7127 167.275 29.1504L160.676 11.1153C160.47 10.5529 160.792 10.0928 161.391 10.0928H163.697C164.295 10.0928 164.943 10.5568 165.135 11.1236L169.457 23.8792C169.65 24.4469 169.96 24.4454 170.149 23.8769L174.363 11.1268C174.551 10.5575 175.195 10.0928 175.794 10.0928H178.14C178.739 10.0928 179.059 10.5521 178.853 11.1144L170.308 34.3064Z" fill="white"/>
<path d="M145.184 25.7473V25.6954C145.196 24.554 145.544 23.8408 146.199 23.3386C146.884 22.8167 148.038 22.479 149.766 22.479H149.78H155.591V24.2895C155.586 26.0654 155.196 27.047 154.674 27.5051C153.414 28.6662 151.854 28.8409 149.952 28.8457H149.932H149.897C148.066 28.8472 146.864 28.5308 146.182 28.0356C145.534 27.5681 145.201 26.8998 145.184 25.7473ZM159.504 17.4449V17.4291C159.505 15.1779 158.755 13.2476 157.183 11.9574C155.602 10.6586 153.33 10.0485 150.407 10.0469H150.301H150.261C147.19 10.039 144.753 10.7065 142.897 12.6801L142.889 12.6737L142.782 12.8013C142.643 12.9548 142.506 13.1153 142.372 13.2846C142.371 13.2862 142.371 13.2885 142.37 13.2901L142.18 13.5153C142.066 13.6498 142.01 13.8309 142.034 14.0127C142.053 14.1955 142.146 14.371 142.288 14.4938L142.395 14.5866C142.436 14.6354 142.482 14.681 142.532 14.7228L142.947 15.0636L144.052 16.0185C144.193 16.1413 144.38 16.2082 144.56 16.1988C144.74 16.1917 144.908 16.1098 145.022 15.9744L145.73 15.1329V15.1322C146.173 14.6536 146.627 14.3127 147.176 14.0726C147.95 13.7333 148.944 13.5743 150.381 13.5609L150.398 13.5601L150.446 13.5586C152.49 13.5632 153.761 13.9789 154.489 14.6173C155.214 15.2447 155.583 16.1949 155.588 17.6701C155.588 17.6795 155.588 17.7062 155.591 17.7392V19.1311H149.525C147.077 19.1366 145.031 19.6892 143.554 20.8408C142.086 21.9673 141.268 23.7007 141.267 25.7206L141.268 25.7969C141.272 27.48 141.904 29.1291 143.054 30.2753C144.606 31.8047 146.675 32.3604 149.8 32.3604H149.835H151.419C154.281 32.3637 156.334 31.6559 157.656 30.2311C158.976 28.8071 159.505 26.7454 159.505 24.1832V17.4834L159.504 17.4449Z" fill="white"/>
<path d="M74.456 10.1382C73.8299 10.1382 73.179 10.631 73.0081 11.2321L68.8867 25.7679C68.716 26.3701 68.4162 26.3763 68.2205 25.7818L63.4273 11.2184C63.2323 10.6245 62.5605 10.1382 61.9345 10.1382H61.0749C60.4493 10.1382 59.7786 10.6246 59.5843 11.2194L54.829 25.781C54.6347 26.3757 54.3346 26.3709 54.1628 25.7689L50.0046 11.2324C49.8324 10.6305 49.1794 10.1382 48.5533 10.1382H46.8021C46.1769 10.1382 45.8197 10.6261 46.0083 11.2225L52.3682 31.2812C52.5576 31.8768 53.2238 32.3656 53.8498 32.3656H55.0525C55.611 32.3656 56.2131 31.9324 56.3905 31.4028L61.1447 17.2147C61.3437 16.6216 61.6697 16.6216 61.8702 17.214L66.6225 31.2877C66.8232 31.88 67.4989 32.3656 68.1242 32.3656H69.2883C69.8677 32.3656 70.4843 31.9134 70.6584 31.3607L77.0027 11.2233C77.1904 10.6261 76.8325 10.1382 76.2072 10.1382L74.456 10.1382Z" fill="white"/>
<path d="M96.1169 20.5515C96.1169 13.9543 92.6165 9.85596 86.9822 9.85596C81.2627 9.85596 77.848 14.0817 77.848 21.1593C77.848 28.4479 81.2922 32.4625 87.5459 32.4625C91.4304 32.4625 93.5143 31.1594 95.6177 29.0572L95.8974 28.7775L93.213 26.421L92.9672 26.6661C91.2532 28.38 89.8571 28.987 87.633 28.987C83.9294 28.987 81.8317 26.633 81.7185 22.3544H96.1169V20.5515ZM81.734 19.2695C81.8121 17.8866 81.912 17.2676 82.335 16.2285C83.1124 14.3879 84.8932 13.2447 86.9822 13.2447C89.071 13.2447 90.8513 14.3871 91.6283 16.2254C92.0525 17.2676 92.1521 17.8866 92.2305 19.2695H81.734Z" fill="white"/>
<path d="M41.2594 14.7441C42.5079 14.7441 43.5218 13.725 43.5218 12.4679C43.5218 11.2109 42.5079 10.1909 41.2594 10.1909C40.0138 10.1909 39 11.2109 39 12.4679C39 13.725 40.0138 14.7441 41.2594 14.7441Z" fill="white"/>
<path d="M178.738 32.3557C179.987 32.3557 181 31.3364 181 30.0803C181 28.8224 179.987 27.8018 178.738 27.8018C177.491 27.8018 176.48 28.8224 176.48 30.0803C176.48 31.3364 177.491 32.3557 178.738 32.3557Z" fill="white"/>
</svg>
