<svg width="100" height="40" viewBox="0 0 400 148" fill="none" xmlns="http://www.w3.org/2000/svg">
<g>
<path fill-rule="evenodd" clip-rule="evenodd" d="M55.5233 78.6423H63.1742V48.3331L75.1227 74.7588C76.4761 77.9353 78.4204 79.1119 82.1852 79.1119C85.9499 79.1119 87.7782 77.9339 89.1765 74.7588L101.066 48.3331V78.6423H108.776V48.3331C108.776 45.3915 107.598 43.9761 105.126 43.211C99.2993 41.446 95.4145 42.9762 93.6496 46.9177L81.9385 73.0493L70.6377 46.9177C68.9308 42.9762 64.9866 41.446 59.1021 43.211C56.6881 43.9761 55.5115 45.3902 55.5115 48.3331L55.5101 78.6423H55.5233ZM115.144 53.9829H122.855V70.6393C122.797 71.5798 123.149 73.6996 127.34 73.7563C129.516 73.8157 143.937 73.7563 144.053 73.7563V53.8641H151.763V81.1143C151.763 87.8233 143.453 89.2928 139.58 89.3535H115.334V84.2353H139.642C144.586 83.705 143.997 81.2343 143.997 80.4099V78.4075H127.693C120.1 78.3481 115.214 74.9936 115.158 71.1682V53.9802L115.144 53.9829Z" fill="#00678C"/>
<path fill-rule="evenodd" clip-rule="evenodd" d="M340.921 65.698C336.214 65.5793 332.563 66.0515 329.502 67.3469C328.621 67.7031 327.207 67.7031 327.091 68.819C327.562 69.2873 327.619 70.0537 328.031 70.7027C328.737 71.8807 329.975 73.4676 331.092 74.2907C332.329 75.2339 333.565 76.1744 334.858 76.9988C337.153 78.4103 339.743 79.2347 341.978 80.6475C343.274 81.4719 344.568 82.5312 345.863 83.415C346.523 83.8859 346.922 84.6523 347.747 84.9452V84.7671C347.335 84.2394 347.217 83.4743 346.806 82.8834C346.217 82.2964 345.628 81.7648 345.039 81.1778C343.333 78.8825 341.213 76.8801 338.918 75.2339C337.034 73.9385 332.916 72.1735 332.151 69.997L332.035 69.8783C333.328 69.7596 334.858 69.2886 336.095 68.9351C338.098 68.4075 339.921 68.5236 341.978 67.9946C342.922 67.7571 343.862 67.4643 344.805 67.1701V66.6425C343.746 65.5833 342.981 64.1705 341.864 63.1706C338.863 60.5812 335.565 58.0498 332.151 55.9313C330.327 54.7547 327.972 53.9883 326.03 52.9897C325.322 52.6362 324.147 52.4594 323.735 51.8711C322.673 50.5784 322.086 48.8701 321.321 47.3386C319.616 44.1016 317.967 40.5122 316.496 37.0984C315.437 34.8031 314.788 32.5079 313.495 30.3894C307.432 20.384 300.839 14.3226 290.716 8.3774C288.54 7.1414 285.951 6.6098 283.198 5.96344L278.784 5.726C277.841 5.31443 276.9 4.19583 276.076 3.66554C272.721 1.54705 264.069 -3.04345 261.596 3.01918C260.006 6.8446 263.95 10.6107 265.289 12.5537C266.292 13.9071 267.585 15.4373 268.293 16.9675C268.689 17.9673 268.821 19.0279 269.233 20.0871C270.174 22.6766 271.058 25.5615 272.294 27.9754C272.953 29.2114 273.646 30.5081 274.47 31.6254C274.941 32.2718 275.766 32.5672 275.941 33.6265C275.117 34.8045 275.06 36.5681 274.589 38.0416C272.469 44.6925 273.294 52.9317 276.295 57.815C277.238 59.2858 279.461 62.5242 282.476 61.2869C285.125 60.2277 284.534 56.8732 285.299 53.9302C285.477 53.2245 285.358 52.7536 285.71 52.2813V52.4001L288.124 57.2847C289.949 60.1683 293.128 63.1706 295.775 65.173C297.187 66.2323 298.305 68.0579 300.07 68.7043V68.5262H299.954C299.601 67.9986 299.07 67.7611 298.599 67.3495C297.54 66.2903 296.364 64.9949 295.539 63.8183C293.068 60.5232 290.892 56.8732 288.949 53.1071C288.006 51.2828 287.181 49.2817 286.419 47.4574C286.063 46.7503 286.063 45.6898 285.476 45.3389C284.592 46.6316 283.299 47.7528 282.649 49.3411C281.53 51.8711 281.414 54.9908 281.003 58.2279C280.765 58.2873 280.871 58.2279 280.765 58.3466C278.884 57.877 278.235 55.9326 277.529 54.2864C275.764 50.1075 275.469 43.3985 276.999 38.5718C277.411 37.3358 279.178 33.451 278.473 32.2744C278.116 31.1558 276.942 30.5094 276.293 29.6256C275.528 28.507 274.706 27.0956 274.176 25.8596C272.765 22.5618 272.059 18.9145 270.528 15.618C269.819 14.0878 268.584 12.4983 267.583 11.0869C266.465 9.49733 265.231 8.37873 264.347 6.49636C264.053 5.84999 263.642 4.78942 264.113 4.08238C264.229 3.61146 264.466 3.43602 264.934 3.3173C265.7 2.67094 267.879 3.49406 268.644 3.84494C270.82 4.72874 272.645 5.55187 274.469 6.78656C275.293 7.37488 276.177 8.49349 277.237 8.78897H278.474C280.358 9.20053 282.475 8.90769 284.238 9.43533C287.358 10.4379 290.182 11.9073 292.715 13.4982C300.424 18.3829 306.782 25.328 311.077 33.6278C311.783 34.9812 312.077 36.2172 312.726 37.63C313.963 40.5149 315.493 43.4565 316.727 46.2834C317.964 49.0495 319.141 51.8764 320.906 54.1716C321.789 55.4076 325.319 56.054 326.908 56.7017C328.086 57.2293 329.909 57.7042 330.97 58.3506C332.97 59.5866 334.971 60.9993 336.854 62.3528C337.794 63.0572 340.738 64.5293 340.914 65.7033L340.921 65.698ZM280.901 14.5535C280.088 14.5463 279.277 14.6452 278.49 14.8476V14.9664H278.606C279.077 15.9082 279.901 16.5559 280.489 17.3803L281.844 20.2059L281.96 20.0871C282.785 19.4988 283.198 18.557 283.198 17.1455C282.844 16.734 282.786 16.3211 282.492 15.9095C282.138 15.3212 281.373 15.0257 280.901 14.5561V14.5535Z" fill="#00678C"/>
<path fill-rule="evenodd" clip-rule="evenodd" d="M157.638 78.6422H179.768C182.357 78.6422 184.83 78.1145 186.83 77.1714C190.185 75.6412 191.774 73.5834 191.774 70.8752V65.2255C191.774 63.049 189.95 60.9872 186.302 59.5757C184.419 58.87 182.064 58.4571 179.769 58.4571H170.469C167.349 58.4571 165.879 57.514 165.466 55.4562C165.408 55.2214 165.408 54.9852 165.408 54.7504V51.2772C165.408 51.0991 165.408 50.8657 165.466 50.6309C165.877 49.0413 166.702 48.6284 169.423 48.3356H192.081V43.2135H170.54C167.421 43.2135 165.773 43.3916 164.301 43.8625C159.769 45.2739 157.767 47.5112 157.767 51.4527V55.9284C157.767 59.3977 161.652 62.3432 168.244 63.049C168.95 63.1083 169.715 63.1083 170.48 63.1083H178.426C178.72 63.1083 179.013 63.1083 179.248 63.1677C181.662 63.4025 182.721 63.814 183.427 64.6952C183.898 65.1661 184.016 65.579 184.016 66.1093V70.5811C184.016 71.1087 183.663 71.8184 182.957 72.4054C182.251 72.9924 181.13 73.4053 179.659 73.4647C179.365 73.4647 179.191 73.524 178.894 73.524H157.638V78.6422ZM239.68 69.7566C239.68 74.9935 243.638 77.9351 251.513 78.5261C252.278 78.5854 252.983 78.6422 253.749 78.6422H273.759V73.524H253.573C249.097 73.524 247.392 72.4054 247.392 69.6986V43.2135H239.666V69.758L239.68 69.7566ZM196.657 69.9901V51.7468C196.657 47.097 199.953 44.2701 206.37 43.3889C207.076 43.3296 207.782 43.2702 208.428 43.2702H223.023C223.788 43.2702 224.437 43.3296 225.202 43.3889C231.617 44.2701 234.852 47.0956 234.852 51.7468V69.9901C234.852 73.7562 233.5 75.7586 230.32 77.1133L237.852 83.9384H228.966L222.846 78.4074L216.664 78.7609H208.425C206.916 78.7534 205.413 78.5562 203.952 78.1739C199.071 76.8178 196.657 74.2297 196.657 69.9901ZM204.955 69.5812C204.955 69.816 205.087 70.0495 205.133 70.3463C205.544 72.4635 207.544 73.6414 210.604 73.6414H217.551L211.195 67.873H220.081L225.671 72.9357C226.733 72.3461 227.38 71.5216 227.614 70.4624C227.674 70.2276 227.674 69.9347 227.674 69.6973V52.2164C227.674 51.9816 227.674 51.7481 227.614 51.5107C227.203 49.5109 225.203 48.3936 222.201 48.3936H210.606C207.192 48.3936 204.956 49.8645 204.956 52.2164L204.955 69.5812Z" fill="#CE8B2C"/>
<path d="M44.876 105.198L53.888 139.999H47.0891L41.0651 114.937L29.7842 139.999H24.0478L12.8228 115.105L6.655 140.023H-0.00012207L8.91599 105.198H14.8201L26.9719 132.146L39.0438 105.198H44.876Z" fill="#231F20"/>
<path d="M79.5338 118.652V114.601H86.0851V140H79.5338V135.877C77.7921 138.825 74.2289 140.511 69.8907 140.511C60.8307 140.511 55.7655 134.119 55.7655 126.769C55.7655 119.683 60.5591 113.986 68.924 113.986C73.6856 114.026 77.6403 115.664 79.5338 118.652ZM62.7562 127.137C62.7562 131.81 65.6963 135.805 71.3847 135.805C76.8813 135.805 79.8694 131.906 79.8694 127.28C79.8694 122.655 76.7855 118.7 71.0811 118.7C65.5924 118.7 62.7562 122.647 62.7562 127.137Z" fill="#231F20"/>
<path d="M100.865 139.999H94.3141V114.601H100.865V120.29C101.611 118.462 102.877 116.894 104.506 115.781C106.135 114.667 108.056 114.057 110.029 114.026C111.422 114.006 112.807 114.234 114.12 114.697L112.722 119.491C111.59 119.19 110.425 119.029 109.254 119.011C104.532 119.011 100.865 122.575 100.865 127.8V139.999Z" fill="#231F20"/>
<path d="M117.395 107.914C117.384 107.453 117.467 106.995 117.642 106.568C117.816 106.141 118.077 105.754 118.408 105.433C118.739 105.112 119.133 104.862 119.565 104.701C119.997 104.54 120.458 104.469 120.919 104.495C121.387 104.48 121.853 104.56 122.289 104.731C122.725 104.901 123.122 105.159 123.455 105.488C123.788 105.816 124.051 106.21 124.228 106.643C124.404 107.077 124.491 107.542 124.482 108.01C124.492 108.473 124.405 108.932 124.227 109.359C124.05 109.786 123.784 110.171 123.449 110.489C123.113 110.807 122.715 111.052 122.279 111.207C121.843 111.362 121.38 111.424 120.919 111.39C120.455 111.41 119.992 111.334 119.558 111.167C119.125 111 118.731 110.745 118.4 110.419C118.069 110.093 117.81 109.703 117.637 109.272C117.464 108.841 117.382 108.379 117.395 107.914ZM117.683 114.617H124.274V133.161C124.274 134.311 124.514 135.134 125.48 135.134C125.902 135.123 126.322 135.075 126.735 134.99L127.741 139.784C126.36 140.325 124.887 140.596 123.403 140.583C120.655 140.583 117.715 139.784 117.715 133.544L117.683 114.617Z" fill="#231F20"/>
<path d="M153.547 118.652V114.601H160.098V140H153.547V135.877C151.805 138.825 148.242 140.511 143.904 140.511C134.844 140.511 129.779 134.119 129.779 126.769C129.779 119.683 134.572 113.986 142.937 113.986C147.715 114.026 151.662 115.664 153.547 118.652ZM136.769 127.137C136.769 131.81 139.71 135.805 145.398 135.805C150.895 135.805 153.883 131.906 153.883 127.28C153.883 122.655 150.799 118.7 145.094 118.7C139.614 118.7 136.769 122.647 136.769 127.137Z" fill="#231F20"/>
<path d="M170.165 105.198H185.88C199.086 105.198 205.694 112.484 205.598 122.599C205.694 133.113 198.407 139.999 187.038 139.999H170.165V105.198ZM174.503 108.29V136.964H186.487C196.993 136.964 200.996 129.877 200.996 122.503C200.996 114.17 195.978 108.29 186.487 108.29H174.503Z" fill="#231F20"/>
<path d="M232.386 139.999H212.413V105.198H230.389C237.283 105.198 243.835 106.5 243.739 114.218C243.739 119.659 240.367 121.153 236.796 121.736C241.861 122.167 244.897 125.395 244.897 130.604C244.969 138.41 238.122 139.999 232.386 139.999ZM230.892 120.386C237.787 120.386 239.329 117.733 239.329 114.362C239.329 109.296 236.245 108.138 230.892 108.138H216.583V120.386H230.892ZM231.084 123.326H216.583V137.059H231.715C235.957 137.059 240.439 135.661 240.439 130.316C240.439 124.141 235.278 123.326 231.084 123.326Z" fill="#231F20"/>
<path d="M399.415 62.487C399.063 62.1873 398.612 62.0287 398.15 62.0416C396.885 62.0416 395.255 62.8967 394.382 63.3776L394.031 63.5557C392.559 64.2687 390.957 64.6719 389.323 64.7403C387.649 64.7938 386.206 64.8917 384.327 65.0832C373.194 66.2322 368.228 74.7647 363.445 83.0166C360.845 87.5055 358.155 92.1458 354.468 95.7396C353.702 96.4783 352.89 97.167 352.036 97.8015C348.22 100.647 343.428 102.656 339.683 104.09C336.089 105.461 332.174 106.695 328.385 107.888C324.92 108.979 321.642 110.008 318.632 111.13C317.274 111.633 316.12 112.021 315.101 112.359C312.362 113.25 310.38 113.931 307.494 115.922C306.368 116.692 305.237 117.525 304.466 118.149C302.172 119.978 300.143 122.117 298.436 124.503C296.967 126.708 295.27 128.751 293.373 130.6C292.767 131.197 291.681 131.491 290.064 131.491C288.163 131.491 285.865 131.099 283.424 130.685C280.984 130.27 278.321 129.794 276.094 129.794C274.282 129.794 272.901 130.088 271.864 130.685C271.864 130.685 270.127 131.7 269.388 133.014L270.109 133.339C271.228 133.946 272.266 134.695 273.195 135.565C274.158 136.463 275.234 137.229 276.397 137.845C276.771 137.988 277.111 138.208 277.395 138.491C277.087 138.936 276.642 139.511 276.174 140.126C273.605 143.488 272.109 145.612 272.968 146.77C273.38 146.985 273.84 147.089 274.304 147.073C279.911 147.073 282.917 145.616 286.729 143.773C287.829 143.238 288.955 142.686 290.291 142.125C292.518 141.159 294.914 139.618 297.452 137.988C300.814 135.828 304.292 133.593 307.659 132.51C310.433 131.664 313.323 131.259 316.223 131.308C319.785 131.308 323.535 131.785 327.151 132.248C329.85 132.595 332.638 132.951 335.376 133.138C336.441 133.201 337.425 133.232 338.387 133.232C339.668 133.235 340.948 133.168 342.221 133.031L342.524 132.925C344.448 131.744 345.347 129.211 346.216 126.761C346.777 125.185 347.249 123.769 347.997 122.869C348.042 122.824 348.091 122.784 348.144 122.749C348.179 122.729 348.22 122.722 348.259 122.729C348.299 122.735 348.335 122.755 348.362 122.784C348.37 122.808 348.37 122.833 348.362 122.856C347.917 132.435 344.056 138.513 340.159 143.92L337.514 146.694C337.514 146.694 341.157 146.694 343.232 145.893C350.803 143.63 356.521 138.643 360.68 130.689C361.705 128.648 362.621 126.553 363.423 124.414C363.494 124.236 364.154 123.907 364.087 124.828C364.087 125.1 364.051 125.403 364.029 125.719C364.029 125.906 364.002 126.098 363.993 126.289C363.882 127.625 363.548 130.449 363.548 130.449L365.886 129.197C371.524 125.635 375.87 118.447 379.166 107.265C380.542 102.607 381.544 97.9796 382.43 93.9049C383.49 89.0063 384.403 84.8068 385.449 83.1769C387.092 80.6207 389.6 78.8929 392.027 77.214C392.361 76.9868 392.69 76.7686 393.015 76.5282C396.07 74.3861 399.103 71.9146 399.766 67.3054V67.203C400.274 63.765 399.86 62.91 399.415 62.487Z" fill="#231F20"/>
</g>
</svg>
