<svg width="305" height="59" viewBox="0 0 305 59" fill="none" xmlns="http://www.w3.org/2000/svg">
<path d="M84.6016 21.6406V40H81.2812V12.4805H86.1836L93.5078 31.5625C93.7682 32.3307 94.0156 33.1576 94.25 34.043C94.4974 34.9154 94.6602 35.5469 94.7383 35.9375C94.8164 35.5859 94.9466 35.1042 95.1289 34.4922C95.3112 33.8672 95.4935 33.2682 95.6758 32.6953C95.8581 32.1224 95.9883 31.7448 96.0664 31.5625L103.254 12.4805H108.039V40H104.68V21.6406C104.68 20.625 104.693 19.6289 104.719 18.6523C104.758 17.6758 104.803 16.7188 104.855 15.7812C104.53 16.9401 104.224 17.9818 103.938 18.9062C103.664 19.8177 103.397 20.599 103.137 21.25L96.0273 40H93.4102L86.2031 21.25L84.4648 15.7812C84.4909 16.7578 84.5169 17.7344 84.543 18.7109C84.582 19.6875 84.6016 20.6641 84.6016 21.6406ZM117.512 11.0156V14.375H113.996V11.0156H117.512ZM117.512 18.8672V40H113.996V18.8672H117.512ZM151.926 29.3359C151.926 33.0208 151.275 35.7878 149.973 37.6367C148.684 39.4727 146.743 40.3906 144.152 40.3906C140.897 40.3906 138.71 39.1667 137.59 36.7188H137.492C137.544 36.8099 137.57 37.9167 137.57 40.0391V48.3008H134.055V23.1836C134.055 22.1029 134.042 21.2044 134.016 20.4883C134.003 19.7591 133.977 19.2188 133.938 18.8672H137.336C137.349 18.9193 137.368 19.1732 137.395 19.6289C137.434 20.0846 137.466 20.5794 137.492 21.1133C137.518 21.6341 137.531 22.0182 137.531 22.2656H137.609C138.234 20.9635 139.061 20.013 140.09 19.4141C141.118 18.8021 142.473 18.4961 144.152 18.4961C146.757 18.4961 148.703 19.3685 149.992 21.1133C151.281 22.8581 151.926 25.599 151.926 29.3359ZM148.234 29.4141C148.234 26.4714 147.837 24.3685 147.043 23.1055C146.249 21.8424 144.986 21.2109 143.254 21.2109C141.327 21.2109 139.895 21.8815 138.957 23.2227C138.033 24.5508 137.57 26.7057 137.57 29.6875C137.57 32.4609 138.013 34.5052 138.898 35.8203C139.784 37.1354 141.223 37.793 143.215 37.793C144.96 37.793 146.229 37.1549 147.023 35.8789C147.831 34.5898 148.234 32.4349 148.234 29.4141ZM174.191 29.4141C174.191 33.112 173.378 35.8659 171.75 37.6758C170.122 39.4857 167.759 40.3906 164.66 40.3906C161.574 40.3906 159.243 39.4531 157.668 37.5781C156.092 35.6901 155.305 32.9688 155.305 29.4141C155.305 25.7682 156.092 23.0339 157.668 21.2109C159.257 19.388 161.626 18.4766 164.777 18.4766C168.007 18.4766 170.383 19.3685 171.906 21.1523C173.43 22.9232 174.191 25.6771 174.191 29.4141ZM170.5 29.4141C170.5 26.4974 170.064 24.3815 169.191 23.0664C168.332 21.7383 166.88 21.0742 164.836 21.0742C162.779 21.0742 161.288 21.7513 160.363 23.1055C159.452 24.4466 158.996 26.5495 158.996 29.4141C158.996 32.2005 159.445 34.2969 160.344 35.7031C161.255 37.0964 162.681 37.793 164.621 37.793C166.73 37.793 168.234 37.1159 169.133 35.7617C170.044 34.4076 170.5 32.2917 170.5 29.4141ZM182.18 28.9844V40H178.664V23.7891C178.664 23.0469 178.651 22.2656 178.625 21.4453C178.612 20.625 178.586 19.7656 178.547 18.8672H181.867C181.893 19.4661 181.913 20.0065 181.926 20.4883C181.952 20.9701 181.971 21.3932 181.984 21.7578C181.997 22.1094 182.004 22.4089 182.004 22.6562C182.017 22.8906 182.023 23.0664 182.023 23.1836H182.102C182.492 21.9076 182.922 20.918 183.391 20.2148C183.846 19.5638 184.367 19.1146 184.953 18.8672C185.539 18.6068 186.262 18.4766 187.121 18.4766C187.603 18.4766 188.078 18.5417 188.547 18.6719V21.8945C188.104 21.7643 187.479 21.6992 186.672 21.6992C185.214 21.6992 184.1 22.3307 183.332 23.5938C182.564 24.8438 182.18 26.6406 182.18 28.9844ZM200.031 39.8438C198.885 40.1562 197.701 40.3125 196.477 40.3125C195.07 40.3125 194.016 39.9154 193.312 39.1211C192.609 38.3138 192.258 37.1159 192.258 35.5273V21.4258H189.816V18.8672H192.395L193.43 14.1406H195.773V18.8672H199.68V21.4258H195.773V34.7656C195.773 35.7812 195.936 36.4974 196.262 36.9141C196.6 37.3177 197.18 37.5195 198 37.5195C198.443 37.5195 199.12 37.4284 200.031 37.2461V39.8438ZM208.43 40.3906C206.307 40.3906 204.712 39.8307 203.645 38.7109C202.577 37.5911 202.043 36.0547 202.043 34.1016C202.043 31.9141 202.759 30.2344 204.191 29.0625C205.637 27.8906 207.961 27.2656 211.164 27.1875L215.91 27.1094V25.957C215.91 24.2383 215.546 23.0078 214.816 22.2656C214.087 21.5234 212.941 21.1523 211.379 21.1523C209.803 21.1523 208.658 21.4193 207.941 21.9531C207.225 22.487 206.796 23.3398 206.652 24.5117L202.98 24.1797C203.579 20.3776 206.405 18.4766 211.457 18.4766C214.113 18.4766 216.112 19.0885 217.453 20.3125C218.794 21.5234 219.465 23.2812 219.465 25.5859V34.6875C219.465 35.7292 219.602 36.5169 219.875 37.0508C220.148 37.5716 220.669 37.832 221.438 37.832C221.802 37.832 222.186 37.7865 222.59 37.6953V39.8828C222.147 39.987 221.698 40.0651 221.242 40.1172C220.786 40.1693 220.331 40.1953 219.875 40.1953C218.573 40.1953 217.622 39.8568 217.023 39.1797C216.438 38.4896 216.105 37.4154 216.027 35.957H215.91C215.012 37.5716 213.964 38.7174 212.766 39.3945C211.581 40.0586 210.135 40.3906 208.43 40.3906ZM215.91 29.5703L212.062 29.6484C210.422 29.6615 209.172 29.8307 208.312 30.1562C207.453 30.4688 206.796 30.9505 206.34 31.6016C205.884 32.2526 205.656 33.1055 205.656 34.1602C205.656 35.306 205.962 36.1914 206.574 36.8164C207.199 37.4414 208.085 37.7539 209.23 37.7539C210.533 37.7539 211.678 37.4609 212.668 36.875C213.671 36.2891 214.458 35.4883 215.031 34.4727C215.617 33.444 215.91 32.3893 215.91 31.3086V29.5703ZM229.66 21.4258V40H226.145V21.4258H223.176V18.8672H226.145V16.4844C226.145 14.5573 226.568 13.1706 227.414 12.3242C228.26 11.4779 229.556 11.0547 231.301 11.0547C232.277 11.0547 233.104 11.1328 233.781 11.2891V13.9648C233.156 13.8607 232.635 13.8086 232.219 13.8086C231.32 13.8086 230.669 14.0365 230.266 14.4922C229.862 14.9479 229.66 15.7747 229.66 16.9727V18.8672H233.781V21.4258H229.66ZM254.309 29.4141C254.309 33.112 253.495 35.8659 251.867 37.6758C250.24 39.4857 247.876 40.3906 244.777 40.3906C241.691 40.3906 239.361 39.4531 237.785 37.5781C236.21 35.6901 235.422 32.9688 235.422 29.4141C235.422 25.7682 236.21 23.0339 237.785 21.2109C239.374 19.388 241.743 18.4766 244.895 18.4766C248.124 18.4766 250.5 19.3685 252.023 21.1523C253.547 22.9232 254.309 25.6771 254.309 29.4141ZM250.617 29.4141C250.617 26.4974 250.181 24.3815 249.309 23.0664C248.449 21.7383 246.997 21.0742 244.953 21.0742C242.896 21.0742 241.405 21.7513 240.48 23.1055C239.569 24.4466 239.113 26.5495 239.113 29.4141C239.113 32.2005 239.562 34.2969 240.461 35.7031C241.372 37.0964 242.798 37.793 244.738 37.793C246.848 37.793 248.352 37.1159 249.25 35.7617C250.161 34.4076 250.617 32.2917 250.617 29.4141ZM262.219 11.0156V40H258.703V11.0156H262.219ZM271.105 11.0156V14.375H267.59V11.0156H271.105ZM271.105 18.8672V40H267.59V18.8672H271.105ZM294.387 29.4141C294.387 33.112 293.573 35.8659 291.945 37.6758C290.318 39.4857 287.954 40.3906 284.855 40.3906C281.77 40.3906 279.439 39.4531 277.863 37.5781C276.288 35.6901 275.5 32.9688 275.5 29.4141C275.5 25.7682 276.288 23.0339 277.863 21.2109C279.452 19.388 281.822 18.4766 284.973 18.4766C288.202 18.4766 290.578 19.3685 292.102 21.1523C293.625 22.9232 294.387 25.6771 294.387 29.4141ZM290.695 29.4141C290.695 26.4974 290.259 24.3815 289.387 23.0664C288.527 21.7383 287.076 21.0742 285.031 21.0742C282.974 21.0742 281.483 21.7513 280.559 23.1055C279.647 24.4466 279.191 26.5495 279.191 29.4141C279.191 32.2005 279.641 34.2969 280.539 35.7031C281.451 37.0964 282.876 37.793 284.816 37.793C286.926 37.793 288.43 37.1159 289.328 35.7617C290.24 34.4076 290.695 32.2917 290.695 29.4141Z" fill="white"/>
<path d="M56.7678 34.7678C57.7441 33.7915 57.7441 32.2085 56.7678 31.2322L40.8579 15.3223C39.8816 14.346 38.2986 14.346 37.3223 15.3223C36.346 16.2986 36.346 17.8816 37.3223 18.8579L51.4645 33L37.3223 47.1421C36.346 48.1184 36.346 49.7014 37.3223 50.6777C38.2986 51.654 39.8816 51.654 40.8579 50.6777L56.7678 34.7678ZM0 35.5H55V30.5H0V35.5Z" fill="white"/>
<path d="M71.5 56L305 56" stroke="white" stroke-width="5"/>
</svg>
