<svg width="586" height="61" viewBox="0 0 586 61" fill="none" xmlns="http://www.w3.org/2000/svg">
<path d="M6.75 13.1875V19.4688H0.6875V13.1875H6.75ZM0.5625 57.2188L1.3125 25.5938H5.9375L6.6875 57.2188H0.5625ZM25.5312 26.5938V47H19.5625V2.96875H25.5312V21.5938H49.3438V2.96875H55.3125V47H49.3438V26.5938H25.5312ZM93.4688 30.0625C93.4688 35.9792 92.1667 40.3854 89.5625 43.2812C86.9583 46.1771 83.1771 47.625 78.2188 47.625C73.2812 47.625 69.5521 46.125 67.0312 43.125C64.5104 40.1042 63.25 35.75 63.25 30.0625C63.25 24.2292 64.5104 19.8542 67.0312 16.9375C69.5729 14.0208 73.3646 12.5625 78.4062 12.5625C83.5729 12.5625 87.375 13.9896 89.8125 16.8438C92.25 19.6771 93.4688 24.0833 93.4688 30.0625ZM87.5625 30.0625C87.5625 25.3958 86.8646 22.0104 85.4688 19.9062C84.0938 17.7812 81.7708 16.7188 78.5 16.7188C75.2083 16.7188 72.8229 17.8021 71.3438 19.9688C69.8854 22.1146 69.1562 25.4792 69.1562 30.0625C69.1562 34.5208 69.875 37.875 71.3125 40.125C72.7708 42.3542 75.0521 43.4688 78.1562 43.4688C81.5312 43.4688 83.9375 42.3854 85.375 40.2188C86.8333 38.0521 87.5625 34.6667 87.5625 30.0625ZM106.125 0.625V47H100.5V0.625H106.125ZM123.375 47.625C119.979 47.625 117.427 46.7292 115.719 44.9375C114.01 43.1458 113.156 40.6875 113.156 37.5625C113.156 34.0625 114.302 31.375 116.594 29.5C118.906 27.625 122.625 26.625 127.75 26.5L135.344 26.375V24.5312C135.344 21.7812 134.76 19.8125 133.594 18.625C132.427 17.4375 130.594 16.8438 128.094 16.8438C125.573 16.8438 123.74 17.2708 122.594 18.125C121.448 18.9792 120.76 20.3438 120.531 22.2188L114.656 21.6875C115.615 15.6042 120.135 12.5625 128.219 12.5625C132.469 12.5625 135.667 13.5417 137.812 15.5C139.958 17.4375 141.031 20.25 141.031 23.9375V38.5C141.031 40.1667 141.25 41.4271 141.688 42.2812C142.125 43.1146 142.958 43.5312 144.188 43.5312C144.771 43.5312 145.385 43.4583 146.031 43.3125V46.8125C145.323 46.9792 144.604 47.1042 143.875 47.1875C143.146 47.2708 142.417 47.3125 141.688 47.3125C139.604 47.3125 138.083 46.7708 137.125 45.6875C136.188 44.5833 135.656 42.8646 135.531 40.5312H135.344C133.906 43.1146 132.229 44.9479 130.312 46.0312C128.417 47.0938 126.104 47.625 123.375 47.625ZM135.344 30.3125L129.188 30.4375C126.562 30.4583 124.562 30.7292 123.188 31.25C121.812 31.75 120.76 32.5208 120.031 33.5625C119.302 34.6042 118.938 35.9688 118.938 37.6562C118.938 39.4896 119.427 40.9062 120.406 41.9062C121.406 42.9062 122.823 43.4062 124.656 43.4062C126.74 43.4062 128.573 42.9375 130.156 42C131.76 41.0625 133.021 39.7812 133.938 38.1562C134.875 36.5104 135.344 34.8229 135.344 33.0938V30.3125ZM158.031 2.96875L157.281 34.5938H152.656L151.906 2.96875H158.031ZM157.906 40.7188V47H151.844V40.7188H157.906ZM175.906 45.4062C175.906 47.6146 175.708 49.4583 175.312 50.9375C174.917 52.4167 174.302 53.8333 173.469 55.1875H169.625C170.604 53.7708 171.333 52.375 171.812 51C172.312 49.6458 172.562 48.3125 172.562 47H169.812V40.1562H175.906V45.4062ZM213.25 13.1875V19.4688H207.188V13.1875H213.25ZM207.062 57.2188L207.812 25.5938H212.438L213.188 57.2188H207.062ZM260.562 34.8438C260.562 38.9062 258.969 42.0521 255.781 44.2812C252.615 46.5104 248.146 47.625 242.375 47.625C231.646 47.625 225.427 43.8958 223.719 36.4375L229.5 35.2812C230.167 37.9271 231.583 39.875 233.75 41.125C235.917 42.3542 238.865 42.9688 242.594 42.9688C246.448 42.9688 249.417 42.3125 251.5 41C253.604 39.6667 254.656 37.7188 254.656 35.1562C254.656 33.7188 254.323 32.5521 253.656 31.6562C253.01 30.7604 252.094 30.0208 250.906 29.4375C249.719 28.8542 248.302 28.3646 246.656 27.9688C245.01 27.5729 243.188 27.1458 241.188 26.6875C238.875 26.1667 236.938 25.6562 235.375 25.1562C233.833 24.6562 232.562 24.1354 231.562 23.5938C230.562 23.0312 229.708 22.4375 229 21.8125C227.958 20.8542 227.156 19.7396 226.594 18.4688C226.052 17.1979 225.781 15.7396 225.781 14.0938C225.781 10.3229 227.219 7.41667 230.094 5.375C232.99 3.33333 237.125 2.3125 242.5 2.3125C247.5 2.3125 251.323 3.08333 253.969 4.625C256.615 6.14583 258.469 8.75 259.531 12.4375L253.656 13.4688C253.01 11.1354 251.781 9.44792 249.969 8.40625C248.156 7.34375 245.646 6.8125 242.438 6.8125C238.917 6.8125 236.229 7.39583 234.375 8.5625C232.521 9.72917 231.594 11.4688 231.594 13.7812C231.594 15.1354 231.948 16.2604 232.656 17.1562C233.385 18.0312 234.427 18.7708 235.781 19.375C237.052 19.9792 239.75 20.7396 243.875 21.6562C245.562 22.0521 247.229 22.4688 248.875 22.9062C250.521 23.3229 252.073 23.8542 253.531 24.5C254.385 24.8542 255.198 25.2917 255.969 25.8125C256.76 26.3125 257.448 26.8958 258.031 27.5625C258.823 28.4375 259.438 29.4688 259.875 30.6562C260.333 31.8438 260.562 33.2396 260.562 34.8438ZM296.406 30.0625C296.406 35.9792 295.104 40.3854 292.5 43.2812C289.896 46.1771 286.115 47.625 281.156 47.625C276.219 47.625 272.49 46.125 269.969 43.125C267.448 40.1042 266.188 35.75 266.188 30.0625C266.188 24.2292 267.448 19.8542 269.969 16.9375C272.51 14.0208 276.302 12.5625 281.344 12.5625C286.51 12.5625 290.312 13.9896 292.75 16.8438C295.188 19.6771 296.406 24.0833 296.406 30.0625ZM290.5 30.0625C290.5 25.3958 289.802 22.0104 288.406 19.9062C287.031 17.7812 284.708 16.7188 281.438 16.7188C278.146 16.7188 275.76 17.8021 274.281 19.9688C272.823 22.1146 272.094 25.4792 272.094 30.0625C272.094 34.5208 272.812 37.875 274.25 40.125C275.708 42.3542 277.99 43.4688 281.094 43.4688C284.469 43.4688 286.875 42.3854 288.312 40.2188C289.771 38.0521 290.5 34.6667 290.5 30.0625ZM305.094 60.2812C303.594 60.2812 302.302 60.1667 301.219 59.9375V55.7188C302.01 55.8438 302.885 55.9062 303.844 55.9062C305.594 55.9062 307.208 55.25 308.688 53.9375C310.188 52.6458 311.521 50.2812 312.688 46.8438L299.281 13.1875H305.281L312.406 31.875C312.927 33.2083 313.479 34.7188 314.062 36.4062C314.667 38.0938 315.135 39.5833 315.469 40.875C315.99 39.3958 316.51 37.9271 317.031 36.4688C317.573 35.0104 318.094 33.5521 318.594 32.0938L325.062 13.1875H331L318 47C317.292 48.7917 316.615 50.3542 315.969 51.6875C315.323 53.0417 314.698 54.1562 314.094 55.0312C312.885 56.8021 311.542 58.1146 310.062 58.9688C308.604 59.8438 306.948 60.2812 305.094 60.2812ZM359.5 17.625V47H354.188V2.96875H362.031L373.75 33.5C374.167 34.7292 374.562 36.0521 374.938 37.4688C375.333 38.8646 375.594 39.875 375.719 40.5C375.844 39.9375 376.052 39.1667 376.344 38.1875C376.635 37.1875 376.927 36.2292 377.219 35.3125C377.51 34.3958 377.719 33.7917 377.844 33.5L389.344 2.96875H397V47H391.625V17.625C391.625 16 391.646 14.4062 391.688 12.8438C391.75 11.2812 391.823 9.75 391.906 8.25C391.385 10.1042 390.896 11.7708 390.438 13.25C390 14.7083 389.573 15.9583 389.156 17L377.781 47H373.594L362.062 17L359.281 8.25C359.323 9.8125 359.365 11.375 359.406 12.9375C359.469 14.5 359.5 16.0625 359.5 17.625ZM415.188 47.625C411.792 47.625 409.24 46.7292 407.531 44.9375C405.823 43.1458 404.969 40.6875 404.969 37.5625C404.969 34.0625 406.115 31.375 408.406 29.5C410.719 27.625 414.438 26.625 419.562 26.5L427.156 26.375V24.5312C427.156 21.7812 426.573 19.8125 425.406 18.625C424.24 17.4375 422.406 16.8438 419.906 16.8438C417.385 16.8438 415.552 17.2708 414.406 18.125C413.26 18.9792 412.573 20.3438 412.344 22.2188L406.469 21.6875C407.427 15.6042 411.948 12.5625 420.031 12.5625C424.281 12.5625 427.479 13.5417 429.625 15.5C431.771 17.4375 432.844 20.25 432.844 23.9375V38.5C432.844 40.1667 433.062 41.4271 433.5 42.2812C433.938 43.1146 434.771 43.5312 436 43.5312C436.583 43.5312 437.198 43.4583 437.844 43.3125V46.8125C437.135 46.9792 436.417 47.1042 435.688 47.1875C434.958 47.2708 434.229 47.3125 433.5 47.3125C431.417 47.3125 429.896 46.7708 428.938 45.6875C428 44.5833 427.469 42.8646 427.344 40.5312H427.156C425.719 43.1146 424.042 44.9479 422.125 46.0312C420.229 47.0938 417.917 47.625 415.188 47.625ZM427.156 30.3125L421 30.4375C418.375 30.4583 416.375 30.7292 415 31.25C413.625 31.75 412.573 32.5208 411.844 33.5625C411.115 34.6042 410.75 35.9688 410.75 37.6562C410.75 39.4896 411.24 40.9062 412.219 41.9062C413.219 42.9062 414.635 43.4062 416.469 43.4062C418.552 43.4062 420.385 42.9375 421.969 42C423.573 41.0625 424.833 39.7812 425.75 38.1562C426.688 36.5104 427.156 34.8229 427.156 33.0938V30.3125ZM455.188 46.75C453.354 47.25 451.458 47.5 449.5 47.5C447.25 47.5 445.562 46.8646 444.438 45.5938C443.312 44.3021 442.75 42.3854 442.75 39.8438V17.2812H438.844V13.1875H442.969L444.625 5.625H448.375V13.1875H454.625V17.2812H448.375V38.625C448.375 40.25 448.635 41.3958 449.156 42.0625C449.698 42.7083 450.625 43.0312 451.938 43.0312C452.646 43.0312 453.729 42.8854 455.188 42.5938V46.75ZM465.594 18.9688C466.802 16.7604 468.25 15.1458 469.938 14.125C471.646 13.0833 473.802 12.5625 476.406 12.5625C480.073 12.5625 482.771 13.5208 484.5 15.4375C486.25 17.3333 487.125 20.3438 487.125 24.4688V47H481.469V25.5625C481.469 22.5 480.927 20.2917 479.844 18.9375C478.781 17.5833 477 16.9062 474.5 16.9062C471.854 16.9062 469.729 17.8229 468.125 19.6562C466.542 21.4896 465.75 23.9583 465.75 27.0625V47H460.125V0.625H465.75V12.6875C465.75 13.5208 465.729 14.4062 465.688 15.3438C465.646 16.2604 465.604 17.0625 465.562 17.75C465.542 18.4167 465.521 18.8229 465.5 18.9688H465.594ZM501.219 0.625V6H495.594V0.625H501.219ZM501.219 13.1875V47H495.594V13.1875H501.219ZM531.25 41.2188C529.958 43.5521 528.458 45.2083 526.75 46.1875C525.062 47.1458 522.958 47.625 520.438 47.625C516.729 47.625 514.01 46.7083 512.281 44.875C510.573 43.0208 509.719 39.9688 509.719 35.7188V13.1875H515.375V34.625C515.375 38 515.896 40.2917 516.938 41.5C518 42.6875 519.802 43.2812 522.344 43.2812C525.052 43.2812 527.188 42.3542 528.75 40.5C530.312 38.6458 531.094 36.0729 531.094 32.7812V13.1875H536.719V39.7812C536.719 41.7396 536.729 43.3229 536.75 44.5312C536.792 45.7396 536.844 46.5625 536.906 47H531.594C531.573 46.8958 531.531 46.4062 531.469 45.5312C531.427 44.6562 531.385 43.2188 531.344 41.2188H531.25ZM570.875 37.6562C570.875 40.8438 569.667 43.3021 567.25 45.0312C564.854 46.7604 561.49 47.625 557.156 47.625C552.948 47.625 549.698 46.9375 547.406 45.5625C545.135 44.1667 543.656 42 542.969 39.0625L547.938 38.0938C548.417 39.9062 549.406 41.2396 550.906 42.0938C552.406 42.9271 554.49 43.3438 557.156 43.3438C560.01 43.3438 562.094 42.9062 563.406 42.0312C564.74 41.1562 565.406 39.8438 565.406 38.0938C565.406 36.7604 564.948 35.6771 564.031 34.8438C563.115 34.0104 561.635 33.3229 559.594 32.7812C557.177 32.1354 555.25 31.6042 553.812 31.1875C552.396 30.7708 551.302 30.4167 550.531 30.125C549.76 29.8125 549.146 29.5208 548.688 29.25C547.312 28.4583 546.24 27.4896 545.469 26.3438C544.698 25.1979 544.312 23.7917 544.312 22.125C544.312 19.0417 545.406 16.6979 547.594 15.0938C549.802 13.4688 553.01 12.6562 557.219 12.6562C560.948 12.6562 563.906 13.3125 566.094 14.625C568.302 15.9375 569.698 18.0417 570.281 20.9375L565.219 21.5625C564.906 20.0625 564.062 18.9167 562.688 18.125C561.333 17.3125 559.51 16.9062 557.219 16.9062C554.677 16.9062 552.802 17.2917 551.594 18.0625C550.385 18.8333 549.781 20 549.781 21.5625C549.781 22.7083 550.125 23.6562 550.812 24.4062C551.5 25.1354 552.812 25.7396 554.75 26.2188C557.354 26.8438 559.833 27.5312 562.188 28.2812C564.542 29.0104 566.229 29.7396 567.25 30.4688C568.438 31.3229 569.333 32.3333 569.938 33.5C570.562 34.6458 570.875 36.0312 570.875 37.6562ZM585.156 2.96875L584.406 34.5938H579.781L579.031 2.96875H585.156ZM585.031 40.7188V47H578.969V40.7188H585.031Z" fill="#98353C"/>
</svg>
